%TF.GenerationSoftware,KiCad,Pcbnew,8.0.6*%
%TF.CreationDate,2025-01-05T14:05:32+01:00*%
%TF.ProjectId,snes_cart_pcb_pga2350,736e6573-5f63-4617-9274-5f7063625f70,rev?*%
%TF.SameCoordinates,Original*%
%TF.FileFunction,Copper,L2,Bot*%
%TF.FilePolarity,Positive*%
%FSLAX46Y46*%
G04 Gerber Fmt 4.6, Leading zero omitted, Abs format (unit mm)*
G04 Created by KiCad (PCBNEW 8.0.6) date 2025-01-05 14:05:32*
%MOMM*%
%LPD*%
G01*
G04 APERTURE LIST*
%TA.AperFunction,ConnectorPad*%
%ADD10R,1.501140X7.000240*%
%TD*%
%TA.AperFunction,ConnectorPad*%
%ADD11R,1.998980X7.000240*%
%TD*%
%TA.AperFunction,ComponentPad*%
%ADD12C,2.032000*%
%TD*%
%TA.AperFunction,ViaPad*%
%ADD13C,0.600000*%
%TD*%
%TA.AperFunction,Conductor*%
%ADD14C,0.100000*%
%TD*%
G04 APERTURE END LIST*
D10*
%TO.P,J1,62,LINE_R*%
%TO.N,/LINE_R*%
X144349480Y-105580180D03*
%TO.P,J1,61,PA5*%
%TO.N,/PA5*%
X141850120Y-105580180D03*
%TO.P,J1,60,PA3*%
%TO.N,/PA3*%
X139350760Y-105580180D03*
%TO.P,J1,59,PA1*%
%TO.N,/PA1*%
X136851400Y-105580180D03*
D11*
%TO.P,J1,58,VCC*%
%TO.N,/VCC*%
X129599700Y-105580180D03*
D10*
%TO.P,J1,57,CPU_CLK*%
%TO.N,/CPU_CLK*%
X126851420Y-105580180D03*
%TO.P,J1,56,CIC_P6_CLK*%
%TO.N,/CIC_P6_CLK*%
X124349520Y-105580180D03*
%TO.P,J1,55,CIC_P2_DIN*%
%TO.N,/CIC_P2_DIN*%
X121850160Y-105580180D03*
%TO.P,J1,54,/WR*%
%TO.N,/{slash}WR*%
X119350800Y-105580180D03*
%TO.P,J1,53,D7*%
%TO.N,/D7*%
X116851440Y-105580180D03*
%TO.P,J1,52,D6*%
%TO.N,/D6*%
X114349540Y-105580180D03*
%TO.P,J1,51,D5*%
%TO.N,/D5*%
X111850180Y-105580180D03*
%TO.P,J1,50,D4*%
%TO.N,/D4*%
X109350820Y-105580180D03*
%TO.P,J1,49,/ROMSEL*%
%TO.N,/{slash}ROMSEL*%
X106851460Y-105580180D03*
%TO.P,J1,48,A23*%
%TO.N,/A23*%
X104349560Y-105580180D03*
%TO.P,J1,47,A22*%
%TO.N,/A22*%
X101850200Y-105580180D03*
%TO.P,J1,46,A21*%
%TO.N,/A21*%
X99350840Y-105580180D03*
%TO.P,J1,45,A20*%
%TO.N,/A20*%
X96848940Y-105580180D03*
%TO.P,J1,44,A19*%
%TO.N,/A19*%
X94349580Y-105580180D03*
%TO.P,J1,43,A18*%
%TO.N,/A18*%
X91850220Y-105580180D03*
%TO.P,J1,42,A17*%
%TO.N,/A17*%
X89350860Y-105580180D03*
%TO.P,J1,41,A16*%
%TO.N,/A16*%
X86848960Y-105580180D03*
%TO.P,J1,40,A15*%
%TO.N,/A15*%
X84349600Y-105580180D03*
%TO.P,J1,39,A14*%
%TO.N,/A14*%
X81850240Y-105580180D03*
%TO.P,J1,38,A13*%
%TO.N,/A13*%
X79350880Y-105580180D03*
%TO.P,J1,37,A12*%
%TO.N,/A12*%
X76848980Y-105580180D03*
D11*
%TO.P,J1,36,GND*%
%TO.N,/GND*%
X74100700Y-105580180D03*
D10*
%TO.P,J1,35,/PAWR*%
%TO.N,/{slash}PAWR*%
X66849000Y-105580180D03*
%TO.P,J1,34,PA7*%
%TO.N,/PA7*%
X64349640Y-105580180D03*
%TO.P,J1,33,REFRESH*%
%TO.N,/REFRESH*%
X61850280Y-105580180D03*
%TO.P,J1,32,/WRAM*%
%TO.N,/{slash}WRAM*%
X59350920Y-105580180D03*
%TD*%
D12*
%TO.P,U1,A1,PIN_A1*%
%TO.N,/GND*%
X90170000Y-54610000D03*
%TO.P,U1,A2,PIN_A2*%
%TO.N,/A1*%
X92710000Y-54610000D03*
%TO.P,U1,A3,PIN_A3*%
%TO.N,/VBUS*%
X95250000Y-54610000D03*
%TO.P,U1,A4,PIN_A4*%
%TO.N,/3V3_EN*%
X97790000Y-54610000D03*
%TO.P,U1,A5,PIN_A5*%
%TO.N,/RUN*%
X100330000Y-54610000D03*
%TO.P,U1,A6,PIN_A6*%
%TO.N,/USB_DP*%
X102870000Y-54610000D03*
%TO.P,U1,A7,PIN_A7*%
%TO.N,/USB_DM*%
X105410000Y-54610000D03*
%TO.P,U1,A8,PIN_A8*%
%TO.N,/BOOTSEL*%
X107950000Y-54610000D03*
%TO.P,U1,A9,PIN_A9*%
%TO.N,/GP46*%
X110490000Y-54610000D03*
%TO.P,U1,A10,PIN_A10*%
%TO.N,/GND*%
X113030000Y-54610000D03*
%TO.P,U1,B1,PIN_B1*%
%TO.N,/A2*%
X90170000Y-57150000D03*
%TO.P,U1,B2,PIN_B2*%
%TO.N,/GND*%
X92710000Y-57150000D03*
%TO.P,U1,B3,PIN_B3*%
%TO.N,/A0*%
X95250000Y-57150000D03*
%TO.P,U1,B4,PIN_B4*%
%TO.N,/3V3*%
X97790000Y-57150000D03*
%TO.P,U1,B5,PIN_B5*%
%TO.N,/ADC_VREF*%
X100330000Y-57150000D03*
%TO.P,U1,B6,PIN_B6*%
%TO.N,/SWCLK*%
X102870000Y-57150000D03*
%TO.P,U1,B7,PIN_B7*%
%TO.N,/SWDIO*%
X105410000Y-57150000D03*
%TO.P,U1,B8,PIN_B8*%
%TO.N,/GP47*%
X107950000Y-57150000D03*
%TO.P,U1,B9,PIN_B9*%
%TO.N,/GND*%
X110490000Y-57150000D03*
%TO.P,U1,B10,PIN_B10*%
%TO.N,/GP45*%
X113030000Y-57150000D03*
%TO.P,U1,C1,PIN_C1*%
%TO.N,/A4*%
X90170000Y-59690000D03*
%TO.P,U1,C2,PIN_C2*%
%TO.N,/A3*%
X92710000Y-59690000D03*
%TO.P,U1,C9,PIN_C9*%
%TO.N,/GP43*%
X110490000Y-59690000D03*
%TO.P,U1,C10,PIN_C10*%
%TO.N,/GP44*%
X113030000Y-59690000D03*
%TO.P,U1,D1,PIN_D1*%
%TO.N,/A6*%
X90170000Y-62230000D03*
%TO.P,U1,D2,PIN_D2*%
%TO.N,/A5*%
X92710000Y-62230000D03*
%TO.P,U1,D9,PIN_D9*%
%TO.N,/GP41*%
X110490000Y-62230000D03*
%TO.P,U1,D10,PIN_D10*%
%TO.N,/GP42*%
X113030000Y-62230000D03*
%TO.P,U1,E1,PIN_E1*%
%TO.N,/A8*%
X90170000Y-64770000D03*
%TO.P,U1,E2,PIN_E2*%
%TO.N,/A7*%
X92710000Y-64770000D03*
%TO.P,U1,E9,PIN_E9*%
%TO.N,/CIC_P6_CLK*%
X110490000Y-64770000D03*
%TO.P,U1,E10,PIN_E10*%
%TO.N,/CIC_P7_RESET*%
X113030000Y-64770000D03*
%TO.P,U1,F1,PIN_F1*%
%TO.N,/A10*%
X90170000Y-67310000D03*
%TO.P,U1,F2,PIN_F2*%
%TO.N,/A9*%
X92710000Y-67310000D03*
%TO.P,U1,F9,PIN_F9*%
%TO.N,/CIC_P1_DOUT*%
X110490000Y-67310000D03*
%TO.P,U1,F10,PIN_F10*%
%TO.N,/CIC_P1_DIN*%
X113030000Y-67310000D03*
%TO.P,U1,G1,PIN_G1*%
%TO.N,/A12*%
X90170000Y-69850000D03*
%TO.P,U1,G2,PIN_G2*%
%TO.N,/A11*%
X92710000Y-69850000D03*
%TO.P,U1,G9,PIN_G9*%
%TO.N,/{slash}RESET*%
X110490000Y-69850000D03*
%TO.P,U1,G10,PIN_G10*%
%TO.N,/{slash}IRQ*%
X113030000Y-69850000D03*
%TO.P,U1,H1,PIN_H1*%
%TO.N,/A14*%
X90170000Y-72390000D03*
%TO.P,U1,H2,PIN_H2*%
%TO.N,/A13*%
X92710000Y-72390000D03*
%TO.P,U1,H9,PIN_H9*%
%TO.N,/{slash}RD*%
X110490000Y-72390000D03*
%TO.P,U1,H10,PIN_H10*%
%TO.N,/{slash}WR*%
X113030000Y-72390000D03*
%TO.P,U1,J1,PIN_J1*%
%TO.N,/A16*%
X90170000Y-74930000D03*
%TO.P,U1,J2,PIN_J2*%
%TO.N,/A15*%
X92710000Y-74930000D03*
%TO.P,U1,J3,PIN_J3*%
%TO.N,/A19*%
X95250000Y-74930000D03*
%TO.P,U1,J4,PIN_J4*%
%TO.N,/A21*%
X97790000Y-74930000D03*
%TO.P,U1,J5,PIN_J5*%
%TO.N,/A23*%
X100330000Y-74930000D03*
%TO.P,U1,J6,PIN_J6*%
%TO.N,/D1*%
X102870000Y-74930000D03*
%TO.P,U1,J7,PIN_J7*%
%TO.N,/D3*%
X105410000Y-74930000D03*
%TO.P,U1,J8,PIN_J8*%
%TO.N,/D5*%
X107950000Y-74930000D03*
%TO.P,U1,J9,PIN_J9*%
%TO.N,/D7*%
X110490000Y-74930000D03*
%TO.P,U1,J10,PIN_J10*%
%TO.N,/{slash}ROMSEL*%
X113030000Y-74930000D03*
%TO.P,U1,K1,PIN_K1*%
%TO.N,/GND*%
X90170000Y-77470000D03*
%TO.P,U1,K2,PIN_K2*%
%TO.N,/A17*%
X92710000Y-77470000D03*
%TO.P,U1,K3,PIN_K3*%
%TO.N,/A18*%
X95250000Y-77470000D03*
%TO.P,U1,K4,PIN_K4*%
%TO.N,/A20*%
X97790000Y-77470000D03*
%TO.P,U1,K5,PIN_K5*%
%TO.N,/A22*%
X100330000Y-77470000D03*
%TO.P,U1,K6,PIN_K6*%
%TO.N,/D0*%
X102870000Y-77470000D03*
%TO.P,U1,K7,PIN_K7*%
%TO.N,/D2*%
X105410000Y-77470000D03*
%TO.P,U1,K8,PIN_K8*%
%TO.N,/D4*%
X107950000Y-77470000D03*
%TO.P,U1,K9,PIN_K9*%
%TO.N,/D6*%
X110490000Y-77470000D03*
%TO.P,U1,K10,PIN_K10*%
%TO.N,/GND*%
X113030000Y-77470000D03*
%TD*%
D13*
%TO.N,/USB_VBUS*%
X81651650Y-38471650D03*
%TO.N,/CIC_P7_RESET*%
X125573323Y-101067846D03*
%TO.N,/{slash}WRAM*%
X56892100Y-80596700D03*
%TO.N,/LINE_R*%
X144494000Y-99780400D03*
%TO.N,/{slash}IRQ*%
X106191704Y-101274297D03*
%TO.N,/REFRESH*%
X59432100Y-80596700D03*
%TO.N,/{slash}PAWR*%
X66790700Y-99780400D03*
%TO.N,/PA3*%
X132709000Y-73200800D03*
%TO.N,/PA5*%
X134620000Y-73213000D03*
%TO.N,/CIC_P1_DOUT*%
X120554179Y-101141336D03*
%TO.N,/PA1*%
X130236000Y-73198700D03*
%TO.N,/PA7*%
X61972100Y-80596700D03*
%TO.N,/CPU_CLK*%
X126321000Y-76984000D03*
%TO.N,/SWDIO*%
X109712000Y-35981700D03*
%TO.N,/USB_DM*%
X91617900Y-40348400D03*
%TO.N,/GP47*%
X143285000Y-63565200D03*
%TO.N,/GP46*%
X138677800Y-62944400D03*
%TO.N,/A3*%
X93400400Y-99584200D03*
%TO.N,/A1*%
X81368600Y-85169500D03*
%TO.N,/A0*%
X104348340Y-101003550D03*
%TO.N,/A2*%
X81753800Y-85938800D03*
%TO.N,/A6*%
X81834900Y-93366000D03*
%TO.N,/A4*%
X82041100Y-89519900D03*
%TO.N,/A13*%
X84349000Y-81481000D03*
%TO.N,/VCC*%
X131050140Y-100657575D03*
X101296000Y-61062000D03*
%TO.N,/A5*%
X82646800Y-93152300D03*
%TO.N,/{slash}ROMSEL*%
X108581000Y-81060200D03*
%TO.N,/A9*%
X82517200Y-100988000D03*
X86359400Y-75137100D03*
%TO.N,/GND*%
X80000500Y-85746300D03*
X72857338Y-101156625D03*
%TO.N,/A8*%
X82616200Y-94995100D03*
%TO.N,/A10*%
X79350900Y-98951800D03*
%TO.N,/A7*%
X83870400Y-99158000D03*
%TD*%
D14*
%TO.N,/A0*%
X104348340Y-101003550D02*
X104140000Y-100795210D01*
X104140000Y-100795210D02*
X104140000Y-66040000D01*
X104140000Y-66040000D02*
X95250000Y-57150000D01*
%TO.N,/GND*%
X73528713Y-101828000D02*
X74100700Y-101828000D01*
X72857338Y-101156625D02*
X73528713Y-101828000D01*
%TO.N,/{slash}IRQ*%
X106191704Y-101274297D02*
X106680000Y-100786001D01*
X106680000Y-100786001D02*
X106680000Y-74403800D01*
X111760000Y-71120000D02*
X113030000Y-69850000D01*
X106680000Y-74403800D02*
X109964000Y-71120000D01*
X109964000Y-71120000D02*
X111760000Y-71120000D01*
%TO.N,/CIC_P1_DOUT*%
X120578000Y-101117515D02*
X120578000Y-75575600D01*
X120554179Y-101141336D02*
X120578000Y-101117515D01*
X120578000Y-75575600D02*
X113583000Y-68580000D01*
X113583000Y-68580000D02*
X111760000Y-68580000D01*
X111760000Y-68580000D02*
X110490000Y-67310000D01*
%TO.N,/VCC*%
X131050140Y-100657575D02*
X131036931Y-100670784D01*
X131036931Y-100670784D02*
X129600000Y-100670784D01*
%TO.N,/CIC_P7_RESET*%
X113030000Y-64770000D02*
X125569000Y-77309400D01*
X125569000Y-77309400D02*
X125569000Y-101063523D01*
X125569000Y-101063523D02*
X125573323Y-101067846D01*
%TO.N,/{slash}WRAM*%
X59350900Y-105580000D02*
X59350900Y-105580200D01*
X59350900Y-105580000D02*
X59350900Y-83055500D01*
X59350900Y-83055500D02*
X56892100Y-80596700D01*
%TO.N,/LINE_R*%
X144350000Y-102752500D02*
X144350000Y-99925000D01*
X144350000Y-105580000D02*
X144350000Y-102752500D01*
X144349500Y-102753000D02*
X144349500Y-105580200D01*
X144350000Y-102752500D02*
X144349500Y-102753000D01*
X144350000Y-99925000D02*
X144494000Y-99780400D01*
%TO.N,/REFRESH*%
X61850300Y-105580000D02*
X61850300Y-83014900D01*
X61850300Y-83014900D02*
X59432100Y-80596700D01*
X61850300Y-105580000D02*
X61850300Y-105580200D01*
%TO.N,/{slash}PAWR*%
X66849000Y-99838700D02*
X66790700Y-99780400D01*
X66849000Y-105580000D02*
X66849000Y-105580200D01*
X66849000Y-105580000D02*
X66849000Y-99838700D01*
%TO.N,/PA3*%
X139351000Y-92711200D02*
X139351000Y-79842400D01*
X139351000Y-79842400D02*
X132709000Y-73200800D01*
X139351000Y-92711200D02*
X139350800Y-92711400D01*
X139351000Y-105580000D02*
X139351000Y-92711200D01*
X139350800Y-92711400D02*
X139350800Y-105580200D01*
%TO.N,/PA5*%
X141850000Y-93011500D02*
X141850100Y-93011600D01*
X141850000Y-93011500D02*
X141850000Y-80443100D01*
X141850000Y-80443100D02*
X134620000Y-73213000D01*
X141850000Y-105580000D02*
X141850000Y-93011500D01*
X141850100Y-93011600D02*
X141850100Y-105580200D01*
%TO.N,/PA1*%
X136851000Y-92696800D02*
X136851400Y-92697200D01*
X136851000Y-92696800D02*
X136851000Y-105580000D01*
X130236000Y-73198700D02*
X136851000Y-79813600D01*
X136851000Y-79813600D02*
X136851000Y-92696800D01*
X136851400Y-92697200D02*
X136851400Y-105580200D01*
%TO.N,/CIC_P6_CLK*%
X124350000Y-76830400D02*
X124350000Y-103066000D01*
X111762000Y-66042300D02*
X113561000Y-66042300D01*
X124350000Y-103066000D02*
X124350000Y-103904000D01*
X110490000Y-64770000D02*
X111762000Y-66042300D01*
X124349500Y-103066500D02*
X124349500Y-105580200D01*
X113561000Y-66042300D02*
X124350000Y-76830400D01*
X124350000Y-103066000D02*
X124349500Y-103066500D01*
%TO.N,/PA7*%
X64349600Y-105580000D02*
X64349600Y-105580200D01*
X64349600Y-105580000D02*
X64349600Y-82974200D01*
X64349600Y-82974200D02*
X61972100Y-80596700D01*
%TO.N,/CPU_CLK*%
X126851400Y-103904400D02*
X126851400Y-105580200D01*
X126851000Y-103904000D02*
X126851000Y-77514300D01*
X126851000Y-105580000D02*
X126851000Y-103904000D01*
X126851000Y-103904000D02*
X126851400Y-103904400D01*
X126851000Y-77514300D02*
X126321000Y-76984000D01*
%TO.N,/{slash}WR*%
X119351000Y-78710800D02*
X119351000Y-103066000D01*
X119350800Y-103066200D02*
X119350800Y-105580200D01*
X113030000Y-72390000D02*
X119351000Y-78710800D01*
X119351000Y-103066000D02*
X119351000Y-103904000D01*
X119351000Y-103066000D02*
X119350800Y-103066200D01*
%TO.N,/SWDIO*%
X106680000Y-55879900D02*
X106680000Y-39013200D01*
X105410000Y-57150000D02*
X106680000Y-55879900D01*
X106680000Y-39013200D02*
X109712000Y-35981700D01*
%TO.N,/USB_DM*%
X91617900Y-40817900D02*
X91617900Y-40348400D01*
X105410000Y-54610000D02*
X91617900Y-40817900D01*
%TO.N,/GP47*%
X120250000Y-63565200D02*
X143285000Y-63565200D01*
X115107100Y-58422300D02*
X120250000Y-63565200D01*
X107950000Y-57150000D02*
X109222300Y-58422300D01*
X109222300Y-58422300D02*
X115107100Y-58422300D01*
%TO.N,/GP46*%
X111806000Y-53294000D02*
X129027400Y-53294000D01*
X110490000Y-54610000D02*
X111806000Y-53294000D01*
X129027400Y-53294000D02*
X138677800Y-62944400D01*
%TO.N,/A3*%
X92710000Y-59690000D02*
X93980000Y-60960000D01*
X93980000Y-99004600D02*
X93400400Y-99584200D01*
X93980000Y-60960000D02*
X93980000Y-99004600D01*
%TO.N,/A1*%
X92710000Y-54610000D02*
X91440000Y-55880000D01*
X81368600Y-64141500D02*
X81368600Y-85169500D01*
X89630100Y-55880000D02*
X81368600Y-64141500D01*
X91440000Y-55880000D02*
X89630100Y-55880000D01*
%TO.N,/A2*%
X81924800Y-65395200D02*
X81924800Y-85767800D01*
X81924800Y-85767800D02*
X81753800Y-85938800D01*
X90170000Y-57150000D02*
X81924800Y-65395200D01*
%TO.N,/A6*%
X81834900Y-93366000D02*
X81834900Y-92401400D01*
X82607200Y-91629100D02*
X82607200Y-85585400D01*
X81834900Y-92401400D02*
X82607200Y-91629100D01*
X82528200Y-85506400D02*
X82528200Y-69871800D01*
X82528200Y-69871800D02*
X90170000Y-62230000D01*
X82607200Y-85585400D02*
X82528200Y-85506400D01*
%TO.N,/A4*%
X82305500Y-85710300D02*
X82226500Y-85631300D01*
X82041100Y-89519900D02*
X82305500Y-89255500D01*
X82226500Y-85631300D02*
X82226500Y-67633500D01*
X82226500Y-67633500D02*
X90170000Y-59690000D01*
X82305500Y-89255500D02*
X82305500Y-85710300D01*
%TO.N,/D7*%
X111760000Y-76200100D02*
X111760000Y-89868000D01*
X110490000Y-74930000D02*
X111760000Y-76200100D01*
X111760000Y-89868000D02*
X116851000Y-94959300D01*
X116851000Y-94959300D02*
X116851000Y-97614600D01*
X116851400Y-97615000D02*
X116851400Y-105580200D01*
X116851000Y-97614600D02*
X116851400Y-97615000D01*
%TO.N,/A13*%
X79350900Y-101828000D02*
X79350900Y-105580000D01*
X79350900Y-105580000D02*
X79350900Y-105580200D01*
X84349000Y-96830300D02*
X79350900Y-101828000D01*
X84349000Y-81481000D02*
X84349000Y-96830300D01*
%TO.N,/A17*%
X92710000Y-77470000D02*
X92710000Y-98469300D01*
X92710000Y-98469300D02*
X89350900Y-101828000D01*
X89350900Y-105580000D02*
X89350900Y-105580200D01*
X89350900Y-101828000D02*
X89350900Y-105580000D01*
%TO.N,/A12*%
X83814000Y-95273000D02*
X83814000Y-85085800D01*
X83797300Y-76222700D02*
X90170000Y-69850000D01*
X83814000Y-85085800D02*
X83797300Y-85069100D01*
X76849000Y-105580000D02*
X76849000Y-101828000D01*
X77258600Y-101828000D02*
X83814000Y-95273000D01*
X83797300Y-85069100D02*
X83797300Y-76222700D01*
X76849000Y-101828000D02*
X77258600Y-101828000D01*
X76849000Y-105580000D02*
X76849000Y-105580200D01*
%TO.N,/A15*%
X84349600Y-105580000D02*
X84349600Y-101828000D01*
X86401400Y-99776600D02*
X86401400Y-76865600D01*
X89607000Y-73660000D02*
X91440000Y-73660000D01*
X86401400Y-76865600D02*
X89607000Y-73660000D01*
X84349600Y-105580000D02*
X84349600Y-105580200D01*
X91440000Y-73660000D02*
X92710000Y-74930000D01*
X84349600Y-101828000D02*
X86401400Y-99776600D01*
%TO.N,/A20*%
X96848900Y-105580000D02*
X96848900Y-105580200D01*
X96848900Y-101828000D02*
X97790000Y-100887000D01*
X96848900Y-105580000D02*
X96848900Y-101828000D01*
X97790000Y-100887000D02*
X97790000Y-77470000D01*
%TO.N,/VCC*%
X129600000Y-103676000D02*
X129599700Y-103676300D01*
X129600000Y-101772000D02*
X129600000Y-79482400D01*
X103734000Y-63500000D02*
X101296000Y-61062000D01*
X113617000Y-63500000D02*
X103734000Y-63500000D01*
X129600000Y-79482400D02*
X113617000Y-63500000D01*
X129600000Y-103676000D02*
X129600000Y-105580000D01*
X129599700Y-103676300D02*
X129599700Y-105580200D01*
X129600000Y-101772000D02*
X129600000Y-103676000D01*
%TO.N,/A21*%
X99350800Y-101828000D02*
X99059700Y-101537000D01*
X99350800Y-105580000D02*
X99350800Y-101828000D01*
X99059700Y-76199700D02*
X97790000Y-74930000D01*
X99059700Y-101537000D02*
X99059700Y-76199700D01*
X99350800Y-105580000D02*
X99350800Y-105580200D01*
%TO.N,/A16*%
X90170000Y-74930000D02*
X86849000Y-78251000D01*
X86849000Y-78251000D02*
X86849000Y-105580000D01*
X86849000Y-105580000D02*
X86849000Y-105580200D01*
%TO.N,/A5*%
X82908900Y-92890200D02*
X82908900Y-85460500D01*
X82829900Y-85381500D02*
X82829900Y-70243200D01*
X91437700Y-63502300D02*
X92710000Y-62230000D01*
X89570800Y-63502300D02*
X91437700Y-63502300D01*
X82908900Y-85460500D02*
X82829900Y-85381500D01*
X82829900Y-70243200D02*
X89570800Y-63502300D01*
X82646800Y-93152300D02*
X82908900Y-92890200D01*
%TO.N,/{slash}ROMSEL*%
X108581000Y-100099000D02*
X106852000Y-101828000D01*
X106852000Y-103002500D02*
X106852000Y-103862000D01*
X106851500Y-103003000D02*
X106851500Y-105580200D01*
X108581000Y-81060200D02*
X108581000Y-100099000D01*
X106852000Y-101828000D02*
X106852000Y-103002500D01*
X106852000Y-103002500D02*
X106851500Y-103003000D01*
%TO.N,/D6*%
X110490000Y-77470000D02*
X110490000Y-90503100D01*
X114350000Y-94362600D02*
X114350000Y-97166900D01*
X110490000Y-90503100D02*
X114350000Y-94362600D01*
X114350000Y-97166900D02*
X114349500Y-97167400D01*
X114349500Y-97167400D02*
X114349500Y-105580200D01*
%TO.N,/A14*%
X86099700Y-98205300D02*
X86099700Y-76460300D01*
X81850200Y-101828000D02*
X82476600Y-101828000D01*
X86099700Y-76460300D02*
X90170000Y-72390000D01*
X81850200Y-105580000D02*
X81850200Y-101828000D01*
X82476600Y-101828000D02*
X86099700Y-98205300D01*
X81850200Y-105580000D02*
X81850200Y-105580200D01*
%TO.N,/D5*%
X109220000Y-80492800D02*
X109434000Y-80706800D01*
X107950000Y-74930000D02*
X109220000Y-76200100D01*
X111850200Y-95991400D02*
X111850200Y-105580200D01*
X111850000Y-95991200D02*
X111850200Y-95991400D01*
X109434000Y-90378900D02*
X111850000Y-92795000D01*
X109220000Y-76200100D02*
X109220000Y-80492800D01*
X109434000Y-80706800D02*
X109434000Y-90378900D01*
%TO.N,/A9*%
X86359400Y-75137100D02*
X85202500Y-76294000D01*
X82843300Y-100988000D02*
X82517200Y-100988000D01*
X85202500Y-98629100D02*
X82843300Y-100988000D01*
X85202500Y-76294000D02*
X85202500Y-98629100D01*
%TO.N,/A18*%
X91850200Y-105580000D02*
X91850200Y-105580200D01*
X91850200Y-105580000D02*
X91850200Y-101828000D01*
X95250000Y-98535900D02*
X95250000Y-77470000D01*
X91850200Y-101828000D02*
X91957500Y-101828000D01*
X91957500Y-101828000D02*
X95250000Y-98535900D01*
%TO.N,/A22*%
X101850200Y-101210400D02*
X101850200Y-105580200D01*
X101850000Y-99753500D02*
X101850000Y-101210200D01*
X101850000Y-101210200D02*
X101850000Y-102667000D01*
X100330000Y-98233300D02*
X101850000Y-99753500D01*
X101850000Y-101210200D02*
X101850200Y-101210400D01*
X100330000Y-77470000D02*
X100330000Y-98233300D01*
%TO.N,/A23*%
X104350000Y-103002500D02*
X104350000Y-103862000D01*
X101600000Y-99033200D02*
X104350000Y-101783000D01*
X100330000Y-74930000D02*
X101600000Y-76199800D01*
X104350000Y-103002500D02*
X104349600Y-103002900D01*
X104349600Y-103002900D02*
X104349600Y-105580200D01*
X101600000Y-76199800D02*
X101600000Y-99033200D01*
X104350000Y-101783000D02*
X104350000Y-103002500D01*
%TO.N,/GND*%
X74100700Y-91646100D02*
X74100700Y-101828000D01*
X110490000Y-57150000D02*
X113030000Y-54610000D01*
X74100700Y-105580000D02*
X74100700Y-101828000D01*
X74100700Y-105580000D02*
X74100700Y-105580200D01*
X80000500Y-85746300D02*
X74100700Y-91646100D01*
%TO.N,/A8*%
X82616200Y-94995100D02*
X83210600Y-94400700D01*
X83210600Y-94400700D02*
X83210600Y-85335600D01*
X83149200Y-85274200D02*
X83149200Y-71790800D01*
X83210600Y-85335600D02*
X83149200Y-85274200D01*
X83149200Y-71790800D02*
X90170000Y-64770000D01*
%TO.N,/D4*%
X107950000Y-77470000D02*
X107950000Y-79649300D01*
X107950000Y-79649300D02*
X109132000Y-80831700D01*
X109132000Y-101610000D02*
X109351000Y-101828000D01*
X109351000Y-102766000D02*
X109350800Y-102766200D01*
X109351000Y-101828000D02*
X109351000Y-102766000D01*
X109132000Y-80831700D02*
X109132000Y-101610000D01*
X109351000Y-102766000D02*
X109351000Y-103704000D01*
X109350800Y-102766200D02*
X109350800Y-105580200D01*
%TO.N,/A10*%
X83512300Y-85210700D02*
X83492600Y-85191000D01*
X83492600Y-73987400D02*
X90170000Y-67310000D01*
X79439700Y-98951800D02*
X83512300Y-94879200D01*
X79350900Y-98951800D02*
X79439700Y-98951800D01*
X83492600Y-85191000D02*
X83492600Y-73987400D01*
X83512300Y-94879200D02*
X83512300Y-85210700D01*
%TO.N,/A19*%
X96520000Y-99658000D02*
X96520000Y-76200000D01*
X94349600Y-105580000D02*
X94349600Y-105580200D01*
X94349600Y-105580000D02*
X94349600Y-101828000D01*
X94349600Y-101828000D02*
X96520000Y-99658000D01*
X96520000Y-76200000D02*
X95250000Y-74930000D01*
%TO.N,/A7*%
X89581900Y-71120000D02*
X84900700Y-75801200D01*
X90728900Y-71120000D02*
X89581900Y-71120000D01*
X84900700Y-75801200D02*
X84900700Y-98127700D01*
X91440000Y-70408900D02*
X90728900Y-71120000D01*
X91440000Y-66040000D02*
X91440000Y-70408900D01*
X84900700Y-98127700D02*
X83870400Y-99158000D01*
X92710000Y-64770000D02*
X91440000Y-66040000D01*
%TO.N,/D5*%
X111850000Y-92795000D02*
X111850000Y-95991200D01*
%TD*%
%TA.AperFunction,Conductor*%
%TO.N,/VBUS*%
G36*
X96532670Y-46515203D02*
G01*
X96553312Y-46531837D01*
X101537985Y-51516510D01*
X101571470Y-51577833D01*
X101574304Y-51604124D01*
X101575282Y-53410199D01*
X101555634Y-53477249D01*
X101502855Y-53523032D01*
X101433701Y-53533013D01*
X101370751Y-53504556D01*
X101224132Y-53379332D01*
X101020605Y-53254611D01*
X101020604Y-53254610D01*
X101020600Y-53254608D01*
X100800068Y-53163261D01*
X100567962Y-53107538D01*
X100567963Y-53107538D01*
X100330000Y-53088811D01*
X100092036Y-53107538D01*
X99859931Y-53163261D01*
X99639399Y-53254608D01*
X99435867Y-53379332D01*
X99254357Y-53534357D01*
X99154290Y-53651520D01*
X99095783Y-53689713D01*
X99025915Y-53690211D01*
X98966869Y-53652857D01*
X98965710Y-53651520D01*
X98938683Y-53619876D01*
X98865643Y-53534357D01*
X98684132Y-53379332D01*
X98480605Y-53254611D01*
X98480604Y-53254610D01*
X98480600Y-53254608D01*
X98260068Y-53163261D01*
X98027962Y-53107538D01*
X98027963Y-53107538D01*
X97790000Y-53088811D01*
X97552036Y-53107538D01*
X97319931Y-53163261D01*
X97099399Y-53254608D01*
X96895867Y-53379332D01*
X96714357Y-53534357D01*
X96587249Y-53683181D01*
X96528742Y-53721374D01*
X96488663Y-53724887D01*
X95631000Y-54582551D01*
X95631000Y-54559840D01*
X95605036Y-54462939D01*
X95554876Y-54376060D01*
X95483940Y-54305124D01*
X95397061Y-54254964D01*
X95300160Y-54229000D01*
X95277448Y-54229000D01*
X96133217Y-53373229D01*
X95940378Y-53255056D01*
X95719924Y-53163742D01*
X95719927Y-53163742D01*
X95487883Y-53108033D01*
X95250000Y-53089312D01*
X95012116Y-53108033D01*
X94780074Y-53163742D01*
X94559621Y-53255056D01*
X94366781Y-53373229D01*
X95222553Y-54229000D01*
X95199840Y-54229000D01*
X95102939Y-54254964D01*
X95016060Y-54305124D01*
X94945124Y-54376060D01*
X94894964Y-54462939D01*
X94869000Y-54559840D01*
X94869000Y-54582552D01*
X94010324Y-53723876D01*
X93952725Y-53714119D01*
X93912750Y-53683180D01*
X93893144Y-53660225D01*
X93785643Y-53534357D01*
X93604132Y-53379332D01*
X93400605Y-53254611D01*
X93400604Y-53254610D01*
X93400600Y-53254608D01*
X93180068Y-53163261D01*
X92947962Y-53107538D01*
X92947963Y-53107538D01*
X92710000Y-53088811D01*
X92472036Y-53107538D01*
X92239931Y-53163261D01*
X92019399Y-53254608D01*
X91815867Y-53379332D01*
X91634357Y-53534357D01*
X91534290Y-53651520D01*
X91475783Y-53689713D01*
X91405915Y-53690211D01*
X91346869Y-53652857D01*
X91345710Y-53651520D01*
X91318683Y-53619876D01*
X91245643Y-53534357D01*
X91064132Y-53379332D01*
X90860605Y-53254611D01*
X90860604Y-53254610D01*
X90860600Y-53254608D01*
X90640068Y-53163261D01*
X90407962Y-53107538D01*
X90407963Y-53107538D01*
X90170000Y-53088811D01*
X89932036Y-53107538D01*
X89699931Y-53163261D01*
X89479399Y-53254608D01*
X89275867Y-53379332D01*
X89094357Y-53534357D01*
X88939332Y-53715867D01*
X88814608Y-53919399D01*
X88723261Y-54139931D01*
X88667538Y-54372036D01*
X88648811Y-54610000D01*
X88667538Y-54847963D01*
X88723261Y-55080068D01*
X88814608Y-55300600D01*
X88814610Y-55300604D01*
X88814611Y-55300605D01*
X88939332Y-55504132D01*
X88997607Y-55572363D01*
X89026178Y-55636123D01*
X89015741Y-55705209D01*
X88990998Y-55740575D01*
X80928091Y-63803483D01*
X80928089Y-63803485D01*
X80908154Y-63838015D01*
X80879007Y-63888500D01*
X80868693Y-63906363D01*
X80855617Y-63929012D01*
X80855616Y-63929013D01*
X80836858Y-63999020D01*
X80818100Y-64069025D01*
X80818100Y-64069027D01*
X80818100Y-84536560D01*
X80798415Y-84603599D01*
X80781781Y-84624241D01*
X80738784Y-84667237D01*
X80642809Y-84819980D01*
X80583871Y-84988414D01*
X80543150Y-85045190D01*
X80478197Y-85070937D01*
X80409635Y-85057481D01*
X80400858Y-85052453D01*
X80350023Y-85020511D01*
X80179754Y-84960931D01*
X80179749Y-84960930D01*
X80000504Y-84940735D01*
X80000496Y-84940735D01*
X79821250Y-84960930D01*
X79821245Y-84960931D01*
X79650976Y-85020511D01*
X79498237Y-85116484D01*
X79370684Y-85244037D01*
X79274711Y-85396776D01*
X79215131Y-85567045D01*
X79215130Y-85567049D01*
X79196359Y-85733656D01*
X79169293Y-85798069D01*
X79160820Y-85807453D01*
X73660191Y-91308083D01*
X73660189Y-91308086D01*
X73597532Y-91416614D01*
X73597530Y-91416617D01*
X73587717Y-91433612D01*
X73587716Y-91433614D01*
X73587716Y-91433615D01*
X73550200Y-91573625D01*
X73550200Y-91573627D01*
X73550200Y-98936000D01*
X73530515Y-99003039D01*
X73477711Y-99048794D01*
X73426200Y-99060000D01*
X72474760Y-99060000D01*
X72407721Y-99040315D01*
X72361966Y-98987511D01*
X72350760Y-98936000D01*
X72350760Y-98714710D01*
X72350760Y-98714708D01*
X72316652Y-98587414D01*
X72250760Y-98473286D01*
X72157574Y-98380100D01*
X72100510Y-98347154D01*
X72043447Y-98314208D01*
X71979799Y-98297154D01*
X71916152Y-98280100D01*
X69416792Y-98280100D01*
X69285008Y-98280100D01*
X69157712Y-98314208D01*
X69043586Y-98380100D01*
X69043583Y-98380102D01*
X68950402Y-98473283D01*
X68950400Y-98473286D01*
X68884508Y-98587412D01*
X68850400Y-98714708D01*
X68850400Y-98936000D01*
X68830715Y-99003039D01*
X68777911Y-99048794D01*
X68726400Y-99060000D01*
X67176692Y-99060000D01*
X67135737Y-99053041D01*
X66969962Y-98995033D01*
X66969949Y-98995030D01*
X66790704Y-98974835D01*
X66790696Y-98974835D01*
X66611450Y-98995030D01*
X66611437Y-98995033D01*
X66445663Y-99053041D01*
X66404708Y-99060000D01*
X65024100Y-99060000D01*
X64957061Y-99040315D01*
X64911306Y-98987511D01*
X64900100Y-98936000D01*
X64900100Y-82901727D01*
X64900100Y-82901725D01*
X64862584Y-82761715D01*
X64837048Y-82717485D01*
X64790110Y-82636185D01*
X62811779Y-80657854D01*
X62778294Y-80596531D01*
X62776240Y-80584056D01*
X62757469Y-80417449D01*
X62757468Y-80417445D01*
X62738973Y-80364589D01*
X62697889Y-80247178D01*
X62601916Y-80094438D01*
X62474362Y-79966884D01*
X62321623Y-79870911D01*
X62151354Y-79811331D01*
X62151349Y-79811330D01*
X61972104Y-79791135D01*
X61972096Y-79791135D01*
X61792850Y-79811330D01*
X61792845Y-79811331D01*
X61622576Y-79870911D01*
X61469837Y-79966884D01*
X61342284Y-80094437D01*
X61246311Y-80247176D01*
X61186731Y-80417445D01*
X61186730Y-80417450D01*
X61166535Y-80596696D01*
X61166535Y-80596703D01*
X61186730Y-80775949D01*
X61186731Y-80775954D01*
X61246311Y-80946223D01*
X61342284Y-81098962D01*
X61469838Y-81226516D01*
X61622578Y-81322489D01*
X61792845Y-81382068D01*
X61792849Y-81382069D01*
X61891691Y-81393205D01*
X61959457Y-81400840D01*
X62023870Y-81427906D01*
X62033254Y-81436379D01*
X63762781Y-83165906D01*
X63796266Y-83227229D01*
X63799100Y-83253587D01*
X63799100Y-98936000D01*
X63779415Y-99003039D01*
X63726611Y-99048794D01*
X63675100Y-99060000D01*
X62524800Y-99060000D01*
X62457761Y-99040315D01*
X62412006Y-98987511D01*
X62400800Y-98936000D01*
X62400800Y-82942427D01*
X62400800Y-82942425D01*
X62363284Y-82802415D01*
X62339786Y-82761715D01*
X62290810Y-82676885D01*
X60271779Y-80657854D01*
X60238294Y-80596531D01*
X60236240Y-80584056D01*
X60217469Y-80417449D01*
X60217468Y-80417445D01*
X60198973Y-80364589D01*
X60157889Y-80247178D01*
X60061916Y-80094438D01*
X59934362Y-79966884D01*
X59781623Y-79870911D01*
X59611354Y-79811331D01*
X59611349Y-79811330D01*
X59432104Y-79791135D01*
X59432096Y-79791135D01*
X59252850Y-79811330D01*
X59252845Y-79811331D01*
X59082576Y-79870911D01*
X58929837Y-79966884D01*
X58802284Y-80094437D01*
X58706311Y-80247176D01*
X58646731Y-80417445D01*
X58646730Y-80417450D01*
X58626535Y-80596696D01*
X58626535Y-80596703D01*
X58646730Y-80775949D01*
X58646731Y-80775954D01*
X58706311Y-80946223D01*
X58802284Y-81098962D01*
X58929838Y-81226516D01*
X59082578Y-81322489D01*
X59252845Y-81382068D01*
X59252849Y-81382069D01*
X59351691Y-81393205D01*
X59419457Y-81400840D01*
X59483870Y-81427906D01*
X59493254Y-81436379D01*
X61263481Y-83206606D01*
X61296966Y-83267929D01*
X61299800Y-83294287D01*
X61299800Y-98936000D01*
X61280115Y-99003039D01*
X61227311Y-99048794D01*
X61175800Y-99060000D01*
X60025400Y-99060000D01*
X59958361Y-99040315D01*
X59912606Y-98987511D01*
X59901400Y-98936000D01*
X59901400Y-82983027D01*
X59901400Y-82983025D01*
X59863884Y-82843015D01*
X59840444Y-82802415D01*
X59791410Y-82717485D01*
X57731779Y-80657854D01*
X57698294Y-80596531D01*
X57696240Y-80584056D01*
X57677469Y-80417449D01*
X57677468Y-80417445D01*
X57658973Y-80364589D01*
X57617889Y-80247178D01*
X57521916Y-80094438D01*
X57394362Y-79966884D01*
X57241623Y-79870911D01*
X57071354Y-79811331D01*
X57071349Y-79811330D01*
X56892104Y-79791135D01*
X56892096Y-79791135D01*
X56712850Y-79811330D01*
X56712845Y-79811331D01*
X56542576Y-79870911D01*
X56389837Y-79966884D01*
X56262284Y-80094437D01*
X56166309Y-80247180D01*
X56110918Y-80405477D01*
X56070196Y-80462253D01*
X56005244Y-80488000D01*
X55936682Y-80474544D01*
X55886279Y-80426156D01*
X55869877Y-80364589D01*
X55869813Y-80247180D01*
X55851606Y-46619584D01*
X55871254Y-46552535D01*
X55924033Y-46506752D01*
X55975606Y-46495518D01*
X96465631Y-46495518D01*
X96532670Y-46515203D01*
G37*
%TD.AperFunction*%
%TA.AperFunction,Conductor*%
G36*
X94869000Y-54660160D02*
G01*
X94894964Y-54757061D01*
X94945124Y-54843940D01*
X95016060Y-54914876D01*
X95102939Y-54965036D01*
X95199840Y-54991000D01*
X95222553Y-54991000D01*
X94363876Y-55849674D01*
X94354121Y-55907272D01*
X94323181Y-55947249D01*
X94174357Y-56074357D01*
X94074290Y-56191520D01*
X94015783Y-56229713D01*
X93945915Y-56230211D01*
X93886869Y-56192857D01*
X93885710Y-56191520D01*
X93858683Y-56159876D01*
X93785643Y-56074357D01*
X93668478Y-55974288D01*
X93630286Y-55915783D01*
X93629787Y-55845916D01*
X93667141Y-55786869D01*
X93668439Y-55785744D01*
X93785643Y-55685643D01*
X93912752Y-55536817D01*
X93971258Y-55498625D01*
X94011335Y-55495111D01*
X94869000Y-54637446D01*
X94869000Y-54660160D01*
G37*
%TD.AperFunction*%
%TA.AperFunction,Conductor*%
G36*
X96489674Y-55496122D02*
G01*
X96547271Y-55505878D01*
X96587248Y-55536818D01*
X96617606Y-55572362D01*
X96714357Y-55685643D01*
X96778674Y-55740575D01*
X96831520Y-55785710D01*
X96869713Y-55844217D01*
X96870211Y-55914085D01*
X96832857Y-55973131D01*
X96831520Y-55974290D01*
X96714357Y-56074357D01*
X96614290Y-56191520D01*
X96555783Y-56229713D01*
X96485915Y-56230211D01*
X96426869Y-56192857D01*
X96425710Y-56191520D01*
X96398683Y-56159876D01*
X96325643Y-56074357D01*
X96176819Y-55947249D01*
X96176818Y-55947248D01*
X96138625Y-55888741D01*
X96135111Y-55848663D01*
X95277447Y-54991000D01*
X95300160Y-54991000D01*
X95397061Y-54965036D01*
X95483940Y-54914876D01*
X95554876Y-54843940D01*
X95605036Y-54757061D01*
X95631000Y-54660160D01*
X95631000Y-54637447D01*
X96489674Y-55496122D01*
G37*
%TD.AperFunction*%
%TD*%
%TA.AperFunction,Conductor*%
%TO.N,/USB_VBUS*%
G36*
X104083039Y-27959685D02*
G01*
X104128794Y-28012489D01*
X104140000Y-28064000D01*
X104140000Y-45596000D01*
X104120315Y-45663039D01*
X104067511Y-45708794D01*
X104016000Y-45720000D01*
X97349887Y-45720000D01*
X97282848Y-45700315D01*
X97262206Y-45683681D01*
X92381352Y-40802827D01*
X92347867Y-40741504D01*
X92351991Y-40674194D01*
X92403268Y-40527655D01*
X92423465Y-40348400D01*
X92403268Y-40169145D01*
X92343689Y-39998878D01*
X92247716Y-39846138D01*
X92120162Y-39718584D01*
X91967423Y-39622611D01*
X91797154Y-39563031D01*
X91797149Y-39563030D01*
X91617904Y-39542835D01*
X91617896Y-39542835D01*
X91438650Y-39563030D01*
X91438645Y-39563031D01*
X91268376Y-39622611D01*
X91115637Y-39718584D01*
X90988084Y-39846137D01*
X90892111Y-39998876D01*
X90832531Y-40169145D01*
X90832530Y-40169150D01*
X90812335Y-40348396D01*
X90812335Y-40348403D01*
X90832530Y-40527649D01*
X90832531Y-40527654D01*
X90892111Y-40697923D01*
X90988084Y-40850662D01*
X91058401Y-40920979D01*
X91090494Y-40976565D01*
X91104914Y-41030380D01*
X91104916Y-41030385D01*
X91177389Y-41155913D01*
X91177391Y-41155916D01*
X95529794Y-45508319D01*
X95563279Y-45569642D01*
X95558295Y-45639334D01*
X95516423Y-45695267D01*
X95450959Y-45719684D01*
X95442113Y-45720000D01*
X56004000Y-45720000D01*
X55936961Y-45700315D01*
X55891206Y-45647511D01*
X55880000Y-45596000D01*
X55880000Y-33144000D01*
X55899685Y-33076961D01*
X55952489Y-33031206D01*
X56004000Y-33020000D01*
X81280000Y-33020000D01*
X81280000Y-28064000D01*
X81299685Y-27996961D01*
X81352489Y-27951206D01*
X81404000Y-27940000D01*
X104016000Y-27940000D01*
X104083039Y-27959685D01*
G37*
%TD.AperFunction*%
%TD*%
%TA.AperFunction,Conductor*%
%TO.N,/VCC*%
G36*
X149737101Y-50798909D02*
G01*
X149803962Y-50819188D01*
X149849247Y-50872395D01*
X149860000Y-50922904D01*
X149860000Y-86933581D01*
X149840315Y-87000620D01*
X149787511Y-87046375D01*
X149736000Y-87057581D01*
X148284088Y-87057581D01*
X148156792Y-87091689D01*
X148042666Y-87157581D01*
X148042663Y-87157583D01*
X147949482Y-87250764D01*
X147949480Y-87250767D01*
X147883588Y-87364893D01*
X147849480Y-87492189D01*
X147849480Y-89646611D01*
X147883588Y-89773907D01*
X147916534Y-89830970D01*
X147949480Y-89888034D01*
X148042666Y-89981220D01*
X148156794Y-90047112D01*
X148284088Y-90081220D01*
X148284090Y-90081220D01*
X149736000Y-90081220D01*
X149803039Y-90100905D01*
X149848794Y-90153709D01*
X149860000Y-90205220D01*
X149860000Y-98831797D01*
X149840315Y-98898836D01*
X149787511Y-98944591D01*
X149736000Y-98955797D01*
X146917272Y-98955797D01*
X146785488Y-98955797D01*
X146658194Y-98989905D01*
X146658191Y-98989906D01*
X146658188Y-98989908D01*
X146616370Y-99014050D01*
X146553274Y-99030656D01*
X144749304Y-99014649D01*
X144709452Y-99007697D01*
X144673251Y-98995030D01*
X144494004Y-98974835D01*
X144493996Y-98974835D01*
X144314751Y-98995030D01*
X144314743Y-98995032D01*
X144291232Y-99003259D01*
X144249179Y-99010212D01*
X142523500Y-98994899D01*
X142456638Y-98974620D01*
X142411353Y-98921413D01*
X142400600Y-98870904D01*
X142400600Y-92931782D01*
X142400500Y-92930252D01*
X142400500Y-80370627D01*
X142400500Y-80370625D01*
X142374832Y-80274832D01*
X142362986Y-80230619D01*
X142290512Y-80105088D01*
X141193789Y-79008350D01*
X135459679Y-73274159D01*
X135426195Y-73212835D01*
X135424141Y-73200361D01*
X135405369Y-73033750D01*
X135405368Y-73033745D01*
X135380394Y-72962373D01*
X135345789Y-72863478D01*
X135343649Y-72860073D01*
X135249815Y-72710737D01*
X135122262Y-72583184D01*
X134969523Y-72487211D01*
X134799254Y-72427631D01*
X134799249Y-72427630D01*
X134620004Y-72407435D01*
X134619996Y-72407435D01*
X134440750Y-72427630D01*
X134440745Y-72427631D01*
X134270476Y-72487211D01*
X134117737Y-72583184D01*
X133990184Y-72710737D01*
X133894211Y-72863476D01*
X133834631Y-73033745D01*
X133834630Y-73033750D01*
X133814435Y-73212996D01*
X133814435Y-73213007D01*
X133814716Y-73215503D01*
X133814435Y-73217106D01*
X133814435Y-73219964D01*
X133813934Y-73219964D01*
X133802657Y-73284325D01*
X133755304Y-73335700D01*
X133687692Y-73353320D01*
X133621288Y-73331588D01*
X133603816Y-73317062D01*
X133548678Y-73261927D01*
X133515192Y-73200604D01*
X133513137Y-73188126D01*
X133494369Y-73021550D01*
X133494368Y-73021545D01*
X133473663Y-72962373D01*
X133434789Y-72851278D01*
X133433469Y-72849178D01*
X133395582Y-72788880D01*
X133338816Y-72698538D01*
X133211262Y-72570984D01*
X133207920Y-72568884D01*
X133058523Y-72475011D01*
X132888254Y-72415431D01*
X132888249Y-72415430D01*
X132709004Y-72395235D01*
X132708996Y-72395235D01*
X132529750Y-72415430D01*
X132529745Y-72415431D01*
X132359476Y-72475011D01*
X132206737Y-72570984D01*
X132079184Y-72698537D01*
X131983211Y-72851276D01*
X131923631Y-73021545D01*
X131923630Y-73021550D01*
X131903435Y-73200796D01*
X131903435Y-73200803D01*
X131923630Y-73380049D01*
X131923631Y-73380054D01*
X131983211Y-73550323D01*
X132073543Y-73694085D01*
X132079184Y-73703062D01*
X132206738Y-73830616D01*
X132297080Y-73887382D01*
X132356135Y-73924489D01*
X132359478Y-73926589D01*
X132523744Y-73984068D01*
X132529745Y-73986168D01*
X132529750Y-73986169D01*
X132696386Y-74004944D01*
X132760800Y-74032010D01*
X132770182Y-74040480D01*
X135243047Y-76513195D01*
X138591839Y-79861785D01*
X138764179Y-80034114D01*
X138797665Y-80095436D01*
X138800500Y-80121798D01*
X138800500Y-92629283D01*
X138800300Y-92632338D01*
X138800300Y-98836756D01*
X138780615Y-98903795D01*
X138727811Y-98949550D01*
X138675200Y-98960751D01*
X137524800Y-98950543D01*
X137457938Y-98930264D01*
X137412653Y-98877057D01*
X137401900Y-98826548D01*
X137401900Y-92619666D01*
X137401500Y-92613560D01*
X137401500Y-79741127D01*
X137401500Y-79741125D01*
X137363984Y-79601115D01*
X137334198Y-79549524D01*
X137293365Y-79478799D01*
X137291877Y-79476034D01*
X137291639Y-79475715D01*
X137291508Y-79475584D01*
X137291507Y-79475582D01*
X137217815Y-79401891D01*
X137217815Y-79401890D01*
X137217814Y-79401890D01*
X137181946Y-79366022D01*
X137181946Y-79366023D01*
X137151421Y-79335499D01*
X135055197Y-77239306D01*
X131075677Y-73259846D01*
X131042193Y-73198525D01*
X131040140Y-73186060D01*
X131028259Y-73080605D01*
X131021369Y-73019449D01*
X131021368Y-73019445D01*
X130966792Y-72863476D01*
X130961789Y-72849178D01*
X130865816Y-72696438D01*
X130738262Y-72568884D01*
X130585523Y-72472911D01*
X130415254Y-72413331D01*
X130415249Y-72413330D01*
X130236004Y-72393135D01*
X130235996Y-72393135D01*
X130056750Y-72413330D01*
X130056745Y-72413331D01*
X129886476Y-72472911D01*
X129733737Y-72568884D01*
X129606184Y-72696437D01*
X129510211Y-72849176D01*
X129450631Y-73019445D01*
X129450630Y-73019450D01*
X129430435Y-73198696D01*
X129430435Y-73198703D01*
X129450630Y-73377949D01*
X129450631Y-73377954D01*
X129510211Y-73548223D01*
X129526790Y-73574608D01*
X129606184Y-73700962D01*
X129733738Y-73828516D01*
X129886478Y-73924489D01*
X130020885Y-73971520D01*
X130056745Y-73984068D01*
X130056750Y-73984069D01*
X130158553Y-73995539D01*
X130223364Y-74002841D01*
X130287778Y-74029907D01*
X130297157Y-74038374D01*
X136264181Y-80005308D01*
X136297666Y-80066630D01*
X136300500Y-80092989D01*
X136300500Y-98814574D01*
X136280815Y-98881613D01*
X136228011Y-98927368D01*
X136175400Y-98938569D01*
X134972900Y-98927899D01*
X134906038Y-98907621D01*
X134860753Y-98854413D01*
X134850000Y-98803904D01*
X134850000Y-98714710D01*
X134850000Y-98714708D01*
X134815892Y-98587414D01*
X134750000Y-98473286D01*
X134656814Y-98380100D01*
X134599750Y-98347154D01*
X134542687Y-98314208D01*
X134479039Y-98297154D01*
X134415392Y-98280100D01*
X131916032Y-98280100D01*
X131784248Y-98280100D01*
X131656952Y-98314208D01*
X131542826Y-98380100D01*
X131542823Y-98380102D01*
X131449642Y-98473283D01*
X131449640Y-98473286D01*
X131383748Y-98587412D01*
X131349640Y-98714708D01*
X131349640Y-98770643D01*
X131329955Y-98837682D01*
X131277151Y-98883437D01*
X131224540Y-98894638D01*
X127524400Y-98861806D01*
X127457538Y-98841528D01*
X127412253Y-98788320D01*
X127401500Y-98737811D01*
X127401500Y-77512687D01*
X127401520Y-77441981D01*
X127401518Y-77441977D01*
X127401519Y-77441975D01*
X127401500Y-77441829D01*
X127401500Y-77441825D01*
X127382496Y-77370904D01*
X127364044Y-77301960D01*
X127364042Y-77301957D01*
X127364041Y-77301952D01*
X127363984Y-77301818D01*
X127363984Y-77301815D01*
X127327912Y-77239336D01*
X127291605Y-77176410D01*
X127291599Y-77176404D01*
X127291539Y-77176325D01*
X127291511Y-77176288D01*
X127291509Y-77176285D01*
X127240371Y-77125147D01*
X127160686Y-77045417D01*
X127127219Y-76984086D01*
X127125173Y-76971645D01*
X127106369Y-76804750D01*
X127106368Y-76804745D01*
X127046788Y-76634476D01*
X126950815Y-76481737D01*
X126823262Y-76354184D01*
X126670523Y-76258211D01*
X126500254Y-76198631D01*
X126500249Y-76198630D01*
X126321004Y-76178435D01*
X126320996Y-76178435D01*
X126141750Y-76198630D01*
X126141745Y-76198631D01*
X125971476Y-76258211D01*
X125818739Y-76354183D01*
X125693211Y-76479711D01*
X125631888Y-76513195D01*
X125562196Y-76508211D01*
X125517847Y-76479709D01*
X114477278Y-65438787D01*
X114443794Y-65377463D01*
X114448780Y-65307772D01*
X114450400Y-65303654D01*
X114476737Y-65240073D01*
X114532461Y-65007966D01*
X114551189Y-64770000D01*
X114532461Y-64532034D01*
X114476737Y-64299927D01*
X114385389Y-64079395D01*
X114260668Y-63875868D01*
X114105643Y-63694357D01*
X113988478Y-63594288D01*
X113950286Y-63535783D01*
X113949787Y-63465916D01*
X113987141Y-63406869D01*
X113988439Y-63405744D01*
X114105643Y-63305643D01*
X114260668Y-63124132D01*
X114385389Y-62920605D01*
X114476737Y-62700073D01*
X114532461Y-62467966D01*
X114551189Y-62230000D01*
X114532461Y-61992034D01*
X114476737Y-61759927D01*
X114385389Y-61539395D01*
X114260668Y-61335868D01*
X114105643Y-61154357D01*
X113988478Y-61054288D01*
X113950286Y-60995783D01*
X113949787Y-60925916D01*
X113987141Y-60866869D01*
X113988439Y-60865744D01*
X114105643Y-60765643D01*
X114260668Y-60584132D01*
X114385389Y-60380605D01*
X114476737Y-60160073D01*
X114532461Y-59927966D01*
X114551189Y-59690000D01*
X114532461Y-59452034D01*
X114476737Y-59219927D01*
X114445390Y-59144251D01*
X114437922Y-59074784D01*
X114469197Y-59012305D01*
X114529285Y-58976652D01*
X114559952Y-58972800D01*
X114827713Y-58972800D01*
X114894752Y-58992485D01*
X114915394Y-59009119D01*
X119911985Y-64005710D01*
X119911987Y-64005711D01*
X119911991Y-64005714D01*
X120018940Y-64067461D01*
X120018945Y-64067462D01*
X120037515Y-64078184D01*
X120177525Y-64115700D01*
X120177526Y-64115700D01*
X120322474Y-64115700D01*
X142652060Y-64115700D01*
X142719099Y-64135385D01*
X142739741Y-64152019D01*
X142782738Y-64195016D01*
X142935478Y-64290989D01*
X142961033Y-64299931D01*
X143105745Y-64350568D01*
X143105750Y-64350569D01*
X143284996Y-64370765D01*
X143285000Y-64370765D01*
X143285004Y-64370765D01*
X143464249Y-64350569D01*
X143464252Y-64350568D01*
X143464255Y-64350568D01*
X143634522Y-64290989D01*
X143787262Y-64195016D01*
X143914816Y-64067462D01*
X144010789Y-63914722D01*
X144070368Y-63744455D01*
X144076013Y-63694357D01*
X144090565Y-63565203D01*
X144090565Y-63565196D01*
X144070369Y-63385950D01*
X144070368Y-63385945D01*
X144010788Y-63215676D01*
X143914815Y-63062937D01*
X143787262Y-62935384D01*
X143634523Y-62839411D01*
X143464254Y-62779831D01*
X143464249Y-62779830D01*
X143285004Y-62759635D01*
X143284996Y-62759635D01*
X143105750Y-62779830D01*
X143105745Y-62779831D01*
X142935476Y-62839411D01*
X142782737Y-62935384D01*
X142739741Y-62978381D01*
X142678418Y-63011866D01*
X142652060Y-63014700D01*
X139602099Y-63014700D01*
X139535060Y-62995015D01*
X139489305Y-62942211D01*
X139478879Y-62904583D01*
X139463169Y-62765150D01*
X139463168Y-62765145D01*
X139440398Y-62700073D01*
X139403589Y-62594878D01*
X139307616Y-62442138D01*
X139180062Y-62314584D01*
X139027323Y-62218611D01*
X138857054Y-62159031D01*
X138857050Y-62159030D01*
X138690440Y-62140258D01*
X138626026Y-62113191D01*
X138616643Y-62104719D01*
X129365416Y-52853491D01*
X129365415Y-52853490D01*
X129239885Y-52781016D01*
X129239886Y-52781016D01*
X129204882Y-52771637D01*
X129099875Y-52743500D01*
X111733525Y-52743500D01*
X111628517Y-52771637D01*
X111593514Y-52781016D01*
X111467987Y-52853488D01*
X111158764Y-53162710D01*
X111097441Y-53196194D01*
X111027749Y-53191210D01*
X111023630Y-53189589D01*
X110960071Y-53163262D01*
X110727962Y-53107538D01*
X110727963Y-53107538D01*
X110490000Y-53088811D01*
X110252036Y-53107538D01*
X110019931Y-53163261D01*
X109799399Y-53254608D01*
X109595867Y-53379332D01*
X109414357Y-53534357D01*
X109314290Y-53651520D01*
X109255783Y-53689713D01*
X109185915Y-53690211D01*
X109126869Y-53652857D01*
X109125710Y-53651520D01*
X109098683Y-53619876D01*
X109025643Y-53534357D01*
X108844132Y-53379332D01*
X108640605Y-53254611D01*
X108640604Y-53254610D01*
X108640600Y-53254608D01*
X108420068Y-53163261D01*
X108187962Y-53107538D01*
X108187963Y-53107538D01*
X107950000Y-53088811D01*
X107712036Y-53107538D01*
X107479929Y-53163261D01*
X107401952Y-53195561D01*
X107332483Y-53203030D01*
X107270004Y-53171755D01*
X107234352Y-53111666D01*
X107230500Y-53081000D01*
X107230500Y-50546835D01*
X107250185Y-50479796D01*
X107302989Y-50434041D01*
X107355596Y-50422840D01*
X149737101Y-50798909D01*
G37*
%TD.AperFunction*%
%TA.AperFunction,Conductor*%
G36*
X106773131Y-58107141D02*
G01*
X106774255Y-58108439D01*
X106874357Y-58225643D01*
X107055868Y-58380668D01*
X107259395Y-58505389D01*
X107259397Y-58505389D01*
X107259399Y-58505391D01*
X107335071Y-58536735D01*
X107479927Y-58596737D01*
X107712034Y-58652461D01*
X107950000Y-58671189D01*
X108187966Y-58652461D01*
X108420073Y-58596737D01*
X108483632Y-58570409D01*
X108553097Y-58562940D01*
X108615577Y-58594214D01*
X108618764Y-58597289D01*
X108884285Y-58862810D01*
X109009815Y-58935284D01*
X109009819Y-58935285D01*
X109017322Y-58938393D01*
X109016797Y-58939659D01*
X109069122Y-58971547D01*
X109099656Y-59034392D01*
X109091936Y-59102417D01*
X109043261Y-59219929D01*
X108987538Y-59452036D01*
X108968811Y-59690000D01*
X108987538Y-59927963D01*
X109043261Y-60160068D01*
X109134608Y-60380600D01*
X109134610Y-60380604D01*
X109134611Y-60380605D01*
X109259332Y-60584132D01*
X109414357Y-60765643D01*
X109499876Y-60838683D01*
X109531520Y-60865710D01*
X109569713Y-60924217D01*
X109570211Y-60994085D01*
X109532857Y-61053131D01*
X109531520Y-61054290D01*
X109414357Y-61154357D01*
X109259332Y-61335867D01*
X109134608Y-61539399D01*
X109043261Y-61759931D01*
X108987538Y-61992036D01*
X108968811Y-62230000D01*
X108987538Y-62467963D01*
X109043261Y-62700068D01*
X109134608Y-62920600D01*
X109134610Y-62920604D01*
X109134611Y-62920605D01*
X109259332Y-63124132D01*
X109414357Y-63305643D01*
X109499876Y-63378683D01*
X109531520Y-63405710D01*
X109569713Y-63464217D01*
X109570211Y-63534085D01*
X109532857Y-63593131D01*
X109531520Y-63594290D01*
X109414357Y-63694357D01*
X109259332Y-63875867D01*
X109134608Y-64079399D01*
X109043261Y-64299931D01*
X108987538Y-64532036D01*
X108968811Y-64770000D01*
X108987538Y-65007963D01*
X109043261Y-65240068D01*
X109134608Y-65460600D01*
X109134610Y-65460604D01*
X109134611Y-65460605D01*
X109259332Y-65664132D01*
X109414357Y-65845643D01*
X109499876Y-65918683D01*
X109531520Y-65945710D01*
X109569713Y-66004217D01*
X109570211Y-66074085D01*
X109532857Y-66133131D01*
X109531520Y-66134290D01*
X109414357Y-66234357D01*
X109259332Y-66415867D01*
X109134608Y-66619399D01*
X109043261Y-66839931D01*
X108987538Y-67072036D01*
X108968811Y-67310000D01*
X108987538Y-67547963D01*
X109043261Y-67780068D01*
X109134608Y-68000600D01*
X109134610Y-68000604D01*
X109134611Y-68000605D01*
X109259332Y-68204132D01*
X109414357Y-68385643D01*
X109499876Y-68458683D01*
X109531520Y-68485710D01*
X109569713Y-68544217D01*
X109570211Y-68614085D01*
X109532857Y-68673131D01*
X109531520Y-68674290D01*
X109414357Y-68774357D01*
X109259332Y-68955867D01*
X109134608Y-69159399D01*
X109043261Y-69379931D01*
X108987538Y-69612036D01*
X108968811Y-69850000D01*
X108987538Y-70087963D01*
X109043261Y-70320068D01*
X109134608Y-70540600D01*
X109134610Y-70540604D01*
X109134611Y-70540605D01*
X109259332Y-70744132D01*
X109324003Y-70819852D01*
X109352573Y-70883613D01*
X109342136Y-70952699D01*
X109317391Y-70988067D01*
X106547970Y-73757318D01*
X106486645Y-73790801D01*
X106416954Y-73785814D01*
X106379761Y-73763925D01*
X106336782Y-73727218D01*
X106304136Y-73699335D01*
X106304134Y-73699333D01*
X106304132Y-73699332D01*
X106100605Y-73574611D01*
X106100604Y-73574610D01*
X106100600Y-73574608D01*
X105916742Y-73498452D01*
X105880073Y-73483263D01*
X105880070Y-73483262D01*
X105880067Y-73483261D01*
X105721462Y-73445183D01*
X105660870Y-73410392D01*
X105628706Y-73348366D01*
X105626409Y-73324609D01*
X105626409Y-58755389D01*
X105646094Y-58688350D01*
X105698898Y-58642595D01*
X105721454Y-58634818D01*
X105839153Y-58606560D01*
X105880066Y-58596739D01*
X105880067Y-58596738D01*
X105880073Y-58596737D01*
X106100605Y-58505389D01*
X106304132Y-58380668D01*
X106485643Y-58225643D01*
X106585711Y-58108478D01*
X106644217Y-58070286D01*
X106714084Y-58069787D01*
X106773131Y-58107141D01*
G37*
%TD.AperFunction*%
%TA.AperFunction,Conductor*%
G36*
X111853131Y-63187141D02*
G01*
X111854255Y-63188439D01*
X111954357Y-63305643D01*
X112039876Y-63378683D01*
X112071520Y-63405710D01*
X112109713Y-63464217D01*
X112110211Y-63534085D01*
X112072857Y-63593131D01*
X112071520Y-63594290D01*
X111954357Y-63694357D01*
X111854290Y-63811520D01*
X111795783Y-63849713D01*
X111725915Y-63850211D01*
X111666869Y-63812857D01*
X111665710Y-63811520D01*
X111638683Y-63779876D01*
X111565643Y-63694357D01*
X111448478Y-63594288D01*
X111410286Y-63535783D01*
X111409787Y-63465916D01*
X111447141Y-63406869D01*
X111448439Y-63405744D01*
X111565643Y-63305643D01*
X111665711Y-63188478D01*
X111724217Y-63150286D01*
X111794084Y-63149787D01*
X111853131Y-63187141D01*
G37*
%TD.AperFunction*%
%TD*%
M02*
