%TF.GenerationSoftware,KiCad,Pcbnew,8.0.6*%
%TF.CreationDate,2025-01-05T14:05:32+01:00*%
%TF.ProjectId,snes_cart_pcb_pga2350,736e6573-5f63-4617-9274-5f7063625f70,rev?*%
%TF.SameCoordinates,Original*%
%TF.FileFunction,Legend,Bot*%
%TF.FilePolarity,Positive*%
%FSLAX46Y46*%
G04 Gerber Fmt 4.6, Leading zero omitted, Abs format (unit mm)*
G04 Created by KiCad (PCBNEW 8.0.6) date 2025-01-05 14:05:32*
%MOMM*%
%LPD*%
G01*
G04 APERTURE LIST*
%ADD10C,0.222250*%
%ADD11C,0.190500*%
G04 APERTURE END LIST*
D10*
X67119500Y-60894045D02*
X66992500Y-60936379D01*
X66992500Y-60936379D02*
X66950166Y-60978712D01*
X66950166Y-60978712D02*
X66907833Y-61063379D01*
X66907833Y-61063379D02*
X66907833Y-61190379D01*
X66907833Y-61190379D02*
X66950166Y-61275045D01*
X66950166Y-61275045D02*
X66992500Y-61317379D01*
X66992500Y-61317379D02*
X67077166Y-61359712D01*
X67077166Y-61359712D02*
X67415833Y-61359712D01*
X67415833Y-61359712D02*
X67415833Y-60470712D01*
X67415833Y-60470712D02*
X67119500Y-60470712D01*
X67119500Y-60470712D02*
X67034833Y-60513045D01*
X67034833Y-60513045D02*
X66992500Y-60555379D01*
X66992500Y-60555379D02*
X66950166Y-60640045D01*
X66950166Y-60640045D02*
X66950166Y-60724712D01*
X66950166Y-60724712D02*
X66992500Y-60809379D01*
X66992500Y-60809379D02*
X67034833Y-60851712D01*
X67034833Y-60851712D02*
X67119500Y-60894045D01*
X67119500Y-60894045D02*
X67415833Y-60894045D01*
X66145833Y-61359712D02*
X66145833Y-60894045D01*
X66145833Y-60894045D02*
X66188166Y-60809379D01*
X66188166Y-60809379D02*
X66272833Y-60767045D01*
X66272833Y-60767045D02*
X66442166Y-60767045D01*
X66442166Y-60767045D02*
X66526833Y-60809379D01*
X66145833Y-61317379D02*
X66230500Y-61359712D01*
X66230500Y-61359712D02*
X66442166Y-61359712D01*
X66442166Y-61359712D02*
X66526833Y-61317379D01*
X66526833Y-61317379D02*
X66569166Y-61232712D01*
X66569166Y-61232712D02*
X66569166Y-61148045D01*
X66569166Y-61148045D02*
X66526833Y-61063379D01*
X66526833Y-61063379D02*
X66442166Y-61021045D01*
X66442166Y-61021045D02*
X66230500Y-61021045D01*
X66230500Y-61021045D02*
X66145833Y-60978712D01*
X65341500Y-61317379D02*
X65426167Y-61359712D01*
X65426167Y-61359712D02*
X65595500Y-61359712D01*
X65595500Y-61359712D02*
X65680167Y-61317379D01*
X65680167Y-61317379D02*
X65722500Y-61275045D01*
X65722500Y-61275045D02*
X65764833Y-61190379D01*
X65764833Y-61190379D02*
X65764833Y-60936379D01*
X65764833Y-60936379D02*
X65722500Y-60851712D01*
X65722500Y-60851712D02*
X65680167Y-60809379D01*
X65680167Y-60809379D02*
X65595500Y-60767045D01*
X65595500Y-60767045D02*
X65426167Y-60767045D01*
X65426167Y-60767045D02*
X65341500Y-60809379D01*
X64960500Y-61359712D02*
X64960500Y-60470712D01*
X64875833Y-61021045D02*
X64621833Y-61359712D01*
X64621833Y-60767045D02*
X64960500Y-61105712D01*
D11*
%TO.C,J1*%
X110951020Y-61780420D02*
G75*
G02*
X106953060Y-61780420I-1998980J0D01*
G01*
X106953060Y-61780420D02*
G75*
G02*
X110951020Y-61780420I1998980J0D01*
G01*
%TD*%
M02*
