%TF.GenerationSoftware,KiCad,Pcbnew,8.0.6*%
%TF.CreationDate,2025-01-05T14:05:33+01:00*%
%TF.ProjectId,snes_cart_pcb_pga2350,736e6573-5f63-4617-9274-5f7063625f70,rev?*%
%TF.SameCoordinates,Original*%
%TF.FileFunction,Soldermask,Bot*%
%TF.FilePolarity,Negative*%
%FSLAX46Y46*%
G04 Gerber Fmt 4.6, Leading zero omitted, Abs format (unit mm)*
G04 Created by KiCad (PCBNEW 8.0.6) date 2025-01-05 14:05:33*
%MOMM*%
%LPD*%
G01*
G04 APERTURE LIST*
%ADD10R,12.499340X8.001000*%
%ADD11R,59.999880X8.001000*%
%ADD12C,2.032000*%
G04 APERTURE END LIST*
D10*
%TO.C,J1*%
X140600440Y-106080560D03*
D11*
X101850200Y-106080560D03*
D10*
X63099960Y-106080560D03*
%TD*%
D12*
%TO.C,U1*%
X90170000Y-54610000D03*
X92710000Y-54610000D03*
X95250000Y-54610000D03*
X97790000Y-54610000D03*
X100330000Y-54610000D03*
X102870000Y-54610000D03*
X105410000Y-54610000D03*
X107950000Y-54610000D03*
X110490000Y-54610000D03*
X113030000Y-54610000D03*
X90170000Y-57150000D03*
X92710000Y-57150000D03*
X95250000Y-57150000D03*
X97790000Y-57150000D03*
X100330000Y-57150000D03*
X102870000Y-57150000D03*
X105410000Y-57150000D03*
X107950000Y-57150000D03*
X110490000Y-57150000D03*
X113030000Y-57150000D03*
X90170000Y-59690000D03*
X92710000Y-59690000D03*
X110490000Y-59690000D03*
X113030000Y-59690000D03*
X90170000Y-62230000D03*
X92710000Y-62230000D03*
X110490000Y-62230000D03*
X113030000Y-62230000D03*
X90170000Y-64770000D03*
X92710000Y-64770000D03*
X110490000Y-64770000D03*
X113030000Y-64770000D03*
X90170000Y-67310000D03*
X92710000Y-67310000D03*
X110490000Y-67310000D03*
X113030000Y-67310000D03*
X90170000Y-69850000D03*
X92710000Y-69850000D03*
X110490000Y-69850000D03*
X113030000Y-69850000D03*
X90170000Y-72390000D03*
X92710000Y-72390000D03*
X110490000Y-72390000D03*
X113030000Y-72390000D03*
X90170000Y-74930000D03*
X92710000Y-74930000D03*
X95250000Y-74930000D03*
X97790000Y-74930000D03*
X100330000Y-74930000D03*
X102870000Y-74930000D03*
X105410000Y-74930000D03*
X107950000Y-74930000D03*
X110490000Y-74930000D03*
X113030000Y-74930000D03*
X90170000Y-77470000D03*
X92710000Y-77470000D03*
X95250000Y-77470000D03*
X97790000Y-77470000D03*
X100330000Y-77470000D03*
X102870000Y-77470000D03*
X105410000Y-77470000D03*
X107950000Y-77470000D03*
X110490000Y-77470000D03*
X113030000Y-77470000D03*
%TD*%
M02*
