%TF.GenerationSoftware,KiCad,Pcbnew,8.0.6*%
%TF.CreationDate,2025-01-05T14:05:33+01:00*%
%TF.ProjectId,snes_cart_pcb_pga2350,736e6573-5f63-4617-9274-5f7063625f70,rev?*%
%TF.SameCoordinates,Original*%
%TF.FileFunction,Profile,NP*%
%FSLAX46Y46*%
G04 Gerber Fmt 4.6, Leading zero omitted, Abs format (unit mm)*
G04 Created by KiCad (PCBNEW 8.0.6) date 2025-01-05 14:05:33*
%MOMM*%
%LPD*%
G01*
G04 APERTURE LIST*
%TA.AperFunction,Profile*%
%ADD10C,0.099060*%
%TD*%
%TA.AperFunction,Profile*%
%ADD11C,0.101600*%
%TD*%
G04 APERTURE END LIST*
D10*
%TO.C,J1*%
X146851380Y-109380020D02*
G75*
G02*
X146150340Y-110081080I-701080J20D01*
G01*
X135050540Y-110081060D02*
G75*
G02*
X134349540Y-109380020I-40J700960D01*
G01*
X131850140Y-109380020D02*
G75*
G02*
X131149100Y-110081040I-701040J20D01*
G01*
X72551300Y-110081060D02*
G75*
G02*
X71850260Y-109380020I0J701040D01*
G01*
X69350900Y-109380020D02*
G75*
G02*
X68649860Y-110081060I-701040J0D01*
G01*
X57550060Y-110081060D02*
G75*
G02*
X56849020Y-109380020I0J701040D01*
G01*
D11*
X150849340Y-94666106D02*
X150849340Y-99456297D01*
X150849340Y-94666106D02*
X150849340Y-89580720D01*
X150849340Y-89580720D02*
X148349980Y-89580720D01*
X150849340Y-41379140D02*
X150849340Y-87558081D01*
X150849340Y-41379140D02*
X150849340Y-36278820D01*
X150849340Y-36278820D02*
X148349980Y-36278820D01*
X150849340Y-34579560D02*
X150849340Y-30579060D01*
X148349980Y-89580720D02*
X148349980Y-87558081D01*
X148349980Y-87558081D02*
X150849340Y-87558081D01*
X148349980Y-36278820D02*
X148349980Y-34579560D01*
X148349980Y-34579560D02*
X150849340Y-34579560D01*
X146851380Y-109380020D02*
X146851380Y-99580700D01*
X146851380Y-99580700D02*
X146851380Y-99456297D01*
X146851380Y-99456297D02*
X150849340Y-99456297D01*
X135050540Y-110081060D02*
X146150340Y-110081060D01*
X134349500Y-98780600D02*
X134349500Y-109380020D01*
X131850140Y-109380020D02*
X131850140Y-98780600D01*
X131850140Y-98780600D02*
X134349500Y-98780600D01*
X123750080Y-30579060D02*
X150849340Y-30579060D01*
X123750080Y-30579060D02*
X123750080Y-27078940D01*
X80199240Y-27078940D02*
X123750080Y-27078940D01*
X80199240Y-27078940D02*
X80199240Y-30579060D01*
X72551300Y-110081060D02*
X131149100Y-110081060D01*
X71850260Y-109380020D02*
X71850260Y-98780600D01*
X71850260Y-98780600D02*
X69350900Y-98780600D01*
X69350900Y-98780600D02*
X69350900Y-109380020D01*
X68649860Y-110081060D02*
X57550060Y-110081060D01*
X56849020Y-109380020D02*
X56849020Y-99580700D01*
X56849020Y-99479100D02*
X56849020Y-99580700D01*
X54949100Y-94879160D02*
X52449740Y-94879160D01*
X54949100Y-92880180D02*
X54949100Y-94879160D01*
X54850040Y-36278820D02*
X52350680Y-36278820D01*
X54850040Y-34579560D02*
X54850040Y-36278820D01*
X52449740Y-94879160D02*
X52449740Y-99479100D01*
X52449700Y-99479100D02*
X56849020Y-99479100D01*
X52350680Y-92880180D02*
X54949100Y-92880180D01*
X52350680Y-41281399D02*
X52350680Y-92880180D01*
X52350680Y-36278820D02*
X52350680Y-41280080D01*
X52350680Y-34579560D02*
X54850040Y-34579560D01*
X52350680Y-30579060D02*
X80199240Y-30579060D01*
X52350680Y-30579060D02*
X52350680Y-34579560D01*
%TD*%
M02*
