M48
; DRILL file {KiCad 8.0.6} date 2025-01-05T14:05:24+0100
; FORMAT={-:-/ absolute / inch / decimal}
; #@! TF.CreationDate,2025-01-05T14:05:24+01:00
; #@! TF.GenerationSoftware,Kicad,Pcbnew,8.0.6
; #@! TF.FileFunction,Plated,1,2,PTH
FMAT,2
INCH
; #@! TA.AperFunction,Plated,PTH,ViaDrill
T1C0.0118
; #@! TA.AperFunction,Plated,PTH,ComponentDrill
T2C0.0300
%
G90
G05
T1
X2.2398Y-3.1731
X2.3398Y-3.1731
X2.4398Y-3.1731
X2.6296Y-3.9284
X2.8684Y-3.9825
X3.1241Y-3.8957
X3.1496Y-3.3758
X3.2035Y-3.3531
X3.2146Y-1.5146
X3.2187Y-3.3834
X3.2218Y-3.6758
X3.23Y-3.5244
X3.2487Y-3.9759
X3.2526Y-3.74
X3.2538Y-3.6674
X3.302Y-3.9039
X3.3208Y-3.2079
X3.4Y-2.9582
X3.607Y-1.5885
X3.6772Y-3.9206
X3.988Y-2.404
X4.1082Y-3.9765
X4.1808Y-3.9872
X4.2748Y-3.1913
X4.3194Y-1.4166
X4.7462Y-3.9819
X4.9438Y-3.979
X4.9733Y-3.0309
X5.1274Y-2.8818
X5.1595Y-3.9629
X5.2248Y-2.8819
X5.3Y-2.8824
X5.4598Y-2.4781
X5.6411Y-2.5026
X5.6887Y-3.9284
T2
X3.55Y-2.15
X3.55Y-2.25
X3.55Y-2.35
X3.55Y-2.45
X3.55Y-2.55
X3.55Y-2.65
X3.55Y-2.75
X3.55Y-2.85
X3.55Y-2.95
X3.55Y-3.05
X3.65Y-2.15
X3.65Y-2.25
X3.65Y-2.35
X3.65Y-2.45
X3.65Y-2.55
X3.65Y-2.65
X3.65Y-2.75
X3.65Y-2.85
X3.65Y-2.95
X3.65Y-3.05
X3.75Y-2.15
X3.75Y-2.25
X3.75Y-2.95
X3.75Y-3.05
X3.85Y-2.15
X3.85Y-2.25
X3.85Y-2.95
X3.85Y-3.05
X3.95Y-2.15
X3.95Y-2.25
X3.95Y-2.95
X3.95Y-3.05
X4.05Y-2.15
X4.05Y-2.25
X4.05Y-2.95
X4.05Y-3.05
X4.15Y-2.15
X4.15Y-2.25
X4.15Y-2.95
X4.15Y-3.05
X4.25Y-2.15
X4.25Y-2.25
X4.25Y-2.95
X4.25Y-3.05
X4.35Y-2.15
X4.35Y-2.25
X4.35Y-2.35
X4.35Y-2.45
X4.35Y-2.55
X4.35Y-2.65
X4.35Y-2.75
X4.35Y-2.85
X4.35Y-2.95
X4.35Y-3.05
X4.45Y-2.15
X4.45Y-2.25
X4.45Y-2.35
X4.45Y-2.45
X4.45Y-2.55
X4.45Y-2.65
X4.45Y-2.75
X4.45Y-2.85
X4.45Y-2.95
X4.45Y-3.05
M30
