%TF.GenerationSoftware,KiCad,Pcbnew,8.0.6*%
%TF.CreationDate,2025-01-05T14:05:33+01:00*%
%TF.ProjectId,snes_cart_pcb_pga2350,736e6573-5f63-4617-9274-5f7063625f70,rev?*%
%TF.SameCoordinates,Original*%
%TF.FileFunction,Soldermask,Top*%
%TF.FilePolarity,Negative*%
%FSLAX46Y46*%
G04 Gerber Fmt 4.6, Leading zero omitted, Abs format (unit mm)*
G04 Created by KiCad (PCBNEW 8.0.6) date 2025-01-05 14:05:33*
%MOMM*%
%LPD*%
G01*
G04 APERTURE LIST*
G04 Aperture macros list*
%AMFreePoly0*
4,1,19,0.500000,-0.750000,0.000000,-0.750000,0.000000,-0.744911,-0.071157,-0.744911,-0.207708,-0.704816,-0.327430,-0.627875,-0.420627,-0.520320,-0.479746,-0.390866,-0.500000,-0.250000,-0.500000,0.250000,-0.479746,0.390866,-0.420627,0.520320,-0.327430,0.627875,-0.207708,0.704816,-0.071157,0.744911,0.000000,0.744911,0.000000,0.750000,0.500000,0.750000,0.500000,-0.750000,0.500000,-0.750000,
$1*%
%AMFreePoly1*
4,1,19,0.000000,0.744911,0.071157,0.744911,0.207708,0.704816,0.327430,0.627875,0.420627,0.520320,0.479746,0.390866,0.500000,0.250000,0.500000,-0.250000,0.479746,-0.390866,0.420627,-0.520320,0.327430,-0.627875,0.207708,-0.704816,0.071157,-0.744911,0.000000,-0.744911,0.000000,-0.750000,-0.500000,-0.750000,-0.500000,0.750000,0.000000,0.750000,0.000000,0.744911,0.000000,0.744911,
$1*%
G04 Aperture macros list end*
%ADD10R,1.000000X3.150000*%
%ADD11R,3.150000X1.000000*%
%ADD12R,12.499340X8.001000*%
%ADD13R,59.999880X8.001000*%
%ADD14FreePoly0,0.000000*%
%ADD15FreePoly1,0.000000*%
%ADD16C,2.032000*%
%ADD17R,1.550000X1.300000*%
G04 APERTURE END LIST*
D10*
%TO.C,J5*%
X127000000Y-71120000D03*
X127000000Y-66070000D03*
X129540000Y-71120000D03*
X129540000Y-66070000D03*
X132080000Y-71120000D03*
X132080000Y-66070000D03*
X134620000Y-71120000D03*
X134620000Y-66070000D03*
X137160000Y-71120000D03*
X137160000Y-66070000D03*
X139700000Y-71120000D03*
X139700000Y-66070000D03*
X142240000Y-71120000D03*
X142240000Y-66070000D03*
X144780000Y-71120000D03*
X144780000Y-66070000D03*
X147320000Y-71120000D03*
X147320000Y-66070000D03*
%TD*%
D11*
%TO.C,J3*%
X88930000Y-33020000D03*
X93980000Y-33020000D03*
X88930000Y-35560000D03*
X93980000Y-35560000D03*
%TD*%
D12*
%TO.C,J1*%
X140600440Y-106080560D03*
D13*
X101850200Y-106080560D03*
D12*
X63099960Y-106080560D03*
%TD*%
D14*
%TO.C,JP1*%
X77440000Y-43180000D03*
D15*
X78740000Y-43180000D03*
%TD*%
D14*
%TO.C,JP2*%
X77440000Y-48260000D03*
D15*
X78740000Y-48260000D03*
%TD*%
D11*
%TO.C,J2*%
X111790000Y-33020000D03*
X116840000Y-33020000D03*
X111790000Y-35560000D03*
X116840000Y-35560000D03*
%TD*%
D16*
%TO.C,U1*%
X90170000Y-54610000D03*
X92710000Y-54610000D03*
X95250000Y-54610000D03*
X97790000Y-54610000D03*
X100330000Y-54610000D03*
X102870000Y-54610000D03*
X105410000Y-54610000D03*
X107950000Y-54610000D03*
X110490000Y-54610000D03*
X113030000Y-54610000D03*
X90170000Y-57150000D03*
X92710000Y-57150000D03*
X95250000Y-57150000D03*
X97790000Y-57150000D03*
X100330000Y-57150000D03*
X102870000Y-57150000D03*
X105410000Y-57150000D03*
X107950000Y-57150000D03*
X110490000Y-57150000D03*
X113030000Y-57150000D03*
X90170000Y-59690000D03*
X92710000Y-59690000D03*
X110490000Y-59690000D03*
X113030000Y-59690000D03*
X90170000Y-62230000D03*
X92710000Y-62230000D03*
X110490000Y-62230000D03*
X113030000Y-62230000D03*
X90170000Y-64770000D03*
X92710000Y-64770000D03*
X110490000Y-64770000D03*
X113030000Y-64770000D03*
X90170000Y-67310000D03*
X92710000Y-67310000D03*
X110490000Y-67310000D03*
X113030000Y-67310000D03*
X90170000Y-69850000D03*
X92710000Y-69850000D03*
X110490000Y-69850000D03*
X113030000Y-69850000D03*
X90170000Y-72390000D03*
X92710000Y-72390000D03*
X110490000Y-72390000D03*
X113030000Y-72390000D03*
X90170000Y-74930000D03*
X92710000Y-74930000D03*
X95250000Y-74930000D03*
X97790000Y-74930000D03*
X100330000Y-74930000D03*
X102870000Y-74930000D03*
X105410000Y-74930000D03*
X107950000Y-74930000D03*
X110490000Y-74930000D03*
X113030000Y-74930000D03*
X90170000Y-77470000D03*
X92710000Y-77470000D03*
X95250000Y-77470000D03*
X97790000Y-77470000D03*
X100330000Y-77470000D03*
X102870000Y-77470000D03*
X105410000Y-77470000D03*
X107950000Y-77470000D03*
X110490000Y-77470000D03*
X113030000Y-77470000D03*
%TD*%
D17*
%TO.C,SW1*%
X133185000Y-40930000D03*
X141135000Y-40930000D03*
X133185000Y-45430000D03*
X141135000Y-45430000D03*
%TD*%
D10*
%TO.C,J4*%
X55880000Y-83820000D03*
X55880000Y-78770000D03*
X58420000Y-83820000D03*
X58420000Y-78770000D03*
X60960000Y-83820000D03*
X60960000Y-78770000D03*
X63500000Y-83820000D03*
X63500000Y-78770000D03*
X66040000Y-83820000D03*
X66040000Y-78770000D03*
X68580000Y-83820000D03*
X68580000Y-78770000D03*
X71120000Y-83820000D03*
X71120000Y-78770000D03*
X73660000Y-83820000D03*
X73660000Y-78770000D03*
%TD*%
M02*
