%TF.GenerationSoftware,KiCad,Pcbnew,8.0.6*%
%TF.CreationDate,2025-01-05T14:05:29+01:00*%
%TF.ProjectId,snes_cart_pcb_pga2350,736e6573-5f63-4617-9274-5f7063625f70,rev?*%
%TF.SameCoordinates,Original*%
%TF.FileFunction,Drillmap*%
%TF.FilePolarity,Positive*%
%FSLAX45Y45*%
G04 Gerber Fmt 4.5, Leading zero omitted, Abs format (unit mm)*
G04 Created by KiCad (PCBNEW 8.0.6) date 2025-01-05 14:05:29*
%MOMM*%
%LPD*%
G01*
G04 APERTURE LIST*
%ADD10C,0.099060*%
%ADD11C,0.101600*%
%ADD12C,0.200000*%
G04 APERTURE END LIST*
D10*
X14685138Y-10938002D02*
G75*
G02*
X14615034Y-11008108I-70108J2D01*
G01*
X13505054Y-11008106D02*
G75*
G02*
X13434954Y-10938002I-4J70096D01*
G01*
X13185014Y-10938002D02*
G75*
G02*
X13114910Y-11008104I-70104J2D01*
G01*
X7255130Y-11008106D02*
G75*
G02*
X7185026Y-10938002I0J70104D01*
G01*
X6935090Y-10938002D02*
G75*
G02*
X6864986Y-11008106I-70104J0D01*
G01*
X5755006Y-11008106D02*
G75*
G02*
X5684902Y-10938002I0J70104D01*
G01*
D11*
X15084934Y-9466611D02*
X15084934Y-9945630D01*
X15084934Y-9466611D02*
X15084934Y-8958072D01*
X15084934Y-8958072D02*
X14834998Y-8958072D01*
X15084934Y-4137914D02*
X15084934Y-8755808D01*
X15084934Y-4137914D02*
X15084934Y-3627882D01*
X15084934Y-3627882D02*
X14834998Y-3627882D01*
X15084934Y-3457956D02*
X15084934Y-3057906D01*
X14834998Y-8958072D02*
X14834998Y-8755808D01*
X14834998Y-8755808D02*
X15084934Y-8755808D01*
X14834998Y-3627882D02*
X14834998Y-3457956D01*
X14834998Y-3457956D02*
X15084934Y-3457956D01*
X14685138Y-10938002D02*
X14685138Y-9958070D01*
X14685138Y-9958070D02*
X14685138Y-9945630D01*
X14685138Y-9945630D02*
X15084934Y-9945630D01*
X13505054Y-11008106D02*
X14615034Y-11008106D01*
X13434950Y-9878060D02*
X13434950Y-10938002D01*
X13185014Y-10938002D02*
X13185014Y-9878060D01*
X13185014Y-9878060D02*
X13434950Y-9878060D01*
X12375008Y-3057906D02*
X15084934Y-3057906D01*
X12375008Y-3057906D02*
X12375008Y-2707894D01*
X8019924Y-2707894D02*
X12375008Y-2707894D01*
X8019924Y-2707894D02*
X8019924Y-3057906D01*
X7255130Y-11008106D02*
X13114910Y-11008106D01*
X7185026Y-10938002D02*
X7185026Y-9878060D01*
X7185026Y-9878060D02*
X6935090Y-9878060D01*
X6935090Y-9878060D02*
X6935090Y-10938002D01*
X6864986Y-11008106D02*
X5755006Y-11008106D01*
X5684902Y-10938002D02*
X5684902Y-9958070D01*
X5684902Y-9947910D02*
X5684902Y-9958070D01*
X5494910Y-9487916D02*
X5244974Y-9487916D01*
X5494910Y-9288018D02*
X5494910Y-9487916D01*
X5485004Y-3627882D02*
X5235068Y-3627882D01*
X5485004Y-3457956D02*
X5485004Y-3627882D01*
X5244974Y-9487916D02*
X5244974Y-9947910D01*
X5244970Y-9947910D02*
X5684902Y-9947910D01*
X5235068Y-9288018D02*
X5494910Y-9288018D01*
X5235068Y-4128140D02*
X5235068Y-9288018D01*
X5235068Y-3627882D02*
X5235068Y-4128008D01*
X5235068Y-3457956D02*
X5485004Y-3457956D01*
X5235068Y-3057906D02*
X8019924Y-3057906D01*
X5235068Y-3057906D02*
X5235068Y-3457956D01*
D12*
X5490765Y-11324670D02*
X5490765Y-11124670D01*
X5490765Y-11124670D02*
X5538384Y-11124670D01*
X5538384Y-11124670D02*
X5566955Y-11134194D01*
X5566955Y-11134194D02*
X5586003Y-11153241D01*
X5586003Y-11153241D02*
X5595527Y-11172289D01*
X5595527Y-11172289D02*
X5605050Y-11210384D01*
X5605050Y-11210384D02*
X5605050Y-11238955D01*
X5605050Y-11238955D02*
X5595527Y-11277051D01*
X5595527Y-11277051D02*
X5586003Y-11296098D01*
X5586003Y-11296098D02*
X5566955Y-11315146D01*
X5566955Y-11315146D02*
X5538384Y-11324670D01*
X5538384Y-11324670D02*
X5490765Y-11324670D01*
X5690765Y-11324670D02*
X5690765Y-11191336D01*
X5690765Y-11229432D02*
X5700289Y-11210384D01*
X5700289Y-11210384D02*
X5709812Y-11200860D01*
X5709812Y-11200860D02*
X5728860Y-11191336D01*
X5728860Y-11191336D02*
X5747908Y-11191336D01*
X5814574Y-11324670D02*
X5814574Y-11191336D01*
X5814574Y-11124670D02*
X5805050Y-11134194D01*
X5805050Y-11134194D02*
X5814574Y-11143717D01*
X5814574Y-11143717D02*
X5824098Y-11134194D01*
X5824098Y-11134194D02*
X5814574Y-11124670D01*
X5814574Y-11124670D02*
X5814574Y-11143717D01*
X5938384Y-11324670D02*
X5919336Y-11315146D01*
X5919336Y-11315146D02*
X5909812Y-11296098D01*
X5909812Y-11296098D02*
X5909812Y-11124670D01*
X6043146Y-11324670D02*
X6024098Y-11315146D01*
X6024098Y-11315146D02*
X6014574Y-11296098D01*
X6014574Y-11296098D02*
X6014574Y-11124670D01*
X6271717Y-11324670D02*
X6271717Y-11124670D01*
X6271717Y-11124670D02*
X6338384Y-11267527D01*
X6338384Y-11267527D02*
X6405050Y-11124670D01*
X6405050Y-11124670D02*
X6405050Y-11324670D01*
X6586003Y-11324670D02*
X6586003Y-11219908D01*
X6586003Y-11219908D02*
X6576479Y-11200860D01*
X6576479Y-11200860D02*
X6557431Y-11191336D01*
X6557431Y-11191336D02*
X6519336Y-11191336D01*
X6519336Y-11191336D02*
X6500289Y-11200860D01*
X6586003Y-11315146D02*
X6566955Y-11324670D01*
X6566955Y-11324670D02*
X6519336Y-11324670D01*
X6519336Y-11324670D02*
X6500289Y-11315146D01*
X6500289Y-11315146D02*
X6490765Y-11296098D01*
X6490765Y-11296098D02*
X6490765Y-11277051D01*
X6490765Y-11277051D02*
X6500289Y-11258003D01*
X6500289Y-11258003D02*
X6519336Y-11248479D01*
X6519336Y-11248479D02*
X6566955Y-11248479D01*
X6566955Y-11248479D02*
X6586003Y-11238955D01*
X6681241Y-11191336D02*
X6681241Y-11391336D01*
X6681241Y-11200860D02*
X6700289Y-11191336D01*
X6700289Y-11191336D02*
X6738384Y-11191336D01*
X6738384Y-11191336D02*
X6757431Y-11200860D01*
X6757431Y-11200860D02*
X6766955Y-11210384D01*
X6766955Y-11210384D02*
X6776479Y-11229432D01*
X6776479Y-11229432D02*
X6776479Y-11286574D01*
X6776479Y-11286574D02*
X6766955Y-11305622D01*
X6766955Y-11305622D02*
X6757431Y-11315146D01*
X6757431Y-11315146D02*
X6738384Y-11324670D01*
X6738384Y-11324670D02*
X6700289Y-11324670D01*
X6700289Y-11324670D02*
X6681241Y-11315146D01*
X6862193Y-11305622D02*
X6871717Y-11315146D01*
X6871717Y-11315146D02*
X6862193Y-11324670D01*
X6862193Y-11324670D02*
X6852670Y-11315146D01*
X6852670Y-11315146D02*
X6862193Y-11305622D01*
X6862193Y-11305622D02*
X6862193Y-11324670D01*
X6862193Y-11200860D02*
X6871717Y-11210384D01*
X6871717Y-11210384D02*
X6862193Y-11219908D01*
X6862193Y-11219908D02*
X6852670Y-11210384D01*
X6852670Y-11210384D02*
X6862193Y-11200860D01*
X6862193Y-11200860D02*
X6862193Y-11219908D01*
M02*
