%TF.GenerationSoftware,KiCad,Pcbnew,8.0.6*%
%TF.CreationDate,2025-01-05T14:05:29+01:00*%
%TF.ProjectId,snes_cart_pcb_pga2350,736e6573-5f63-4617-9274-5f7063625f70,rev?*%
%TF.SameCoordinates,Original*%
%TF.FileFunction,Drillmap*%
%TF.FilePolarity,Positive*%
%FSLAX45Y45*%
G04 Gerber Fmt 4.5, Leading zero omitted, Abs format (unit mm)*
G04 Created by KiCad (PCBNEW 8.0.6) date 2025-01-05 14:05:29*
%MOMM*%
%LPD*%
G01*
G04 APERTURE LIST*
%ADD10C,0.099060*%
%ADD11C,0.101600*%
%ADD12C,0.200000*%
%ADD13C,0.100000*%
G04 APERTURE END LIST*
D10*
X14685138Y-10938002D02*
G75*
G02*
X14615034Y-11008108I-70108J2D01*
G01*
X13505054Y-11008106D02*
G75*
G02*
X13434954Y-10938002I-4J70096D01*
G01*
X13185014Y-10938002D02*
G75*
G02*
X13114910Y-11008104I-70104J2D01*
G01*
X7255130Y-11008106D02*
G75*
G02*
X7185026Y-10938002I0J70104D01*
G01*
X6935090Y-10938002D02*
G75*
G02*
X6864986Y-11008106I-70104J0D01*
G01*
X5755006Y-11008106D02*
G75*
G02*
X5684902Y-10938002I0J70104D01*
G01*
D11*
X15084934Y-9466611D02*
X15084934Y-9945630D01*
X15084934Y-9466611D02*
X15084934Y-8958072D01*
X15084934Y-8958072D02*
X14834998Y-8958072D01*
X15084934Y-4137914D02*
X15084934Y-8755808D01*
X15084934Y-4137914D02*
X15084934Y-3627882D01*
X15084934Y-3627882D02*
X14834998Y-3627882D01*
X15084934Y-3457956D02*
X15084934Y-3057906D01*
X14834998Y-8958072D02*
X14834998Y-8755808D01*
X14834998Y-8755808D02*
X15084934Y-8755808D01*
X14834998Y-3627882D02*
X14834998Y-3457956D01*
X14834998Y-3457956D02*
X15084934Y-3457956D01*
X14685138Y-10938002D02*
X14685138Y-9958070D01*
X14685138Y-9958070D02*
X14685138Y-9945630D01*
X14685138Y-9945630D02*
X15084934Y-9945630D01*
X13505054Y-11008106D02*
X14615034Y-11008106D01*
X13434950Y-9878060D02*
X13434950Y-10938002D01*
X13185014Y-10938002D02*
X13185014Y-9878060D01*
X13185014Y-9878060D02*
X13434950Y-9878060D01*
X12375008Y-3057906D02*
X15084934Y-3057906D01*
X12375008Y-3057906D02*
X12375008Y-2707894D01*
X8019924Y-2707894D02*
X12375008Y-2707894D01*
X8019924Y-2707894D02*
X8019924Y-3057906D01*
X7255130Y-11008106D02*
X13114910Y-11008106D01*
X7185026Y-10938002D02*
X7185026Y-9878060D01*
X7185026Y-9878060D02*
X6935090Y-9878060D01*
X6935090Y-9878060D02*
X6935090Y-10938002D01*
X6864986Y-11008106D02*
X5755006Y-11008106D01*
X5684902Y-10938002D02*
X5684902Y-9958070D01*
X5684902Y-9947910D02*
X5684902Y-9958070D01*
X5494910Y-9487916D02*
X5244974Y-9487916D01*
X5494910Y-9288018D02*
X5494910Y-9487916D01*
X5485004Y-3627882D02*
X5235068Y-3627882D01*
X5485004Y-3457956D02*
X5485004Y-3627882D01*
X5244974Y-9487916D02*
X5244974Y-9947910D01*
X5244970Y-9947910D02*
X5684902Y-9947910D01*
X5235068Y-9288018D02*
X5494910Y-9288018D01*
X5235068Y-4128140D02*
X5235068Y-9288018D01*
X5235068Y-3627882D02*
X5235068Y-4128008D01*
X5235068Y-3457956D02*
X5485004Y-3457956D01*
X5235068Y-3057906D02*
X8019924Y-3057906D01*
X5235068Y-3057906D02*
X5235068Y-3457956D01*
D12*
D13*
X5674210Y-8044670D02*
X5704210Y-8074670D01*
X5704210Y-8044670D02*
X5674210Y-8074670D01*
X5928210Y-8044670D02*
X5958210Y-8074670D01*
X5958210Y-8044670D02*
X5928210Y-8074670D01*
X6182210Y-8044670D02*
X6212210Y-8074670D01*
X6212210Y-8044670D02*
X6182210Y-8074670D01*
X6664070Y-9963040D02*
X6694070Y-9993040D01*
X6694070Y-9963040D02*
X6664070Y-9993040D01*
X7270734Y-10100663D02*
X7300734Y-10130663D01*
X7300734Y-10100663D02*
X7270734Y-10130663D01*
X7920090Y-9880180D02*
X7950090Y-9910180D01*
X7950090Y-9880180D02*
X7920090Y-9910180D01*
X7985050Y-8559630D02*
X8015050Y-8589630D01*
X8015050Y-8559630D02*
X7985050Y-8589630D01*
X8121860Y-8501950D02*
X8151860Y-8531950D01*
X8151860Y-8501950D02*
X8121860Y-8531950D01*
X8150165Y-3832165D02*
X8180165Y-3862165D01*
X8180165Y-3832165D02*
X8150165Y-3862165D01*
X8160380Y-8578880D02*
X8190380Y-8608880D01*
X8190380Y-8578880D02*
X8160380Y-8608880D01*
X8168490Y-9321600D02*
X8198490Y-9351600D01*
X8198490Y-9321600D02*
X8168490Y-9351600D01*
X8189110Y-8936990D02*
X8219110Y-8966990D01*
X8219110Y-8936990D02*
X8189110Y-8966990D01*
X8236720Y-10083800D02*
X8266720Y-10113800D01*
X8266720Y-10083800D02*
X8236720Y-10113800D01*
X8246620Y-9484510D02*
X8276620Y-9514510D01*
X8276620Y-9484510D02*
X8246620Y-9514510D01*
X8249680Y-9300230D02*
X8279680Y-9330230D01*
X8279680Y-9300230D02*
X8249680Y-9330230D01*
X8372040Y-9900800D02*
X8402040Y-9930800D01*
X8402040Y-9900800D02*
X8372040Y-9930800D01*
X8419900Y-8133100D02*
X8449900Y-8163100D01*
X8449900Y-8133100D02*
X8419900Y-8163100D01*
X8620940Y-7498710D02*
X8650940Y-7528710D01*
X8650940Y-7498710D02*
X8620940Y-7528710D01*
X9146790Y-4019840D02*
X9176790Y-4049840D01*
X9176790Y-4019840D02*
X9146790Y-4049840D01*
X9325040Y-9943420D02*
X9355040Y-9973420D01*
X9355040Y-9943420D02*
X9325040Y-9973420D01*
X10114600Y-6091200D02*
X10144600Y-6121200D01*
X10144600Y-6091200D02*
X10114600Y-6121200D01*
X10419834Y-10085355D02*
X10449834Y-10115355D01*
X10449834Y-10085355D02*
X10419834Y-10115355D01*
X10604170Y-10112430D02*
X10634170Y-10142430D01*
X10634170Y-10112430D02*
X10604170Y-10142430D01*
X10843100Y-8091020D02*
X10873100Y-8121020D01*
X10873100Y-8091020D02*
X10843100Y-8121020D01*
X10956200Y-3583170D02*
X10986200Y-3613170D01*
X10986200Y-3583170D02*
X10956200Y-3613170D01*
X12040418Y-10099134D02*
X12070418Y-10129134D01*
X12070418Y-10099134D02*
X12040418Y-10129134D01*
X12542332Y-10091785D02*
X12572332Y-10121785D01*
X12572332Y-10091785D02*
X12542332Y-10121785D01*
X12617100Y-7683400D02*
X12647100Y-7713400D01*
X12647100Y-7683400D02*
X12617100Y-7713400D01*
X13008600Y-7304870D02*
X13038600Y-7334870D01*
X13038600Y-7304870D02*
X13008600Y-7334870D01*
X13090014Y-10050758D02*
X13120014Y-10080758D01*
X13120014Y-10050758D02*
X13090014Y-10080758D01*
X13255900Y-7305080D02*
X13285900Y-7335080D01*
X13285900Y-7305080D02*
X13255900Y-7335080D01*
X13447000Y-7306300D02*
X13477000Y-7336300D01*
X13477000Y-7306300D02*
X13447000Y-7336300D01*
X13852780Y-6279440D02*
X13882780Y-6309440D01*
X13882780Y-6279440D02*
X13852780Y-6309440D01*
X14313500Y-6341520D02*
X14343500Y-6371520D01*
X14343500Y-6341520D02*
X14313500Y-6371520D01*
X14434400Y-9963040D02*
X14464400Y-9993040D01*
X14464400Y-9963040D02*
X14434400Y-9993040D01*
X9055100Y-5461000D02*
G75*
G02*
X8978900Y-5461000I-38100J0D01*
G01*
X8978900Y-5461000D02*
G75*
G02*
X9055100Y-5461000I38100J0D01*
G01*
X9055100Y-5715000D02*
G75*
G02*
X8978900Y-5715000I-38100J0D01*
G01*
X8978900Y-5715000D02*
G75*
G02*
X9055100Y-5715000I38100J0D01*
G01*
X9055100Y-5969000D02*
G75*
G02*
X8978900Y-5969000I-38100J0D01*
G01*
X8978900Y-5969000D02*
G75*
G02*
X9055100Y-5969000I38100J0D01*
G01*
X9055100Y-6223000D02*
G75*
G02*
X8978900Y-6223000I-38100J0D01*
G01*
X8978900Y-6223000D02*
G75*
G02*
X9055100Y-6223000I38100J0D01*
G01*
X9055100Y-6477000D02*
G75*
G02*
X8978900Y-6477000I-38100J0D01*
G01*
X8978900Y-6477000D02*
G75*
G02*
X9055100Y-6477000I38100J0D01*
G01*
X9055100Y-6731000D02*
G75*
G02*
X8978900Y-6731000I-38100J0D01*
G01*
X8978900Y-6731000D02*
G75*
G02*
X9055100Y-6731000I38100J0D01*
G01*
X9055100Y-6985000D02*
G75*
G02*
X8978900Y-6985000I-38100J0D01*
G01*
X8978900Y-6985000D02*
G75*
G02*
X9055100Y-6985000I38100J0D01*
G01*
X9055100Y-7239000D02*
G75*
G02*
X8978900Y-7239000I-38100J0D01*
G01*
X8978900Y-7239000D02*
G75*
G02*
X9055100Y-7239000I38100J0D01*
G01*
X9055100Y-7493000D02*
G75*
G02*
X8978900Y-7493000I-38100J0D01*
G01*
X8978900Y-7493000D02*
G75*
G02*
X9055100Y-7493000I38100J0D01*
G01*
X9055100Y-7747000D02*
G75*
G02*
X8978900Y-7747000I-38100J0D01*
G01*
X8978900Y-7747000D02*
G75*
G02*
X9055100Y-7747000I38100J0D01*
G01*
X9309100Y-5461000D02*
G75*
G02*
X9232900Y-5461000I-38100J0D01*
G01*
X9232900Y-5461000D02*
G75*
G02*
X9309100Y-5461000I38100J0D01*
G01*
X9309100Y-5715000D02*
G75*
G02*
X9232900Y-5715000I-38100J0D01*
G01*
X9232900Y-5715000D02*
G75*
G02*
X9309100Y-5715000I38100J0D01*
G01*
X9309100Y-5969000D02*
G75*
G02*
X9232900Y-5969000I-38100J0D01*
G01*
X9232900Y-5969000D02*
G75*
G02*
X9309100Y-5969000I38100J0D01*
G01*
X9309100Y-6223000D02*
G75*
G02*
X9232900Y-6223000I-38100J0D01*
G01*
X9232900Y-6223000D02*
G75*
G02*
X9309100Y-6223000I38100J0D01*
G01*
X9309100Y-6477000D02*
G75*
G02*
X9232900Y-6477000I-38100J0D01*
G01*
X9232900Y-6477000D02*
G75*
G02*
X9309100Y-6477000I38100J0D01*
G01*
X9309100Y-6731000D02*
G75*
G02*
X9232900Y-6731000I-38100J0D01*
G01*
X9232900Y-6731000D02*
G75*
G02*
X9309100Y-6731000I38100J0D01*
G01*
X9309100Y-6985000D02*
G75*
G02*
X9232900Y-6985000I-38100J0D01*
G01*
X9232900Y-6985000D02*
G75*
G02*
X9309100Y-6985000I38100J0D01*
G01*
X9309100Y-7239000D02*
G75*
G02*
X9232900Y-7239000I-38100J0D01*
G01*
X9232900Y-7239000D02*
G75*
G02*
X9309100Y-7239000I38100J0D01*
G01*
X9309100Y-7493000D02*
G75*
G02*
X9232900Y-7493000I-38100J0D01*
G01*
X9232900Y-7493000D02*
G75*
G02*
X9309100Y-7493000I38100J0D01*
G01*
X9309100Y-7747000D02*
G75*
G02*
X9232900Y-7747000I-38100J0D01*
G01*
X9232900Y-7747000D02*
G75*
G02*
X9309100Y-7747000I38100J0D01*
G01*
X9563100Y-5461000D02*
G75*
G02*
X9486900Y-5461000I-38100J0D01*
G01*
X9486900Y-5461000D02*
G75*
G02*
X9563100Y-5461000I38100J0D01*
G01*
X9563100Y-5715000D02*
G75*
G02*
X9486900Y-5715000I-38100J0D01*
G01*
X9486900Y-5715000D02*
G75*
G02*
X9563100Y-5715000I38100J0D01*
G01*
X9563100Y-7493000D02*
G75*
G02*
X9486900Y-7493000I-38100J0D01*
G01*
X9486900Y-7493000D02*
G75*
G02*
X9563100Y-7493000I38100J0D01*
G01*
X9563100Y-7747000D02*
G75*
G02*
X9486900Y-7747000I-38100J0D01*
G01*
X9486900Y-7747000D02*
G75*
G02*
X9563100Y-7747000I38100J0D01*
G01*
X9817100Y-5461000D02*
G75*
G02*
X9740900Y-5461000I-38100J0D01*
G01*
X9740900Y-5461000D02*
G75*
G02*
X9817100Y-5461000I38100J0D01*
G01*
X9817100Y-5715000D02*
G75*
G02*
X9740900Y-5715000I-38100J0D01*
G01*
X9740900Y-5715000D02*
G75*
G02*
X9817100Y-5715000I38100J0D01*
G01*
X9817100Y-7493000D02*
G75*
G02*
X9740900Y-7493000I-38100J0D01*
G01*
X9740900Y-7493000D02*
G75*
G02*
X9817100Y-7493000I38100J0D01*
G01*
X9817100Y-7747000D02*
G75*
G02*
X9740900Y-7747000I-38100J0D01*
G01*
X9740900Y-7747000D02*
G75*
G02*
X9817100Y-7747000I38100J0D01*
G01*
X10071100Y-5461000D02*
G75*
G02*
X9994900Y-5461000I-38100J0D01*
G01*
X9994900Y-5461000D02*
G75*
G02*
X10071100Y-5461000I38100J0D01*
G01*
X10071100Y-5715000D02*
G75*
G02*
X9994900Y-5715000I-38100J0D01*
G01*
X9994900Y-5715000D02*
G75*
G02*
X10071100Y-5715000I38100J0D01*
G01*
X10071100Y-7493000D02*
G75*
G02*
X9994900Y-7493000I-38100J0D01*
G01*
X9994900Y-7493000D02*
G75*
G02*
X10071100Y-7493000I38100J0D01*
G01*
X10071100Y-7747000D02*
G75*
G02*
X9994900Y-7747000I-38100J0D01*
G01*
X9994900Y-7747000D02*
G75*
G02*
X10071100Y-7747000I38100J0D01*
G01*
X10325100Y-5461000D02*
G75*
G02*
X10248900Y-5461000I-38100J0D01*
G01*
X10248900Y-5461000D02*
G75*
G02*
X10325100Y-5461000I38100J0D01*
G01*
X10325100Y-5715000D02*
G75*
G02*
X10248900Y-5715000I-38100J0D01*
G01*
X10248900Y-5715000D02*
G75*
G02*
X10325100Y-5715000I38100J0D01*
G01*
X10325100Y-7493000D02*
G75*
G02*
X10248900Y-7493000I-38100J0D01*
G01*
X10248900Y-7493000D02*
G75*
G02*
X10325100Y-7493000I38100J0D01*
G01*
X10325100Y-7747000D02*
G75*
G02*
X10248900Y-7747000I-38100J0D01*
G01*
X10248900Y-7747000D02*
G75*
G02*
X10325100Y-7747000I38100J0D01*
G01*
X10579100Y-5461000D02*
G75*
G02*
X10502900Y-5461000I-38100J0D01*
G01*
X10502900Y-5461000D02*
G75*
G02*
X10579100Y-5461000I38100J0D01*
G01*
X10579100Y-5715000D02*
G75*
G02*
X10502900Y-5715000I-38100J0D01*
G01*
X10502900Y-5715000D02*
G75*
G02*
X10579100Y-5715000I38100J0D01*
G01*
X10579100Y-7493000D02*
G75*
G02*
X10502900Y-7493000I-38100J0D01*
G01*
X10502900Y-7493000D02*
G75*
G02*
X10579100Y-7493000I38100J0D01*
G01*
X10579100Y-7747000D02*
G75*
G02*
X10502900Y-7747000I-38100J0D01*
G01*
X10502900Y-7747000D02*
G75*
G02*
X10579100Y-7747000I38100J0D01*
G01*
X10833100Y-5461000D02*
G75*
G02*
X10756900Y-5461000I-38100J0D01*
G01*
X10756900Y-5461000D02*
G75*
G02*
X10833100Y-5461000I38100J0D01*
G01*
X10833100Y-5715000D02*
G75*
G02*
X10756900Y-5715000I-38100J0D01*
G01*
X10756900Y-5715000D02*
G75*
G02*
X10833100Y-5715000I38100J0D01*
G01*
X10833100Y-7493000D02*
G75*
G02*
X10756900Y-7493000I-38100J0D01*
G01*
X10756900Y-7493000D02*
G75*
G02*
X10833100Y-7493000I38100J0D01*
G01*
X10833100Y-7747000D02*
G75*
G02*
X10756900Y-7747000I-38100J0D01*
G01*
X10756900Y-7747000D02*
G75*
G02*
X10833100Y-7747000I38100J0D01*
G01*
X11087100Y-5461000D02*
G75*
G02*
X11010900Y-5461000I-38100J0D01*
G01*
X11010900Y-5461000D02*
G75*
G02*
X11087100Y-5461000I38100J0D01*
G01*
X11087100Y-5715000D02*
G75*
G02*
X11010900Y-5715000I-38100J0D01*
G01*
X11010900Y-5715000D02*
G75*
G02*
X11087100Y-5715000I38100J0D01*
G01*
X11087100Y-5969000D02*
G75*
G02*
X11010900Y-5969000I-38100J0D01*
G01*
X11010900Y-5969000D02*
G75*
G02*
X11087100Y-5969000I38100J0D01*
G01*
X11087100Y-6223000D02*
G75*
G02*
X11010900Y-6223000I-38100J0D01*
G01*
X11010900Y-6223000D02*
G75*
G02*
X11087100Y-6223000I38100J0D01*
G01*
X11087100Y-6477000D02*
G75*
G02*
X11010900Y-6477000I-38100J0D01*
G01*
X11010900Y-6477000D02*
G75*
G02*
X11087100Y-6477000I38100J0D01*
G01*
X11087100Y-6731000D02*
G75*
G02*
X11010900Y-6731000I-38100J0D01*
G01*
X11010900Y-6731000D02*
G75*
G02*
X11087100Y-6731000I38100J0D01*
G01*
X11087100Y-6985000D02*
G75*
G02*
X11010900Y-6985000I-38100J0D01*
G01*
X11010900Y-6985000D02*
G75*
G02*
X11087100Y-6985000I38100J0D01*
G01*
X11087100Y-7239000D02*
G75*
G02*
X11010900Y-7239000I-38100J0D01*
G01*
X11010900Y-7239000D02*
G75*
G02*
X11087100Y-7239000I38100J0D01*
G01*
X11087100Y-7493000D02*
G75*
G02*
X11010900Y-7493000I-38100J0D01*
G01*
X11010900Y-7493000D02*
G75*
G02*
X11087100Y-7493000I38100J0D01*
G01*
X11087100Y-7747000D02*
G75*
G02*
X11010900Y-7747000I-38100J0D01*
G01*
X11010900Y-7747000D02*
G75*
G02*
X11087100Y-7747000I38100J0D01*
G01*
X11341100Y-5461000D02*
G75*
G02*
X11264900Y-5461000I-38100J0D01*
G01*
X11264900Y-5461000D02*
G75*
G02*
X11341100Y-5461000I38100J0D01*
G01*
X11341100Y-5715000D02*
G75*
G02*
X11264900Y-5715000I-38100J0D01*
G01*
X11264900Y-5715000D02*
G75*
G02*
X11341100Y-5715000I38100J0D01*
G01*
X11341100Y-5969000D02*
G75*
G02*
X11264900Y-5969000I-38100J0D01*
G01*
X11264900Y-5969000D02*
G75*
G02*
X11341100Y-5969000I38100J0D01*
G01*
X11341100Y-6223000D02*
G75*
G02*
X11264900Y-6223000I-38100J0D01*
G01*
X11264900Y-6223000D02*
G75*
G02*
X11341100Y-6223000I38100J0D01*
G01*
X11341100Y-6477000D02*
G75*
G02*
X11264900Y-6477000I-38100J0D01*
G01*
X11264900Y-6477000D02*
G75*
G02*
X11341100Y-6477000I38100J0D01*
G01*
X11341100Y-6731000D02*
G75*
G02*
X11264900Y-6731000I-38100J0D01*
G01*
X11264900Y-6731000D02*
G75*
G02*
X11341100Y-6731000I38100J0D01*
G01*
X11341100Y-6985000D02*
G75*
G02*
X11264900Y-6985000I-38100J0D01*
G01*
X11264900Y-6985000D02*
G75*
G02*
X11341100Y-6985000I38100J0D01*
G01*
X11341100Y-7239000D02*
G75*
G02*
X11264900Y-7239000I-38100J0D01*
G01*
X11264900Y-7239000D02*
G75*
G02*
X11341100Y-7239000I38100J0D01*
G01*
X11341100Y-7493000D02*
G75*
G02*
X11264900Y-7493000I-38100J0D01*
G01*
X11264900Y-7493000D02*
G75*
G02*
X11341100Y-7493000I38100J0D01*
G01*
X11341100Y-7747000D02*
G75*
G02*
X11264900Y-7747000I-38100J0D01*
G01*
X11264900Y-7747000D02*
G75*
G02*
X11341100Y-7747000I38100J0D01*
G01*
D12*
X5490765Y-11324670D02*
X5490765Y-11124670D01*
X5490765Y-11124670D02*
X5538384Y-11124670D01*
X5538384Y-11124670D02*
X5566955Y-11134194D01*
X5566955Y-11134194D02*
X5586003Y-11153241D01*
X5586003Y-11153241D02*
X5595527Y-11172289D01*
X5595527Y-11172289D02*
X5605050Y-11210384D01*
X5605050Y-11210384D02*
X5605050Y-11238955D01*
X5605050Y-11238955D02*
X5595527Y-11277051D01*
X5595527Y-11277051D02*
X5586003Y-11296098D01*
X5586003Y-11296098D02*
X5566955Y-11315146D01*
X5566955Y-11315146D02*
X5538384Y-11324670D01*
X5538384Y-11324670D02*
X5490765Y-11324670D01*
X5690765Y-11324670D02*
X5690765Y-11191336D01*
X5690765Y-11229432D02*
X5700289Y-11210384D01*
X5700289Y-11210384D02*
X5709812Y-11200860D01*
X5709812Y-11200860D02*
X5728860Y-11191336D01*
X5728860Y-11191336D02*
X5747908Y-11191336D01*
X5814574Y-11324670D02*
X5814574Y-11191336D01*
X5814574Y-11124670D02*
X5805050Y-11134194D01*
X5805050Y-11134194D02*
X5814574Y-11143717D01*
X5814574Y-11143717D02*
X5824098Y-11134194D01*
X5824098Y-11134194D02*
X5814574Y-11124670D01*
X5814574Y-11124670D02*
X5814574Y-11143717D01*
X5938384Y-11324670D02*
X5919336Y-11315146D01*
X5919336Y-11315146D02*
X5909812Y-11296098D01*
X5909812Y-11296098D02*
X5909812Y-11124670D01*
X6043146Y-11324670D02*
X6024098Y-11315146D01*
X6024098Y-11315146D02*
X6014574Y-11296098D01*
X6014574Y-11296098D02*
X6014574Y-11124670D01*
X6271717Y-11324670D02*
X6271717Y-11124670D01*
X6271717Y-11124670D02*
X6338384Y-11267527D01*
X6338384Y-11267527D02*
X6405050Y-11124670D01*
X6405050Y-11124670D02*
X6405050Y-11324670D01*
X6586003Y-11324670D02*
X6586003Y-11219908D01*
X6586003Y-11219908D02*
X6576479Y-11200860D01*
X6576479Y-11200860D02*
X6557431Y-11191336D01*
X6557431Y-11191336D02*
X6519336Y-11191336D01*
X6519336Y-11191336D02*
X6500289Y-11200860D01*
X6586003Y-11315146D02*
X6566955Y-11324670D01*
X6566955Y-11324670D02*
X6519336Y-11324670D01*
X6519336Y-11324670D02*
X6500289Y-11315146D01*
X6500289Y-11315146D02*
X6490765Y-11296098D01*
X6490765Y-11296098D02*
X6490765Y-11277051D01*
X6490765Y-11277051D02*
X6500289Y-11258003D01*
X6500289Y-11258003D02*
X6519336Y-11248479D01*
X6519336Y-11248479D02*
X6566955Y-11248479D01*
X6566955Y-11248479D02*
X6586003Y-11238955D01*
X6681241Y-11191336D02*
X6681241Y-11391336D01*
X6681241Y-11200860D02*
X6700289Y-11191336D01*
X6700289Y-11191336D02*
X6738384Y-11191336D01*
X6738384Y-11191336D02*
X6757431Y-11200860D01*
X6757431Y-11200860D02*
X6766955Y-11210384D01*
X6766955Y-11210384D02*
X6776479Y-11229432D01*
X6776479Y-11229432D02*
X6776479Y-11286574D01*
X6776479Y-11286574D02*
X6766955Y-11305622D01*
X6766955Y-11305622D02*
X6757431Y-11315146D01*
X6757431Y-11315146D02*
X6738384Y-11324670D01*
X6738384Y-11324670D02*
X6700289Y-11324670D01*
X6700289Y-11324670D02*
X6681241Y-11315146D01*
X6862193Y-11305622D02*
X6871717Y-11315146D01*
X6871717Y-11315146D02*
X6862193Y-11324670D01*
X6862193Y-11324670D02*
X6852670Y-11315146D01*
X6852670Y-11315146D02*
X6862193Y-11305622D01*
X6862193Y-11305622D02*
X6862193Y-11324670D01*
X6862193Y-11200860D02*
X6871717Y-11210384D01*
X6871717Y-11210384D02*
X6862193Y-11219908D01*
X6862193Y-11219908D02*
X6852670Y-11210384D01*
X6852670Y-11210384D02*
X6862193Y-11200860D01*
X6862193Y-11200860D02*
X6862193Y-11219908D01*
D13*
X5199988Y-11638186D02*
X5229988Y-11668186D01*
X5229988Y-11638186D02*
X5199988Y-11668186D01*
D12*
X5528860Y-11544670D02*
X5547908Y-11544670D01*
X5547908Y-11544670D02*
X5566955Y-11554194D01*
X5566955Y-11554194D02*
X5576479Y-11563717D01*
X5576479Y-11563717D02*
X5586003Y-11582765D01*
X5586003Y-11582765D02*
X5595527Y-11620860D01*
X5595527Y-11620860D02*
X5595527Y-11668479D01*
X5595527Y-11668479D02*
X5586003Y-11706574D01*
X5586003Y-11706574D02*
X5576479Y-11725622D01*
X5576479Y-11725622D02*
X5566955Y-11735146D01*
X5566955Y-11735146D02*
X5547908Y-11744670D01*
X5547908Y-11744670D02*
X5528860Y-11744670D01*
X5528860Y-11744670D02*
X5509812Y-11735146D01*
X5509812Y-11735146D02*
X5500289Y-11725622D01*
X5500289Y-11725622D02*
X5490765Y-11706574D01*
X5490765Y-11706574D02*
X5481241Y-11668479D01*
X5481241Y-11668479D02*
X5481241Y-11620860D01*
X5481241Y-11620860D02*
X5490765Y-11582765D01*
X5490765Y-11582765D02*
X5500289Y-11563717D01*
X5500289Y-11563717D02*
X5509812Y-11554194D01*
X5509812Y-11554194D02*
X5528860Y-11544670D01*
X5681241Y-11725622D02*
X5690765Y-11735146D01*
X5690765Y-11735146D02*
X5681241Y-11744670D01*
X5681241Y-11744670D02*
X5671717Y-11735146D01*
X5671717Y-11735146D02*
X5681241Y-11725622D01*
X5681241Y-11725622D02*
X5681241Y-11744670D01*
X5757431Y-11544670D02*
X5881241Y-11544670D01*
X5881241Y-11544670D02*
X5814574Y-11620860D01*
X5814574Y-11620860D02*
X5843146Y-11620860D01*
X5843146Y-11620860D02*
X5862193Y-11630384D01*
X5862193Y-11630384D02*
X5871717Y-11639908D01*
X5871717Y-11639908D02*
X5881241Y-11658955D01*
X5881241Y-11658955D02*
X5881241Y-11706574D01*
X5881241Y-11706574D02*
X5871717Y-11725622D01*
X5871717Y-11725622D02*
X5862193Y-11735146D01*
X5862193Y-11735146D02*
X5843146Y-11744670D01*
X5843146Y-11744670D02*
X5786003Y-11744670D01*
X5786003Y-11744670D02*
X5766955Y-11735146D01*
X5766955Y-11735146D02*
X5757431Y-11725622D01*
X6005050Y-11544670D02*
X6024098Y-11544670D01*
X6024098Y-11544670D02*
X6043146Y-11554194D01*
X6043146Y-11554194D02*
X6052670Y-11563717D01*
X6052670Y-11563717D02*
X6062193Y-11582765D01*
X6062193Y-11582765D02*
X6071717Y-11620860D01*
X6071717Y-11620860D02*
X6071717Y-11668479D01*
X6071717Y-11668479D02*
X6062193Y-11706574D01*
X6062193Y-11706574D02*
X6052670Y-11725622D01*
X6052670Y-11725622D02*
X6043146Y-11735146D01*
X6043146Y-11735146D02*
X6024098Y-11744670D01*
X6024098Y-11744670D02*
X6005050Y-11744670D01*
X6005050Y-11744670D02*
X5986003Y-11735146D01*
X5986003Y-11735146D02*
X5976479Y-11725622D01*
X5976479Y-11725622D02*
X5966955Y-11706574D01*
X5966955Y-11706574D02*
X5957431Y-11668479D01*
X5957431Y-11668479D02*
X5957431Y-11620860D01*
X5957431Y-11620860D02*
X5966955Y-11582765D01*
X5966955Y-11582765D02*
X5976479Y-11563717D01*
X5976479Y-11563717D02*
X5986003Y-11554194D01*
X5986003Y-11554194D02*
X6005050Y-11544670D01*
X6195527Y-11544670D02*
X6214574Y-11544670D01*
X6214574Y-11544670D02*
X6233622Y-11554194D01*
X6233622Y-11554194D02*
X6243146Y-11563717D01*
X6243146Y-11563717D02*
X6252670Y-11582765D01*
X6252670Y-11582765D02*
X6262193Y-11620860D01*
X6262193Y-11620860D02*
X6262193Y-11668479D01*
X6262193Y-11668479D02*
X6252670Y-11706574D01*
X6252670Y-11706574D02*
X6243146Y-11725622D01*
X6243146Y-11725622D02*
X6233622Y-11735146D01*
X6233622Y-11735146D02*
X6214574Y-11744670D01*
X6214574Y-11744670D02*
X6195527Y-11744670D01*
X6195527Y-11744670D02*
X6176479Y-11735146D01*
X6176479Y-11735146D02*
X6166955Y-11725622D01*
X6166955Y-11725622D02*
X6157431Y-11706574D01*
X6157431Y-11706574D02*
X6147908Y-11668479D01*
X6147908Y-11668479D02*
X6147908Y-11620860D01*
X6147908Y-11620860D02*
X6157431Y-11582765D01*
X6157431Y-11582765D02*
X6166955Y-11563717D01*
X6166955Y-11563717D02*
X6176479Y-11554194D01*
X6176479Y-11554194D02*
X6195527Y-11544670D01*
X6347908Y-11744670D02*
X6347908Y-11611336D01*
X6347908Y-11630384D02*
X6357431Y-11620860D01*
X6357431Y-11620860D02*
X6376479Y-11611336D01*
X6376479Y-11611336D02*
X6405051Y-11611336D01*
X6405051Y-11611336D02*
X6424098Y-11620860D01*
X6424098Y-11620860D02*
X6433622Y-11639908D01*
X6433622Y-11639908D02*
X6433622Y-11744670D01*
X6433622Y-11639908D02*
X6443146Y-11620860D01*
X6443146Y-11620860D02*
X6462193Y-11611336D01*
X6462193Y-11611336D02*
X6490765Y-11611336D01*
X6490765Y-11611336D02*
X6509812Y-11620860D01*
X6509812Y-11620860D02*
X6519336Y-11639908D01*
X6519336Y-11639908D02*
X6519336Y-11744670D01*
X6614574Y-11744670D02*
X6614574Y-11611336D01*
X6614574Y-11630384D02*
X6624098Y-11620860D01*
X6624098Y-11620860D02*
X6643146Y-11611336D01*
X6643146Y-11611336D02*
X6671717Y-11611336D01*
X6671717Y-11611336D02*
X6690765Y-11620860D01*
X6690765Y-11620860D02*
X6700289Y-11639908D01*
X6700289Y-11639908D02*
X6700289Y-11744670D01*
X6700289Y-11639908D02*
X6709812Y-11620860D01*
X6709812Y-11620860D02*
X6728860Y-11611336D01*
X6728860Y-11611336D02*
X6757431Y-11611336D01*
X6757431Y-11611336D02*
X6776479Y-11620860D01*
X6776479Y-11620860D02*
X6786003Y-11639908D01*
X6786003Y-11639908D02*
X6786003Y-11744670D01*
X7176479Y-11535146D02*
X7005051Y-11792289D01*
X7433622Y-11544670D02*
X7452670Y-11544670D01*
X7452670Y-11544670D02*
X7471717Y-11554194D01*
X7471717Y-11554194D02*
X7481241Y-11563717D01*
X7481241Y-11563717D02*
X7490765Y-11582765D01*
X7490765Y-11582765D02*
X7500289Y-11620860D01*
X7500289Y-11620860D02*
X7500289Y-11668479D01*
X7500289Y-11668479D02*
X7490765Y-11706574D01*
X7490765Y-11706574D02*
X7481241Y-11725622D01*
X7481241Y-11725622D02*
X7471717Y-11735146D01*
X7471717Y-11735146D02*
X7452670Y-11744670D01*
X7452670Y-11744670D02*
X7433622Y-11744670D01*
X7433622Y-11744670D02*
X7414574Y-11735146D01*
X7414574Y-11735146D02*
X7405051Y-11725622D01*
X7405051Y-11725622D02*
X7395527Y-11706574D01*
X7395527Y-11706574D02*
X7386003Y-11668479D01*
X7386003Y-11668479D02*
X7386003Y-11620860D01*
X7386003Y-11620860D02*
X7395527Y-11582765D01*
X7395527Y-11582765D02*
X7405051Y-11563717D01*
X7405051Y-11563717D02*
X7414574Y-11554194D01*
X7414574Y-11554194D02*
X7433622Y-11544670D01*
X7586003Y-11725622D02*
X7595527Y-11735146D01*
X7595527Y-11735146D02*
X7586003Y-11744670D01*
X7586003Y-11744670D02*
X7576479Y-11735146D01*
X7576479Y-11735146D02*
X7586003Y-11725622D01*
X7586003Y-11725622D02*
X7586003Y-11744670D01*
X7719336Y-11544670D02*
X7738384Y-11544670D01*
X7738384Y-11544670D02*
X7757432Y-11554194D01*
X7757432Y-11554194D02*
X7766955Y-11563717D01*
X7766955Y-11563717D02*
X7776479Y-11582765D01*
X7776479Y-11582765D02*
X7786003Y-11620860D01*
X7786003Y-11620860D02*
X7786003Y-11668479D01*
X7786003Y-11668479D02*
X7776479Y-11706574D01*
X7776479Y-11706574D02*
X7766955Y-11725622D01*
X7766955Y-11725622D02*
X7757432Y-11735146D01*
X7757432Y-11735146D02*
X7738384Y-11744670D01*
X7738384Y-11744670D02*
X7719336Y-11744670D01*
X7719336Y-11744670D02*
X7700289Y-11735146D01*
X7700289Y-11735146D02*
X7690765Y-11725622D01*
X7690765Y-11725622D02*
X7681241Y-11706574D01*
X7681241Y-11706574D02*
X7671717Y-11668479D01*
X7671717Y-11668479D02*
X7671717Y-11620860D01*
X7671717Y-11620860D02*
X7681241Y-11582765D01*
X7681241Y-11582765D02*
X7690765Y-11563717D01*
X7690765Y-11563717D02*
X7700289Y-11554194D01*
X7700289Y-11554194D02*
X7719336Y-11544670D01*
X7976479Y-11744670D02*
X7862194Y-11744670D01*
X7919336Y-11744670D02*
X7919336Y-11544670D01*
X7919336Y-11544670D02*
X7900289Y-11573241D01*
X7900289Y-11573241D02*
X7881241Y-11592289D01*
X7881241Y-11592289D02*
X7862194Y-11601813D01*
X8166955Y-11744670D02*
X8052670Y-11744670D01*
X8109813Y-11744670D02*
X8109813Y-11544670D01*
X8109813Y-11544670D02*
X8090765Y-11573241D01*
X8090765Y-11573241D02*
X8071717Y-11592289D01*
X8071717Y-11592289D02*
X8052670Y-11601813D01*
X8281241Y-11630384D02*
X8262194Y-11620860D01*
X8262194Y-11620860D02*
X8252670Y-11611336D01*
X8252670Y-11611336D02*
X8243146Y-11592289D01*
X8243146Y-11592289D02*
X8243146Y-11582765D01*
X8243146Y-11582765D02*
X8252670Y-11563717D01*
X8252670Y-11563717D02*
X8262194Y-11554194D01*
X8262194Y-11554194D02*
X8281241Y-11544670D01*
X8281241Y-11544670D02*
X8319336Y-11544670D01*
X8319336Y-11544670D02*
X8338384Y-11554194D01*
X8338384Y-11554194D02*
X8347908Y-11563717D01*
X8347908Y-11563717D02*
X8357432Y-11582765D01*
X8357432Y-11582765D02*
X8357432Y-11592289D01*
X8357432Y-11592289D02*
X8347908Y-11611336D01*
X8347908Y-11611336D02*
X8338384Y-11620860D01*
X8338384Y-11620860D02*
X8319336Y-11630384D01*
X8319336Y-11630384D02*
X8281241Y-11630384D01*
X8281241Y-11630384D02*
X8262194Y-11639908D01*
X8262194Y-11639908D02*
X8252670Y-11649432D01*
X8252670Y-11649432D02*
X8243146Y-11668479D01*
X8243146Y-11668479D02*
X8243146Y-11706574D01*
X8243146Y-11706574D02*
X8252670Y-11725622D01*
X8252670Y-11725622D02*
X8262194Y-11735146D01*
X8262194Y-11735146D02*
X8281241Y-11744670D01*
X8281241Y-11744670D02*
X8319336Y-11744670D01*
X8319336Y-11744670D02*
X8338384Y-11735146D01*
X8338384Y-11735146D02*
X8347908Y-11725622D01*
X8347908Y-11725622D02*
X8357432Y-11706574D01*
X8357432Y-11706574D02*
X8357432Y-11668479D01*
X8357432Y-11668479D02*
X8347908Y-11649432D01*
X8347908Y-11649432D02*
X8338384Y-11639908D01*
X8338384Y-11639908D02*
X8319336Y-11630384D01*
X8433622Y-11544670D02*
X8433622Y-11582765D01*
X8509813Y-11544670D02*
X8509813Y-11582765D01*
X8805051Y-11820860D02*
X8795527Y-11811336D01*
X8795527Y-11811336D02*
X8776479Y-11782765D01*
X8776479Y-11782765D02*
X8766956Y-11763717D01*
X8766956Y-11763717D02*
X8757432Y-11735146D01*
X8757432Y-11735146D02*
X8747908Y-11687527D01*
X8747908Y-11687527D02*
X8747908Y-11649432D01*
X8747908Y-11649432D02*
X8757432Y-11601813D01*
X8757432Y-11601813D02*
X8766956Y-11573241D01*
X8766956Y-11573241D02*
X8776479Y-11554194D01*
X8776479Y-11554194D02*
X8795527Y-11525622D01*
X8795527Y-11525622D02*
X8805051Y-11516098D01*
X8862194Y-11544670D02*
X8986003Y-11544670D01*
X8986003Y-11544670D02*
X8919337Y-11620860D01*
X8919337Y-11620860D02*
X8947908Y-11620860D01*
X8947908Y-11620860D02*
X8966956Y-11630384D01*
X8966956Y-11630384D02*
X8976479Y-11639908D01*
X8976479Y-11639908D02*
X8986003Y-11658955D01*
X8986003Y-11658955D02*
X8986003Y-11706574D01*
X8986003Y-11706574D02*
X8976479Y-11725622D01*
X8976479Y-11725622D02*
X8966956Y-11735146D01*
X8966956Y-11735146D02*
X8947908Y-11744670D01*
X8947908Y-11744670D02*
X8890765Y-11744670D01*
X8890765Y-11744670D02*
X8871718Y-11735146D01*
X8871718Y-11735146D02*
X8862194Y-11725622D01*
X9166956Y-11544670D02*
X9071718Y-11544670D01*
X9071718Y-11544670D02*
X9062194Y-11639908D01*
X9062194Y-11639908D02*
X9071718Y-11630384D01*
X9071718Y-11630384D02*
X9090765Y-11620860D01*
X9090765Y-11620860D02*
X9138384Y-11620860D01*
X9138384Y-11620860D02*
X9157432Y-11630384D01*
X9157432Y-11630384D02*
X9166956Y-11639908D01*
X9166956Y-11639908D02*
X9176479Y-11658955D01*
X9176479Y-11658955D02*
X9176479Y-11706574D01*
X9176479Y-11706574D02*
X9166956Y-11725622D01*
X9166956Y-11725622D02*
X9157432Y-11735146D01*
X9157432Y-11735146D02*
X9138384Y-11744670D01*
X9138384Y-11744670D02*
X9090765Y-11744670D01*
X9090765Y-11744670D02*
X9071718Y-11735146D01*
X9071718Y-11735146D02*
X9062194Y-11725622D01*
X9414575Y-11744670D02*
X9414575Y-11544670D01*
X9500289Y-11744670D02*
X9500289Y-11639908D01*
X9500289Y-11639908D02*
X9490765Y-11620860D01*
X9490765Y-11620860D02*
X9471718Y-11611336D01*
X9471718Y-11611336D02*
X9443146Y-11611336D01*
X9443146Y-11611336D02*
X9424099Y-11620860D01*
X9424099Y-11620860D02*
X9414575Y-11630384D01*
X9624099Y-11744670D02*
X9605051Y-11735146D01*
X9605051Y-11735146D02*
X9595527Y-11725622D01*
X9595527Y-11725622D02*
X9586003Y-11706574D01*
X9586003Y-11706574D02*
X9586003Y-11649432D01*
X9586003Y-11649432D02*
X9595527Y-11630384D01*
X9595527Y-11630384D02*
X9605051Y-11620860D01*
X9605051Y-11620860D02*
X9624099Y-11611336D01*
X9624099Y-11611336D02*
X9652670Y-11611336D01*
X9652670Y-11611336D02*
X9671718Y-11620860D01*
X9671718Y-11620860D02*
X9681241Y-11630384D01*
X9681241Y-11630384D02*
X9690765Y-11649432D01*
X9690765Y-11649432D02*
X9690765Y-11706574D01*
X9690765Y-11706574D02*
X9681241Y-11725622D01*
X9681241Y-11725622D02*
X9671718Y-11735146D01*
X9671718Y-11735146D02*
X9652670Y-11744670D01*
X9652670Y-11744670D02*
X9624099Y-11744670D01*
X9805051Y-11744670D02*
X9786003Y-11735146D01*
X9786003Y-11735146D02*
X9776480Y-11716098D01*
X9776480Y-11716098D02*
X9776480Y-11544670D01*
X9957432Y-11735146D02*
X9938384Y-11744670D01*
X9938384Y-11744670D02*
X9900289Y-11744670D01*
X9900289Y-11744670D02*
X9881241Y-11735146D01*
X9881241Y-11735146D02*
X9871718Y-11716098D01*
X9871718Y-11716098D02*
X9871718Y-11639908D01*
X9871718Y-11639908D02*
X9881241Y-11620860D01*
X9881241Y-11620860D02*
X9900289Y-11611336D01*
X9900289Y-11611336D02*
X9938384Y-11611336D01*
X9938384Y-11611336D02*
X9957432Y-11620860D01*
X9957432Y-11620860D02*
X9966956Y-11639908D01*
X9966956Y-11639908D02*
X9966956Y-11658955D01*
X9966956Y-11658955D02*
X9871718Y-11678003D01*
X10043146Y-11735146D02*
X10062194Y-11744670D01*
X10062194Y-11744670D02*
X10100289Y-11744670D01*
X10100289Y-11744670D02*
X10119337Y-11735146D01*
X10119337Y-11735146D02*
X10128861Y-11716098D01*
X10128861Y-11716098D02*
X10128861Y-11706574D01*
X10128861Y-11706574D02*
X10119337Y-11687527D01*
X10119337Y-11687527D02*
X10100289Y-11678003D01*
X10100289Y-11678003D02*
X10071718Y-11678003D01*
X10071718Y-11678003D02*
X10052670Y-11668479D01*
X10052670Y-11668479D02*
X10043146Y-11649432D01*
X10043146Y-11649432D02*
X10043146Y-11639908D01*
X10043146Y-11639908D02*
X10052670Y-11620860D01*
X10052670Y-11620860D02*
X10071718Y-11611336D01*
X10071718Y-11611336D02*
X10100289Y-11611336D01*
X10100289Y-11611336D02*
X10119337Y-11620860D01*
X10195527Y-11820860D02*
X10205051Y-11811336D01*
X10205051Y-11811336D02*
X10224099Y-11782765D01*
X10224099Y-11782765D02*
X10233622Y-11763717D01*
X10233622Y-11763717D02*
X10243146Y-11735146D01*
X10243146Y-11735146D02*
X10252670Y-11687527D01*
X10252670Y-11687527D02*
X10252670Y-11649432D01*
X10252670Y-11649432D02*
X10243146Y-11601813D01*
X10243146Y-11601813D02*
X10233622Y-11573241D01*
X10233622Y-11573241D02*
X10224099Y-11554194D01*
X10224099Y-11554194D02*
X10205051Y-11525622D01*
X10205051Y-11525622D02*
X10195527Y-11516098D01*
D13*
X5229988Y-11917186D02*
G75*
G02*
X5153788Y-11917186I-38100J0D01*
G01*
X5153788Y-11917186D02*
G75*
G02*
X5229988Y-11917186I38100J0D01*
G01*
D12*
X5528860Y-11808670D02*
X5547908Y-11808670D01*
X5547908Y-11808670D02*
X5566955Y-11818194D01*
X5566955Y-11818194D02*
X5576479Y-11827717D01*
X5576479Y-11827717D02*
X5586003Y-11846765D01*
X5586003Y-11846765D02*
X5595527Y-11884860D01*
X5595527Y-11884860D02*
X5595527Y-11932479D01*
X5595527Y-11932479D02*
X5586003Y-11970574D01*
X5586003Y-11970574D02*
X5576479Y-11989622D01*
X5576479Y-11989622D02*
X5566955Y-11999146D01*
X5566955Y-11999146D02*
X5547908Y-12008670D01*
X5547908Y-12008670D02*
X5528860Y-12008670D01*
X5528860Y-12008670D02*
X5509812Y-11999146D01*
X5509812Y-11999146D02*
X5500289Y-11989622D01*
X5500289Y-11989622D02*
X5490765Y-11970574D01*
X5490765Y-11970574D02*
X5481241Y-11932479D01*
X5481241Y-11932479D02*
X5481241Y-11884860D01*
X5481241Y-11884860D02*
X5490765Y-11846765D01*
X5490765Y-11846765D02*
X5500289Y-11827717D01*
X5500289Y-11827717D02*
X5509812Y-11818194D01*
X5509812Y-11818194D02*
X5528860Y-11808670D01*
X5681241Y-11989622D02*
X5690765Y-11999146D01*
X5690765Y-11999146D02*
X5681241Y-12008670D01*
X5681241Y-12008670D02*
X5671717Y-11999146D01*
X5671717Y-11999146D02*
X5681241Y-11989622D01*
X5681241Y-11989622D02*
X5681241Y-12008670D01*
X5757431Y-11808670D02*
X5890765Y-11808670D01*
X5890765Y-11808670D02*
X5805050Y-12008670D01*
X6052670Y-11808670D02*
X6014574Y-11808670D01*
X6014574Y-11808670D02*
X5995527Y-11818194D01*
X5995527Y-11818194D02*
X5986003Y-11827717D01*
X5986003Y-11827717D02*
X5966955Y-11856289D01*
X5966955Y-11856289D02*
X5957431Y-11894384D01*
X5957431Y-11894384D02*
X5957431Y-11970574D01*
X5957431Y-11970574D02*
X5966955Y-11989622D01*
X5966955Y-11989622D02*
X5976479Y-11999146D01*
X5976479Y-11999146D02*
X5995527Y-12008670D01*
X5995527Y-12008670D02*
X6033622Y-12008670D01*
X6033622Y-12008670D02*
X6052670Y-11999146D01*
X6052670Y-11999146D02*
X6062193Y-11989622D01*
X6062193Y-11989622D02*
X6071717Y-11970574D01*
X6071717Y-11970574D02*
X6071717Y-11922955D01*
X6071717Y-11922955D02*
X6062193Y-11903908D01*
X6062193Y-11903908D02*
X6052670Y-11894384D01*
X6052670Y-11894384D02*
X6033622Y-11884860D01*
X6033622Y-11884860D02*
X5995527Y-11884860D01*
X5995527Y-11884860D02*
X5976479Y-11894384D01*
X5976479Y-11894384D02*
X5966955Y-11903908D01*
X5966955Y-11903908D02*
X5957431Y-11922955D01*
X6147908Y-11827717D02*
X6157431Y-11818194D01*
X6157431Y-11818194D02*
X6176479Y-11808670D01*
X6176479Y-11808670D02*
X6224098Y-11808670D01*
X6224098Y-11808670D02*
X6243146Y-11818194D01*
X6243146Y-11818194D02*
X6252670Y-11827717D01*
X6252670Y-11827717D02*
X6262193Y-11846765D01*
X6262193Y-11846765D02*
X6262193Y-11865813D01*
X6262193Y-11865813D02*
X6252670Y-11894384D01*
X6252670Y-11894384D02*
X6138384Y-12008670D01*
X6138384Y-12008670D02*
X6262193Y-12008670D01*
X6347908Y-12008670D02*
X6347908Y-11875336D01*
X6347908Y-11894384D02*
X6357431Y-11884860D01*
X6357431Y-11884860D02*
X6376479Y-11875336D01*
X6376479Y-11875336D02*
X6405051Y-11875336D01*
X6405051Y-11875336D02*
X6424098Y-11884860D01*
X6424098Y-11884860D02*
X6433622Y-11903908D01*
X6433622Y-11903908D02*
X6433622Y-12008670D01*
X6433622Y-11903908D02*
X6443146Y-11884860D01*
X6443146Y-11884860D02*
X6462193Y-11875336D01*
X6462193Y-11875336D02*
X6490765Y-11875336D01*
X6490765Y-11875336D02*
X6509812Y-11884860D01*
X6509812Y-11884860D02*
X6519336Y-11903908D01*
X6519336Y-11903908D02*
X6519336Y-12008670D01*
X6614574Y-12008670D02*
X6614574Y-11875336D01*
X6614574Y-11894384D02*
X6624098Y-11884860D01*
X6624098Y-11884860D02*
X6643146Y-11875336D01*
X6643146Y-11875336D02*
X6671717Y-11875336D01*
X6671717Y-11875336D02*
X6690765Y-11884860D01*
X6690765Y-11884860D02*
X6700289Y-11903908D01*
X6700289Y-11903908D02*
X6700289Y-12008670D01*
X6700289Y-11903908D02*
X6709812Y-11884860D01*
X6709812Y-11884860D02*
X6728860Y-11875336D01*
X6728860Y-11875336D02*
X6757431Y-11875336D01*
X6757431Y-11875336D02*
X6776479Y-11884860D01*
X6776479Y-11884860D02*
X6786003Y-11903908D01*
X6786003Y-11903908D02*
X6786003Y-12008670D01*
X7176479Y-11799146D02*
X7005051Y-12056289D01*
X7433622Y-11808670D02*
X7452670Y-11808670D01*
X7452670Y-11808670D02*
X7471717Y-11818194D01*
X7471717Y-11818194D02*
X7481241Y-11827717D01*
X7481241Y-11827717D02*
X7490765Y-11846765D01*
X7490765Y-11846765D02*
X7500289Y-11884860D01*
X7500289Y-11884860D02*
X7500289Y-11932479D01*
X7500289Y-11932479D02*
X7490765Y-11970574D01*
X7490765Y-11970574D02*
X7481241Y-11989622D01*
X7481241Y-11989622D02*
X7471717Y-11999146D01*
X7471717Y-11999146D02*
X7452670Y-12008670D01*
X7452670Y-12008670D02*
X7433622Y-12008670D01*
X7433622Y-12008670D02*
X7414574Y-11999146D01*
X7414574Y-11999146D02*
X7405051Y-11989622D01*
X7405051Y-11989622D02*
X7395527Y-11970574D01*
X7395527Y-11970574D02*
X7386003Y-11932479D01*
X7386003Y-11932479D02*
X7386003Y-11884860D01*
X7386003Y-11884860D02*
X7395527Y-11846765D01*
X7395527Y-11846765D02*
X7405051Y-11827717D01*
X7405051Y-11827717D02*
X7414574Y-11818194D01*
X7414574Y-11818194D02*
X7433622Y-11808670D01*
X7586003Y-11989622D02*
X7595527Y-11999146D01*
X7595527Y-11999146D02*
X7586003Y-12008670D01*
X7586003Y-12008670D02*
X7576479Y-11999146D01*
X7576479Y-11999146D02*
X7586003Y-11989622D01*
X7586003Y-11989622D02*
X7586003Y-12008670D01*
X7719336Y-11808670D02*
X7738384Y-11808670D01*
X7738384Y-11808670D02*
X7757432Y-11818194D01*
X7757432Y-11818194D02*
X7766955Y-11827717D01*
X7766955Y-11827717D02*
X7776479Y-11846765D01*
X7776479Y-11846765D02*
X7786003Y-11884860D01*
X7786003Y-11884860D02*
X7786003Y-11932479D01*
X7786003Y-11932479D02*
X7776479Y-11970574D01*
X7776479Y-11970574D02*
X7766955Y-11989622D01*
X7766955Y-11989622D02*
X7757432Y-11999146D01*
X7757432Y-11999146D02*
X7738384Y-12008670D01*
X7738384Y-12008670D02*
X7719336Y-12008670D01*
X7719336Y-12008670D02*
X7700289Y-11999146D01*
X7700289Y-11999146D02*
X7690765Y-11989622D01*
X7690765Y-11989622D02*
X7681241Y-11970574D01*
X7681241Y-11970574D02*
X7671717Y-11932479D01*
X7671717Y-11932479D02*
X7671717Y-11884860D01*
X7671717Y-11884860D02*
X7681241Y-11846765D01*
X7681241Y-11846765D02*
X7690765Y-11827717D01*
X7690765Y-11827717D02*
X7700289Y-11818194D01*
X7700289Y-11818194D02*
X7719336Y-11808670D01*
X7852670Y-11808670D02*
X7976479Y-11808670D01*
X7976479Y-11808670D02*
X7909813Y-11884860D01*
X7909813Y-11884860D02*
X7938384Y-11884860D01*
X7938384Y-11884860D02*
X7957432Y-11894384D01*
X7957432Y-11894384D02*
X7966955Y-11903908D01*
X7966955Y-11903908D02*
X7976479Y-11922955D01*
X7976479Y-11922955D02*
X7976479Y-11970574D01*
X7976479Y-11970574D02*
X7966955Y-11989622D01*
X7966955Y-11989622D02*
X7957432Y-11999146D01*
X7957432Y-11999146D02*
X7938384Y-12008670D01*
X7938384Y-12008670D02*
X7881241Y-12008670D01*
X7881241Y-12008670D02*
X7862194Y-11999146D01*
X7862194Y-11999146D02*
X7852670Y-11989622D01*
X8100289Y-11808670D02*
X8119336Y-11808670D01*
X8119336Y-11808670D02*
X8138384Y-11818194D01*
X8138384Y-11818194D02*
X8147908Y-11827717D01*
X8147908Y-11827717D02*
X8157432Y-11846765D01*
X8157432Y-11846765D02*
X8166955Y-11884860D01*
X8166955Y-11884860D02*
X8166955Y-11932479D01*
X8166955Y-11932479D02*
X8157432Y-11970574D01*
X8157432Y-11970574D02*
X8147908Y-11989622D01*
X8147908Y-11989622D02*
X8138384Y-11999146D01*
X8138384Y-11999146D02*
X8119336Y-12008670D01*
X8119336Y-12008670D02*
X8100289Y-12008670D01*
X8100289Y-12008670D02*
X8081241Y-11999146D01*
X8081241Y-11999146D02*
X8071717Y-11989622D01*
X8071717Y-11989622D02*
X8062194Y-11970574D01*
X8062194Y-11970574D02*
X8052670Y-11932479D01*
X8052670Y-11932479D02*
X8052670Y-11884860D01*
X8052670Y-11884860D02*
X8062194Y-11846765D01*
X8062194Y-11846765D02*
X8071717Y-11827717D01*
X8071717Y-11827717D02*
X8081241Y-11818194D01*
X8081241Y-11818194D02*
X8100289Y-11808670D01*
X8290765Y-11808670D02*
X8309813Y-11808670D01*
X8309813Y-11808670D02*
X8328860Y-11818194D01*
X8328860Y-11818194D02*
X8338384Y-11827717D01*
X8338384Y-11827717D02*
X8347908Y-11846765D01*
X8347908Y-11846765D02*
X8357432Y-11884860D01*
X8357432Y-11884860D02*
X8357432Y-11932479D01*
X8357432Y-11932479D02*
X8347908Y-11970574D01*
X8347908Y-11970574D02*
X8338384Y-11989622D01*
X8338384Y-11989622D02*
X8328860Y-11999146D01*
X8328860Y-11999146D02*
X8309813Y-12008670D01*
X8309813Y-12008670D02*
X8290765Y-12008670D01*
X8290765Y-12008670D02*
X8271717Y-11999146D01*
X8271717Y-11999146D02*
X8262194Y-11989622D01*
X8262194Y-11989622D02*
X8252670Y-11970574D01*
X8252670Y-11970574D02*
X8243146Y-11932479D01*
X8243146Y-11932479D02*
X8243146Y-11884860D01*
X8243146Y-11884860D02*
X8252670Y-11846765D01*
X8252670Y-11846765D02*
X8262194Y-11827717D01*
X8262194Y-11827717D02*
X8271717Y-11818194D01*
X8271717Y-11818194D02*
X8290765Y-11808670D01*
X8433622Y-11808670D02*
X8433622Y-11846765D01*
X8509813Y-11808670D02*
X8509813Y-11846765D01*
X8805051Y-12084860D02*
X8795527Y-12075336D01*
X8795527Y-12075336D02*
X8776479Y-12046765D01*
X8776479Y-12046765D02*
X8766956Y-12027717D01*
X8766956Y-12027717D02*
X8757432Y-11999146D01*
X8757432Y-11999146D02*
X8747908Y-11951527D01*
X8747908Y-11951527D02*
X8747908Y-11913432D01*
X8747908Y-11913432D02*
X8757432Y-11865813D01*
X8757432Y-11865813D02*
X8766956Y-11837241D01*
X8766956Y-11837241D02*
X8776479Y-11818194D01*
X8776479Y-11818194D02*
X8795527Y-11789622D01*
X8795527Y-11789622D02*
X8805051Y-11780098D01*
X8966956Y-11808670D02*
X8928860Y-11808670D01*
X8928860Y-11808670D02*
X8909813Y-11818194D01*
X8909813Y-11818194D02*
X8900289Y-11827717D01*
X8900289Y-11827717D02*
X8881241Y-11856289D01*
X8881241Y-11856289D02*
X8871718Y-11894384D01*
X8871718Y-11894384D02*
X8871718Y-11970574D01*
X8871718Y-11970574D02*
X8881241Y-11989622D01*
X8881241Y-11989622D02*
X8890765Y-11999146D01*
X8890765Y-11999146D02*
X8909813Y-12008670D01*
X8909813Y-12008670D02*
X8947908Y-12008670D01*
X8947908Y-12008670D02*
X8966956Y-11999146D01*
X8966956Y-11999146D02*
X8976479Y-11989622D01*
X8976479Y-11989622D02*
X8986003Y-11970574D01*
X8986003Y-11970574D02*
X8986003Y-11922955D01*
X8986003Y-11922955D02*
X8976479Y-11903908D01*
X8976479Y-11903908D02*
X8966956Y-11894384D01*
X8966956Y-11894384D02*
X8947908Y-11884860D01*
X8947908Y-11884860D02*
X8909813Y-11884860D01*
X8909813Y-11884860D02*
X8890765Y-11894384D01*
X8890765Y-11894384D02*
X8881241Y-11903908D01*
X8881241Y-11903908D02*
X8871718Y-11922955D01*
X9157432Y-11875336D02*
X9157432Y-12008670D01*
X9109813Y-11799146D02*
X9062194Y-11942003D01*
X9062194Y-11942003D02*
X9186003Y-11942003D01*
X9414575Y-12008670D02*
X9414575Y-11808670D01*
X9500289Y-12008670D02*
X9500289Y-11903908D01*
X9500289Y-11903908D02*
X9490765Y-11884860D01*
X9490765Y-11884860D02*
X9471718Y-11875336D01*
X9471718Y-11875336D02*
X9443146Y-11875336D01*
X9443146Y-11875336D02*
X9424099Y-11884860D01*
X9424099Y-11884860D02*
X9414575Y-11894384D01*
X9624099Y-12008670D02*
X9605051Y-11999146D01*
X9605051Y-11999146D02*
X9595527Y-11989622D01*
X9595527Y-11989622D02*
X9586003Y-11970574D01*
X9586003Y-11970574D02*
X9586003Y-11913432D01*
X9586003Y-11913432D02*
X9595527Y-11894384D01*
X9595527Y-11894384D02*
X9605051Y-11884860D01*
X9605051Y-11884860D02*
X9624099Y-11875336D01*
X9624099Y-11875336D02*
X9652670Y-11875336D01*
X9652670Y-11875336D02*
X9671718Y-11884860D01*
X9671718Y-11884860D02*
X9681241Y-11894384D01*
X9681241Y-11894384D02*
X9690765Y-11913432D01*
X9690765Y-11913432D02*
X9690765Y-11970574D01*
X9690765Y-11970574D02*
X9681241Y-11989622D01*
X9681241Y-11989622D02*
X9671718Y-11999146D01*
X9671718Y-11999146D02*
X9652670Y-12008670D01*
X9652670Y-12008670D02*
X9624099Y-12008670D01*
X9805051Y-12008670D02*
X9786003Y-11999146D01*
X9786003Y-11999146D02*
X9776480Y-11980098D01*
X9776480Y-11980098D02*
X9776480Y-11808670D01*
X9957432Y-11999146D02*
X9938384Y-12008670D01*
X9938384Y-12008670D02*
X9900289Y-12008670D01*
X9900289Y-12008670D02*
X9881241Y-11999146D01*
X9881241Y-11999146D02*
X9871718Y-11980098D01*
X9871718Y-11980098D02*
X9871718Y-11903908D01*
X9871718Y-11903908D02*
X9881241Y-11884860D01*
X9881241Y-11884860D02*
X9900289Y-11875336D01*
X9900289Y-11875336D02*
X9938384Y-11875336D01*
X9938384Y-11875336D02*
X9957432Y-11884860D01*
X9957432Y-11884860D02*
X9966956Y-11903908D01*
X9966956Y-11903908D02*
X9966956Y-11922955D01*
X9966956Y-11922955D02*
X9871718Y-11942003D01*
X10043146Y-11999146D02*
X10062194Y-12008670D01*
X10062194Y-12008670D02*
X10100289Y-12008670D01*
X10100289Y-12008670D02*
X10119337Y-11999146D01*
X10119337Y-11999146D02*
X10128861Y-11980098D01*
X10128861Y-11980098D02*
X10128861Y-11970574D01*
X10128861Y-11970574D02*
X10119337Y-11951527D01*
X10119337Y-11951527D02*
X10100289Y-11942003D01*
X10100289Y-11942003D02*
X10071718Y-11942003D01*
X10071718Y-11942003D02*
X10052670Y-11932479D01*
X10052670Y-11932479D02*
X10043146Y-11913432D01*
X10043146Y-11913432D02*
X10043146Y-11903908D01*
X10043146Y-11903908D02*
X10052670Y-11884860D01*
X10052670Y-11884860D02*
X10071718Y-11875336D01*
X10071718Y-11875336D02*
X10100289Y-11875336D01*
X10100289Y-11875336D02*
X10119337Y-11884860D01*
X10195527Y-12084860D02*
X10205051Y-12075336D01*
X10205051Y-12075336D02*
X10224099Y-12046765D01*
X10224099Y-12046765D02*
X10233622Y-12027717D01*
X10233622Y-12027717D02*
X10243146Y-11999146D01*
X10243146Y-11999146D02*
X10252670Y-11951527D01*
X10252670Y-11951527D02*
X10252670Y-11913432D01*
X10252670Y-11913432D02*
X10243146Y-11865813D01*
X10243146Y-11865813D02*
X10233622Y-11837241D01*
X10233622Y-11837241D02*
X10224099Y-11818194D01*
X10224099Y-11818194D02*
X10205051Y-11789622D01*
X10205051Y-11789622D02*
X10195527Y-11780098D01*
M02*
