%TF.GenerationSoftware,KiCad,Pcbnew,8.0.6*%
%TF.CreationDate,2025-01-05T14:05:32+01:00*%
%TF.ProjectId,snes_cart_pcb_pga2350,736e6573-5f63-4617-9274-5f7063625f70,rev?*%
%TF.SameCoordinates,Original*%
%TF.FileFunction,Copper,L1,Top*%
%TF.FilePolarity,Positive*%
%FSLAX46Y46*%
G04 Gerber Fmt 4.6, Leading zero omitted, Abs format (unit mm)*
G04 Created by KiCad (PCBNEW 8.0.6) date 2025-01-05 14:05:32*
%MOMM*%
%LPD*%
G01*
G04 APERTURE LIST*
G04 Aperture macros list*
%AMFreePoly0*
4,1,19,0.500000,-0.750000,0.000000,-0.750000,0.000000,-0.744911,-0.071157,-0.744911,-0.207708,-0.704816,-0.327430,-0.627875,-0.420627,-0.520320,-0.479746,-0.390866,-0.500000,-0.250000,-0.500000,0.250000,-0.479746,0.390866,-0.420627,0.520320,-0.327430,0.627875,-0.207708,0.704816,-0.071157,0.744911,0.000000,0.744911,0.000000,0.750000,0.500000,0.750000,0.500000,-0.750000,0.500000,-0.750000,
$1*%
%AMFreePoly1*
4,1,19,0.000000,0.744911,0.071157,0.744911,0.207708,0.704816,0.327430,0.627875,0.420627,0.520320,0.479746,0.390866,0.500000,0.250000,0.500000,-0.250000,0.479746,-0.390866,0.420627,-0.520320,0.327430,-0.627875,0.207708,-0.704816,0.071157,-0.744911,0.000000,-0.744911,0.000000,-0.750000,-0.500000,-0.750000,-0.500000,0.750000,0.000000,0.750000,0.000000,0.744911,0.000000,0.744911,
$1*%
G04 Aperture macros list end*
%TA.AperFunction,SMDPad,CuDef*%
%ADD10R,1.000000X3.150000*%
%TD*%
%TA.AperFunction,SMDPad,CuDef*%
%ADD11R,3.150000X1.000000*%
%TD*%
%TA.AperFunction,ConnectorPad*%
%ADD12R,1.501140X7.000240*%
%TD*%
%TA.AperFunction,ConnectorPad*%
%ADD13R,1.998980X7.000240*%
%TD*%
%TA.AperFunction,SMDPad,CuDef*%
%ADD14FreePoly0,0.000000*%
%TD*%
%TA.AperFunction,SMDPad,CuDef*%
%ADD15FreePoly1,0.000000*%
%TD*%
%TA.AperFunction,ComponentPad*%
%ADD16C,2.032000*%
%TD*%
%TA.AperFunction,SMDPad,CuDef*%
%ADD17R,1.550000X1.300000*%
%TD*%
%TA.AperFunction,ViaPad*%
%ADD18C,0.600000*%
%TD*%
%TA.AperFunction,Conductor*%
%ADD19C,0.100000*%
%TD*%
G04 APERTURE END LIST*
D10*
%TO.P,J5,1,Pin_1*%
%TO.N,/CPU_CLK*%
X127000000Y-71120000D03*
%TO.P,J5,2,Pin_2*%
%TO.N,/PA0*%
X127000000Y-66070000D03*
%TO.P,J5,3,Pin_3*%
%TO.N,/PA1*%
X129540000Y-71120000D03*
%TO.P,J5,4,Pin_4*%
%TO.N,/PA2*%
X129540000Y-66070000D03*
%TO.P,J5,5,Pin_5*%
%TO.N,/PA3*%
X132080000Y-71120000D03*
%TO.P,J5,6,Pin_6*%
%TO.N,/PA4*%
X132080000Y-66070000D03*
%TO.P,J5,7,Pin_7*%
%TO.N,/PA5*%
X134620000Y-71120000D03*
%TO.P,J5,8,Pin_8*%
%TO.N,/LINE_L*%
X134620000Y-66070000D03*
%TO.P,J5,9,Pin_9*%
%TO.N,/LINE_R*%
X137160000Y-71120000D03*
%TO.P,J5,10,Pin_10*%
%TO.N,/GP41*%
X137160000Y-66070000D03*
%TO.P,J5,11,Pin_11*%
%TO.N,/GP42*%
X139700000Y-71120000D03*
%TO.P,J5,12,Pin_12*%
%TO.N,/GP43*%
X139700000Y-66070000D03*
%TO.P,J5,13,Pin_13*%
%TO.N,/GP44*%
X142240000Y-71120000D03*
%TO.P,J5,14,Pin_14*%
%TO.N,/GP45*%
X142240000Y-66070000D03*
%TO.P,J5,15,Pin_15*%
%TO.N,/GP46*%
X144780000Y-71120000D03*
%TO.P,J5,16,Pin_16*%
%TO.N,/GP47*%
X144780000Y-66070000D03*
%TO.P,J5,17,Pin_17*%
%TO.N,unconnected-(J5-Pin_17-Pad17)*%
X147320000Y-71120000D03*
%TO.P,J5,18,Pin_18*%
%TO.N,unconnected-(J5-Pin_18-Pad18)*%
X147320000Y-66070000D03*
%TD*%
D11*
%TO.P,J3,1,Pin_1*%
%TO.N,/USB_VBUS*%
X88930000Y-33020000D03*
%TO.P,J3,2,Pin_2*%
%TO.N,/USB_DP*%
X93980000Y-33020000D03*
%TO.P,J3,3,Pin_3*%
%TO.N,/USB_DM*%
X88930000Y-35560000D03*
%TO.P,J3,4,Pin_4*%
%TO.N,/GND*%
X93980000Y-35560000D03*
%TD*%
D12*
%TO.P,J1,31,LINE_L*%
%TO.N,/LINE_L*%
X144349480Y-105580180D03*
%TO.P,J1,30,PA4*%
%TO.N,/PA4*%
X141850120Y-105580180D03*
%TO.P,J1,29,PA2*%
%TO.N,/PA2*%
X139350760Y-105580180D03*
%TO.P,J1,28,PA0*%
%TO.N,/PA0*%
X136851400Y-105580180D03*
D13*
%TO.P,J1,27,VCC*%
%TO.N,/VCC*%
X129599700Y-105580180D03*
D12*
%TO.P,J1,26,/RESET*%
%TO.N,/{slash}RESET*%
X126851420Y-105580180D03*
%TO.P,J1,25,CIC_P7_RESET*%
%TO.N,/CIC_P7_RESET*%
X124349520Y-105580180D03*
%TO.P,J1,24,CIC_P1_DOUT*%
%TO.N,/CIC_P1_DOUT*%
X121850160Y-105580180D03*
%TO.P,J1,23,/RD*%
%TO.N,/{slash}RD*%
X119350800Y-105580180D03*
%TO.P,J1,22,D3*%
%TO.N,/D3*%
X116851440Y-105580180D03*
%TO.P,J1,21,D2*%
%TO.N,/D2*%
X114349540Y-105580180D03*
%TO.P,J1,20,D1*%
%TO.N,/D1*%
X111850180Y-105580180D03*
%TO.P,J1,19,D0*%
%TO.N,/D0*%
X109350820Y-105580180D03*
%TO.P,J1,18,/IRQ*%
%TO.N,/{slash}IRQ*%
X106851460Y-105580180D03*
%TO.P,J1,17,A0*%
%TO.N,/A0*%
X104349560Y-105580180D03*
%TO.P,J1,16,A1*%
%TO.N,/A1*%
X101850200Y-105580180D03*
%TO.P,J1,15,A2*%
%TO.N,/A2*%
X99350840Y-105580180D03*
%TO.P,J1,14,A3*%
%TO.N,/A3*%
X96848940Y-105580180D03*
%TO.P,J1,13,A4*%
%TO.N,/A4*%
X94349580Y-105580180D03*
%TO.P,J1,12,A5*%
%TO.N,/A5*%
X91850220Y-105580180D03*
%TO.P,J1,11,A6*%
%TO.N,/A6*%
X89350860Y-105580180D03*
%TO.P,J1,10,A7*%
%TO.N,/A7*%
X86848960Y-105580180D03*
%TO.P,J1,9,A8*%
%TO.N,/A8*%
X84349600Y-105580180D03*
%TO.P,J1,8,A9*%
%TO.N,/A9*%
X81850240Y-105580180D03*
%TO.P,J1,7,A10*%
%TO.N,/A10*%
X79350880Y-105580180D03*
%TO.P,J1,6,A11*%
%TO.N,/A11*%
X76848980Y-105580180D03*
D13*
%TO.P,J1,5,GND*%
%TO.N,/GND*%
X74100700Y-105580180D03*
D12*
%TO.P,J1,4,/PARD*%
%TO.N,/{slash}PARD*%
X66849000Y-105580180D03*
%TO.P,J1,3,PA6*%
%TO.N,/PA6*%
X64349640Y-105580180D03*
%TO.P,J1,2,EXPAND*%
%TO.N,/EXPAND*%
X61850280Y-105580180D03*
%TO.P,J1,1,SYS_CLK*%
%TO.N,/SYS_CLK*%
X59350920Y-105580180D03*
%TD*%
D14*
%TO.P,JP1,1,A*%
%TO.N,/USB_VBUS*%
X77440000Y-43180000D03*
D15*
%TO.P,JP1,2,B*%
%TO.N,/VBUS*%
X78740000Y-43180000D03*
%TD*%
D14*
%TO.P,JP2,1,A*%
%TO.N,/VCC*%
X77440000Y-48260000D03*
D15*
%TO.P,JP2,2,B*%
%TO.N,/VBUS*%
X78740000Y-48260000D03*
%TD*%
D11*
%TO.P,J2,1,Pin_1*%
%TO.N,/GND*%
X111790000Y-33020000D03*
%TO.P,J2,2,Pin_2*%
%TO.N,/SWCLK*%
X116840000Y-33020000D03*
%TO.P,J2,3,Pin_3*%
%TO.N,/SWDIO*%
X111790000Y-35560000D03*
%TO.P,J2,4,Pin_4*%
%TO.N,/3V3*%
X116840000Y-35560000D03*
%TD*%
D16*
%TO.P,U1,A1,PIN_A1*%
%TO.N,/GND*%
X90170000Y-54610000D03*
%TO.P,U1,A2,PIN_A2*%
%TO.N,/A1*%
X92710000Y-54610000D03*
%TO.P,U1,A3,PIN_A3*%
%TO.N,/VBUS*%
X95250000Y-54610000D03*
%TO.P,U1,A4,PIN_A4*%
%TO.N,/3V3_EN*%
X97790000Y-54610000D03*
%TO.P,U1,A5,PIN_A5*%
%TO.N,/RUN*%
X100330000Y-54610000D03*
%TO.P,U1,A6,PIN_A6*%
%TO.N,/USB_DP*%
X102870000Y-54610000D03*
%TO.P,U1,A7,PIN_A7*%
%TO.N,/USB_DM*%
X105410000Y-54610000D03*
%TO.P,U1,A8,PIN_A8*%
%TO.N,/BOOTSEL*%
X107950000Y-54610000D03*
%TO.P,U1,A9,PIN_A9*%
%TO.N,/GP46*%
X110490000Y-54610000D03*
%TO.P,U1,A10,PIN_A10*%
%TO.N,/GND*%
X113030000Y-54610000D03*
%TO.P,U1,B1,PIN_B1*%
%TO.N,/A2*%
X90170000Y-57150000D03*
%TO.P,U1,B2,PIN_B2*%
%TO.N,/GND*%
X92710000Y-57150000D03*
%TO.P,U1,B3,PIN_B3*%
%TO.N,/A0*%
X95250000Y-57150000D03*
%TO.P,U1,B4,PIN_B4*%
%TO.N,/3V3*%
X97790000Y-57150000D03*
%TO.P,U1,B5,PIN_B5*%
%TO.N,/ADC_VREF*%
X100330000Y-57150000D03*
%TO.P,U1,B6,PIN_B6*%
%TO.N,/SWCLK*%
X102870000Y-57150000D03*
%TO.P,U1,B7,PIN_B7*%
%TO.N,/SWDIO*%
X105410000Y-57150000D03*
%TO.P,U1,B8,PIN_B8*%
%TO.N,/GP47*%
X107950000Y-57150000D03*
%TO.P,U1,B9,PIN_B9*%
%TO.N,/GND*%
X110490000Y-57150000D03*
%TO.P,U1,B10,PIN_B10*%
%TO.N,/GP45*%
X113030000Y-57150000D03*
%TO.P,U1,C1,PIN_C1*%
%TO.N,/A4*%
X90170000Y-59690000D03*
%TO.P,U1,C2,PIN_C2*%
%TO.N,/A3*%
X92710000Y-59690000D03*
%TO.P,U1,C9,PIN_C9*%
%TO.N,/GP43*%
X110490000Y-59690000D03*
%TO.P,U1,C10,PIN_C10*%
%TO.N,/GP44*%
X113030000Y-59690000D03*
%TO.P,U1,D1,PIN_D1*%
%TO.N,/A6*%
X90170000Y-62230000D03*
%TO.P,U1,D2,PIN_D2*%
%TO.N,/A5*%
X92710000Y-62230000D03*
%TO.P,U1,D9,PIN_D9*%
%TO.N,/GP41*%
X110490000Y-62230000D03*
%TO.P,U1,D10,PIN_D10*%
%TO.N,/GP42*%
X113030000Y-62230000D03*
%TO.P,U1,E1,PIN_E1*%
%TO.N,/A8*%
X90170000Y-64770000D03*
%TO.P,U1,E2,PIN_E2*%
%TO.N,/A7*%
X92710000Y-64770000D03*
%TO.P,U1,E9,PIN_E9*%
%TO.N,/CIC_P6_CLK*%
X110490000Y-64770000D03*
%TO.P,U1,E10,PIN_E10*%
%TO.N,/CIC_P7_RESET*%
X113030000Y-64770000D03*
%TO.P,U1,F1,PIN_F1*%
%TO.N,/A10*%
X90170000Y-67310000D03*
%TO.P,U1,F2,PIN_F2*%
%TO.N,/A9*%
X92710000Y-67310000D03*
%TO.P,U1,F9,PIN_F9*%
%TO.N,/CIC_P1_DOUT*%
X110490000Y-67310000D03*
%TO.P,U1,F10,PIN_F10*%
%TO.N,/CIC_P1_DIN*%
X113030000Y-67310000D03*
%TO.P,U1,G1,PIN_G1*%
%TO.N,/A12*%
X90170000Y-69850000D03*
%TO.P,U1,G2,PIN_G2*%
%TO.N,/A11*%
X92710000Y-69850000D03*
%TO.P,U1,G9,PIN_G9*%
%TO.N,/{slash}RESET*%
X110490000Y-69850000D03*
%TO.P,U1,G10,PIN_G10*%
%TO.N,/{slash}IRQ*%
X113030000Y-69850000D03*
%TO.P,U1,H1,PIN_H1*%
%TO.N,/A14*%
X90170000Y-72390000D03*
%TO.P,U1,H2,PIN_H2*%
%TO.N,/A13*%
X92710000Y-72390000D03*
%TO.P,U1,H9,PIN_H9*%
%TO.N,/{slash}RD*%
X110490000Y-72390000D03*
%TO.P,U1,H10,PIN_H10*%
%TO.N,/{slash}WR*%
X113030000Y-72390000D03*
%TO.P,U1,J1,PIN_J1*%
%TO.N,/A16*%
X90170000Y-74930000D03*
%TO.P,U1,J2,PIN_J2*%
%TO.N,/A15*%
X92710000Y-74930000D03*
%TO.P,U1,J3,PIN_J3*%
%TO.N,/A19*%
X95250000Y-74930000D03*
%TO.P,U1,J4,PIN_J4*%
%TO.N,/A21*%
X97790000Y-74930000D03*
%TO.P,U1,J5,PIN_J5*%
%TO.N,/A23*%
X100330000Y-74930000D03*
%TO.P,U1,J6,PIN_J6*%
%TO.N,/D1*%
X102870000Y-74930000D03*
%TO.P,U1,J7,PIN_J7*%
%TO.N,/D3*%
X105410000Y-74930000D03*
%TO.P,U1,J8,PIN_J8*%
%TO.N,/D5*%
X107950000Y-74930000D03*
%TO.P,U1,J9,PIN_J9*%
%TO.N,/D7*%
X110490000Y-74930000D03*
%TO.P,U1,J10,PIN_J10*%
%TO.N,/{slash}ROMSEL*%
X113030000Y-74930000D03*
%TO.P,U1,K1,PIN_K1*%
%TO.N,/GND*%
X90170000Y-77470000D03*
%TO.P,U1,K2,PIN_K2*%
%TO.N,/A17*%
X92710000Y-77470000D03*
%TO.P,U1,K3,PIN_K3*%
%TO.N,/A18*%
X95250000Y-77470000D03*
%TO.P,U1,K4,PIN_K4*%
%TO.N,/A20*%
X97790000Y-77470000D03*
%TO.P,U1,K5,PIN_K5*%
%TO.N,/A22*%
X100330000Y-77470000D03*
%TO.P,U1,K6,PIN_K6*%
%TO.N,/D0*%
X102870000Y-77470000D03*
%TO.P,U1,K7,PIN_K7*%
%TO.N,/D2*%
X105410000Y-77470000D03*
%TO.P,U1,K8,PIN_K8*%
%TO.N,/D4*%
X107950000Y-77470000D03*
%TO.P,U1,K9,PIN_K9*%
%TO.N,/D6*%
X110490000Y-77470000D03*
%TO.P,U1,K10,PIN_K10*%
%TO.N,/GND*%
X113030000Y-77470000D03*
%TD*%
D17*
%TO.P,SW1,1,1*%
%TO.N,/GND*%
X133185000Y-40930000D03*
X141135000Y-40930000D03*
%TO.P,SW1,2,2*%
%TO.N,/BOOTSEL*%
X133185000Y-45430000D03*
X141135000Y-45430000D03*
%TD*%
D10*
%TO.P,J4,1,Pin_1*%
%TO.N,/SYS_CLK*%
X55880000Y-83820000D03*
%TO.P,J4,2,Pin_2*%
%TO.N,/{slash}WRAM*%
X55880000Y-78770000D03*
%TO.P,J4,3,Pin_3*%
%TO.N,/EXPAND*%
X58420000Y-83820000D03*
%TO.P,J4,4,Pin_4*%
%TO.N,/REFRESH*%
X58420000Y-78770000D03*
%TO.P,J4,5,Pin_5*%
%TO.N,/PA6*%
X60960000Y-83820000D03*
%TO.P,J4,6,Pin_6*%
%TO.N,/PA7*%
X60960000Y-78770000D03*
%TO.P,J4,7,Pin_7*%
%TO.N,/{slash}PARD*%
X63500000Y-83820000D03*
%TO.P,J4,8,Pin_8*%
%TO.N,/{slash}PAWR*%
X63500000Y-78770000D03*
%TO.P,J4,9,Pin_9*%
%TO.N,unconnected-(J4-Pin_9-Pad9)*%
X66040000Y-83820000D03*
%TO.P,J4,10,Pin_10*%
%TO.N,unconnected-(J4-Pin_10-Pad10)*%
X66040000Y-78770000D03*
%TO.P,J4,11,Pin_11*%
%TO.N,unconnected-(J4-Pin_11-Pad11)*%
X68580000Y-83820000D03*
%TO.P,J4,12,Pin_12*%
%TO.N,unconnected-(J4-Pin_12-Pad12)*%
X68580000Y-78770000D03*
%TO.P,J4,13,Pin_13*%
%TO.N,unconnected-(J4-Pin_13-Pad13)*%
X71120000Y-83820000D03*
%TO.P,J4,14,Pin_14*%
%TO.N,unconnected-(J4-Pin_14-Pad14)*%
X71120000Y-78770000D03*
%TO.P,J4,15,Pin_15*%
%TO.N,unconnected-(J4-Pin_15-Pad15)*%
X73660000Y-83820000D03*
%TO.P,J4,16,Pin_16*%
%TO.N,unconnected-(J4-Pin_16-Pad16)*%
X73660000Y-78770000D03*
%TD*%
D18*
%TO.N,/USB_VBUS*%
X81651650Y-38471650D03*
%TO.N,/CIC_P7_RESET*%
X125573323Y-101067846D03*
%TO.N,/{slash}WRAM*%
X56892100Y-80596700D03*
%TO.N,/LINE_R*%
X144494000Y-99780400D03*
%TO.N,/{slash}IRQ*%
X106191704Y-101274297D03*
%TO.N,/REFRESH*%
X59432100Y-80596700D03*
%TO.N,/{slash}PAWR*%
X66790700Y-99780400D03*
%TO.N,/PA3*%
X132709000Y-73200800D03*
%TO.N,/PA5*%
X134620000Y-73213000D03*
%TO.N,/CIC_P1_DOUT*%
X120554179Y-101141336D03*
%TO.N,/PA1*%
X130236000Y-73198700D03*
%TO.N,/PA7*%
X61972100Y-80596700D03*
%TO.N,/CPU_CLK*%
X126321000Y-76984000D03*
%TO.N,/SWDIO*%
X109712000Y-35981700D03*
%TO.N,/USB_DM*%
X91617900Y-40348400D03*
%TO.N,/GP47*%
X143285000Y-63565200D03*
%TO.N,/GP46*%
X138677800Y-62944400D03*
%TO.N,/A3*%
X93400400Y-99584200D03*
%TO.N,/A1*%
X81368600Y-85169500D03*
%TO.N,/A0*%
X104348340Y-101003550D03*
%TO.N,/A2*%
X81753800Y-85938800D03*
%TO.N,/A6*%
X81834900Y-93366000D03*
%TO.N,/A4*%
X82041100Y-89519900D03*
%TO.N,/A13*%
X84349000Y-81481000D03*
%TO.N,/VCC*%
X131050140Y-100657575D03*
X101296000Y-61062000D03*
%TO.N,/A5*%
X82646800Y-93152300D03*
%TO.N,/{slash}ROMSEL*%
X108581000Y-81060200D03*
%TO.N,/A9*%
X82517200Y-100988000D03*
X86359400Y-75137100D03*
%TO.N,/GND*%
X80000500Y-85746300D03*
X72857338Y-101156625D03*
%TO.N,/A8*%
X82616200Y-94995100D03*
%TO.N,/A10*%
X79350900Y-98951800D03*
%TO.N,/A7*%
X83870400Y-99158000D03*
%TD*%
D19*
%TO.N,/USB_VBUS*%
X81651650Y-38471650D02*
X77440000Y-42683300D01*
%TO.N,/A0*%
X104348340Y-101003550D02*
X104350000Y-101005210D01*
X104350000Y-101005210D02*
X104350000Y-103002500D01*
%TO.N,/GND*%
X72857338Y-101156625D02*
X73528713Y-101828000D01*
X73528713Y-101828000D02*
X74100700Y-101828000D01*
X74100700Y-101828000D02*
X74100700Y-105580200D01*
%TO.N,/{slash}IRQ*%
X106191704Y-101274297D02*
X106745407Y-101828000D01*
X106745407Y-101828000D02*
X106852000Y-101828000D01*
X106852000Y-101828000D02*
X106852000Y-102766000D01*
%TO.N,/CIC_P1_DOUT*%
X120554179Y-101141336D02*
X121838438Y-101141336D01*
X121838438Y-101141336D02*
X121850000Y-101152898D01*
X121850000Y-101152898D02*
X121850000Y-102766000D01*
%TO.N,/VCC*%
X131050140Y-100657575D02*
X129686644Y-100657575D01*
X129686644Y-100657575D02*
X129600000Y-100744219D01*
X129600000Y-100744219D02*
X129600000Y-102766000D01*
%TO.N,/CIC_P7_RESET*%
X124354323Y-101067846D02*
X124350000Y-101072169D01*
X124350000Y-101072169D02*
X124350000Y-102766000D01*
%TO.N,/{slash}RESET*%
X110490000Y-69850000D02*
X111762000Y-71122300D01*
X126851000Y-86957000D02*
X126851000Y-103066000D01*
X113554000Y-73660000D02*
X126851000Y-86957000D01*
X126851000Y-103066000D02*
X126851000Y-103904000D01*
X126851000Y-103066000D02*
X126851400Y-103066400D01*
X111762000Y-72961900D02*
X112460000Y-73660000D01*
X111762000Y-71122300D02*
X111762000Y-72961900D01*
X126851400Y-103066400D02*
X126851400Y-105580200D01*
X112460000Y-73660000D02*
X113554000Y-73660000D01*
%TO.N,/CIC_P7_RESET*%
X124350000Y-102766000D02*
X124350000Y-103704000D01*
X124349500Y-102766500D02*
X124349500Y-105580200D01*
X124350000Y-102766000D02*
X124349500Y-102766500D01*
%TO.N,/{slash}WRAM*%
X55880000Y-80596700D02*
X56892100Y-80596700D01*
X55880000Y-78770000D02*
X55880000Y-80596700D01*
%TO.N,/{slash}PARD*%
X66239000Y-101218000D02*
X66849000Y-101828000D01*
X66849000Y-105580000D02*
X66849000Y-105580200D01*
X66239000Y-88385700D02*
X66239000Y-101218000D01*
X63500000Y-83820000D02*
X63500000Y-85646700D01*
X63500000Y-85646700D02*
X66239000Y-88385700D01*
X66849000Y-101828000D02*
X66849000Y-105580000D01*
%TO.N,/LINE_R*%
X137160000Y-71120000D02*
X137160000Y-72946700D01*
X137160000Y-72946700D02*
X144494000Y-80280800D01*
X144494000Y-80280800D02*
X144494000Y-99780400D01*
%TO.N,/LINE_L*%
X144350000Y-101828000D02*
X144350000Y-103704000D01*
X144350000Y-103704000D02*
X144349500Y-103704500D01*
X135372000Y-73351300D02*
X143942000Y-81922000D01*
X134620000Y-66070000D02*
X134620000Y-67896700D01*
X135372000Y-68648400D02*
X135372000Y-73351300D01*
X143942000Y-81922000D02*
X143942000Y-101421000D01*
X134620000Y-67896700D02*
X135372000Y-68648400D01*
X143942000Y-101421000D02*
X144350000Y-101828000D01*
X144350000Y-103704000D02*
X144350000Y-105580000D01*
X144349500Y-103704500D02*
X144349500Y-105580200D01*
%TO.N,/{slash}IRQ*%
X106851500Y-102766500D02*
X106851500Y-105580200D01*
X106852000Y-102766000D02*
X106851500Y-102766500D01*
X106852000Y-102766000D02*
X106852000Y-103704000D01*
%TO.N,/PA2*%
X130292000Y-71998600D02*
X139351000Y-81057700D01*
X139351000Y-93318800D02*
X139351000Y-105580000D01*
X129540000Y-66070000D02*
X129540000Y-67896700D01*
X139351000Y-81057700D02*
X139351000Y-93318800D01*
X139350800Y-93319000D02*
X139350800Y-105580200D01*
X139351000Y-93318800D02*
X139350800Y-93319000D01*
X129540000Y-67896700D02*
X130292000Y-68648400D01*
X130292000Y-68648400D02*
X130292000Y-71998600D01*
%TO.N,/REFRESH*%
X58420000Y-80596700D02*
X59432100Y-80596700D01*
X58420000Y-78770000D02*
X58420000Y-80596700D01*
%TO.N,/PA4*%
X141850000Y-81561500D02*
X133868000Y-73579700D01*
X133868000Y-73579700D02*
X133868000Y-69685000D01*
X141850000Y-93570700D02*
X141850100Y-93570800D01*
X141850000Y-93570700D02*
X141850000Y-81561500D01*
X133868000Y-69685000D02*
X132080000Y-67896700D01*
X132080000Y-67896700D02*
X132080000Y-66070000D01*
X141850100Y-93570800D02*
X141850100Y-105580200D01*
X141850000Y-105580000D02*
X141850000Y-93570700D01*
%TO.N,/SYS_CLK*%
X59350900Y-105580000D02*
X59350900Y-105580200D01*
X59350900Y-89117600D02*
X59350900Y-105580000D01*
X55880000Y-83820000D02*
X55880000Y-85646700D01*
X55880000Y-85646700D02*
X59350900Y-89117600D01*
%TO.N,/{slash}PAWR*%
X63500000Y-80596700D02*
X64251700Y-81348400D01*
X64251700Y-81348400D02*
X64251700Y-85791500D01*
X64251700Y-85791500D02*
X66790700Y-88330500D01*
X63500000Y-78770000D02*
X63500000Y-80596700D01*
X66790700Y-88330500D02*
X66790700Y-99780400D01*
%TO.N,/PA3*%
X132080000Y-72946700D02*
X132080000Y-71120000D01*
X132709000Y-73200800D02*
X132455000Y-72946700D01*
X132455000Y-72946700D02*
X132080000Y-72946700D01*
%TO.N,/PA5*%
X134620000Y-73213000D02*
X134620000Y-71120000D01*
%TO.N,/CIC_P1_DOUT*%
X121850200Y-102766200D02*
X121850200Y-105580200D01*
X121850000Y-102766000D02*
X121850200Y-102766200D01*
X121850000Y-102766000D02*
X121850000Y-103704000D01*
%TO.N,/PA0*%
X136851000Y-94961700D02*
X136851400Y-94962100D01*
X136851000Y-84343500D02*
X136851000Y-94961700D01*
X127000000Y-67896700D02*
X127752000Y-68648400D01*
X127752000Y-75243800D02*
X136851000Y-84343500D01*
X127752000Y-68648400D02*
X127752000Y-75243800D01*
X127000000Y-66070000D02*
X127000000Y-67896700D01*
X136851400Y-94962100D02*
X136851400Y-105580200D01*
X136851000Y-94961700D02*
X136851000Y-105580000D01*
%TO.N,/PA1*%
X130236000Y-73198700D02*
X129984000Y-72946700D01*
X129540000Y-72946700D02*
X129540000Y-71120000D01*
X129984000Y-72946700D02*
X129540000Y-72946700D01*
%TO.N,/PA6*%
X60960000Y-83820000D02*
X60960000Y-85646700D01*
X64349600Y-89036300D02*
X64349600Y-105580000D01*
X64349600Y-105580000D02*
X64349600Y-105580200D01*
X60960000Y-85646700D02*
X64349600Y-89036300D01*
%TO.N,/PA7*%
X60960000Y-78770000D02*
X60960000Y-80596700D01*
X60960000Y-80596700D02*
X61972100Y-80596700D01*
%TO.N,/CPU_CLK*%
X127000000Y-72946700D02*
X126321000Y-73625600D01*
X126321000Y-73625600D02*
X126321000Y-76984000D01*
X127000000Y-71120000D02*
X127000000Y-72946700D01*
%TO.N,/EXPAND*%
X61850300Y-89077000D02*
X61850300Y-105580000D01*
X61850300Y-105580000D02*
X61850300Y-105580200D01*
X58420000Y-85646700D02*
X61850300Y-89077000D01*
X58420000Y-83820000D02*
X58420000Y-85646700D01*
%TO.N,/SWDIO*%
X109712000Y-35981700D02*
X109963000Y-35730000D01*
X109963000Y-35560000D02*
X111790000Y-35560000D01*
X109963000Y-35730000D02*
X109963000Y-35560000D01*
%TO.N,/SWCLK*%
X116840000Y-33020000D02*
X115013000Y-33020000D01*
X104140000Y-45719900D02*
X104140000Y-55879900D01*
X115013000Y-33020000D02*
X115013000Y-34846700D01*
X104140000Y-55879900D02*
X102870000Y-57150000D01*
X115013000Y-34846700D02*
X104140000Y-45719900D01*
%TO.N,/3V3*%
X99060700Y-58420700D02*
X103392000Y-58420700D01*
X104140000Y-56621000D02*
X104881000Y-55880000D01*
X106682000Y-55135300D02*
X106682000Y-43891700D01*
X104881000Y-55880000D02*
X105937000Y-55880000D01*
X103392000Y-58420700D02*
X104140000Y-57673100D01*
X106682000Y-43891700D02*
X115013000Y-35560000D01*
X115013000Y-35560000D02*
X116840000Y-35560000D01*
X97790000Y-57150000D02*
X99060700Y-58420700D01*
X104140000Y-57673100D02*
X104140000Y-56621000D01*
X105937000Y-55880000D02*
X106682000Y-55135300D01*
%TO.N,/USB_DM*%
X90756700Y-35560000D02*
X90756700Y-39487200D01*
X88930000Y-35560000D02*
X90756700Y-35560000D01*
X90756700Y-39487200D02*
X91617900Y-40348400D01*
%TO.N,/USB_DP*%
X92153300Y-40103600D02*
X92153300Y-33020000D01*
X102870000Y-50820300D02*
X92153300Y-40103600D01*
X102870000Y-54610000D02*
X102870000Y-50820300D01*
X92153300Y-33020000D02*
X93980000Y-33020000D01*
%TO.N,/USB_VBUS*%
X77440000Y-42683300D02*
X77440000Y-43180000D01*
X87103300Y-33020000D02*
X81651650Y-38471650D01*
X88930000Y-33020000D02*
X87103300Y-33020000D01*
%TO.N,/VBUS*%
X78740000Y-43180000D02*
X78740000Y-48260000D01*
%TO.N,/BOOTSEL*%
X141135000Y-45430000D02*
X140108000Y-45430000D01*
X107950000Y-54610000D02*
X109220000Y-55880000D01*
X133185000Y-45430000D02*
X133185000Y-45880800D01*
X123186000Y-55880000D02*
X133185000Y-45880800D01*
X109220000Y-55880000D02*
X123186000Y-55880000D01*
X139658000Y-45880800D02*
X133185000Y-45880800D01*
X140108000Y-45430000D02*
X139658000Y-45880800D01*
%TO.N,/GP41*%
X110490000Y-62230000D02*
X111760000Y-60960000D01*
X111760000Y-60960000D02*
X133876700Y-60960000D01*
X133876700Y-60960000D02*
X137160000Y-64243300D01*
X137160000Y-66070000D02*
X137160000Y-64243300D01*
%TO.N,/GP44*%
X138229000Y-67113100D02*
X140409200Y-69293300D01*
X140409200Y-69293300D02*
X142240000Y-69293300D01*
X142240000Y-71120000D02*
X142240000Y-69293300D01*
X113030000Y-59690000D02*
X133233600Y-59690000D01*
X133233600Y-59690000D02*
X138229000Y-64685400D01*
X138229000Y-64685400D02*
X138229000Y-67113100D01*
%TO.N,/GP47*%
X144780000Y-66070000D02*
X144780000Y-64243300D01*
X143963100Y-64243300D02*
X144780000Y-64243300D01*
X143285000Y-63565200D02*
X143963100Y-64243300D01*
%TO.N,/GP43*%
X111760000Y-58420000D02*
X132399900Y-58420000D01*
X132399900Y-58420000D02*
X138223200Y-64243300D01*
X139700000Y-66070000D02*
X139700000Y-64243300D01*
X138223200Y-64243300D02*
X139700000Y-64243300D01*
X110490000Y-59690000D02*
X111760000Y-58420000D01*
%TO.N,/GP42*%
X139700000Y-71120000D02*
X139700000Y-69293300D01*
X135672200Y-64666400D02*
X135672200Y-67092200D01*
X113030000Y-62230000D02*
X133235800Y-62230000D01*
X133235800Y-62230000D02*
X135672200Y-64666400D01*
X135672200Y-67092200D02*
X137873300Y-69293300D01*
X137873300Y-69293300D02*
X139700000Y-69293300D01*
%TO.N,/GP45*%
X113030000Y-57150000D02*
X113633400Y-57753400D01*
X142240000Y-66070000D02*
X142240000Y-64243300D01*
X135750100Y-57753400D02*
X142240000Y-64243300D01*
X113633400Y-57753400D02*
X135750100Y-57753400D01*
%TO.N,/GP46*%
X141266400Y-65138800D02*
X141266400Y-67606400D01*
X138677800Y-62944400D02*
X139072000Y-62944400D01*
X144780000Y-71120000D02*
X144780000Y-69293300D01*
X139072000Y-62944400D02*
X141266400Y-65138800D01*
X141266400Y-67606400D02*
X142953300Y-69293300D01*
X142953300Y-69293300D02*
X144780000Y-69293300D01*
%TO.N,/A3*%
X96848900Y-101828000D02*
X95644600Y-101828000D01*
X96848900Y-105580000D02*
X96848900Y-105580200D01*
X95644600Y-101828000D02*
X93400400Y-99584200D01*
X96848900Y-105580000D02*
X96848900Y-101828000D01*
%TO.N,/A1*%
X85191300Y-85169500D02*
X101850000Y-101828000D01*
X101850000Y-102766000D02*
X101850000Y-103704000D01*
X101850000Y-102766000D02*
X101850200Y-102766200D01*
X81368600Y-85169500D02*
X85191300Y-85169500D01*
X101850200Y-102766200D02*
X101850200Y-105580200D01*
X101850000Y-101828000D02*
X101850000Y-102766000D01*
%TO.N,/A0*%
X104349600Y-103002900D02*
X104349600Y-105580200D01*
X104350000Y-103002500D02*
X104349600Y-103002900D01*
X104350000Y-103002500D02*
X104350000Y-103862000D01*
%TO.N,/A2*%
X99350800Y-105580000D02*
X99350800Y-101828000D01*
X99350800Y-105580000D02*
X99350800Y-105580200D01*
X99350800Y-101828000D02*
X83461200Y-85938800D01*
X83461200Y-85938800D02*
X81753800Y-85938800D01*
%TO.N,/D1*%
X104140000Y-76200100D02*
X104140000Y-94118300D01*
X111850200Y-102766200D02*
X111850200Y-105580200D01*
X111850000Y-102766000D02*
X111850200Y-102766200D01*
X104140000Y-94118300D02*
X111850000Y-101828000D01*
X102870000Y-74930000D02*
X104140000Y-76200100D01*
X111850000Y-101828000D02*
X111850000Y-102766000D01*
X111850000Y-102766000D02*
X111850000Y-103704000D01*
%TO.N,/A6*%
X89350900Y-105580000D02*
X89350900Y-105580200D01*
X89350900Y-100882000D02*
X81834900Y-93366000D01*
X89350900Y-105580000D02*
X89350900Y-100882000D01*
%TO.N,/A4*%
X82041100Y-89519900D02*
X94349600Y-101828000D01*
X94349600Y-105580000D02*
X94349600Y-105580200D01*
X94349600Y-101828000D02*
X94349600Y-105580000D01*
%TO.N,/D0*%
X102870000Y-77470000D02*
X102870000Y-95347600D01*
X102870000Y-95347600D02*
X109351000Y-101828000D01*
X109350800Y-102766200D02*
X109350800Y-105580200D01*
X109351000Y-102766000D02*
X109350800Y-102766200D01*
X109351000Y-101828000D02*
X109351000Y-102766000D01*
X109351000Y-102766000D02*
X109351000Y-103704000D01*
%TO.N,/D2*%
X114349500Y-102766500D02*
X114349500Y-105580200D01*
X105410000Y-77470000D02*
X105410000Y-92888900D01*
X114350000Y-102766000D02*
X114349500Y-102766500D01*
X105410000Y-92888900D02*
X114350000Y-101828000D01*
X114350000Y-101828000D02*
X114350000Y-102766000D01*
X114350000Y-102766000D02*
X114350000Y-103704000D01*
%TO.N,/A13*%
X90696400Y-76200000D02*
X89630000Y-76200000D01*
X92710000Y-72390000D02*
X91437700Y-73662300D01*
X91437700Y-75458700D02*
X90696400Y-76200000D01*
X89630000Y-76200000D02*
X84349000Y-81481000D01*
X91437700Y-73662300D02*
X91437700Y-75458700D01*
%TO.N,/VCC*%
X96185300Y-61062000D02*
X93543300Y-58420000D01*
X129599700Y-102766300D02*
X129599700Y-105580200D01*
X129600000Y-102766000D02*
X129600000Y-103704000D01*
X87250000Y-58420000D02*
X77440000Y-48610000D01*
X129600000Y-102766000D02*
X129599700Y-102766300D01*
X93543300Y-58420000D02*
X87250000Y-58420000D01*
X77440000Y-48610000D02*
X77440000Y-48260000D01*
X101296000Y-61062000D02*
X96185300Y-61062000D01*
%TO.N,/A5*%
X91850200Y-105580000D02*
X91850200Y-105580200D01*
X91322900Y-101828000D02*
X91850200Y-101828000D01*
X82646800Y-93152300D02*
X91322900Y-101828000D01*
X91850200Y-101828000D02*
X91850200Y-105580000D01*
%TO.N,/{slash}ROMSEL*%
X114626000Y-78186800D02*
X111752000Y-81060200D01*
X111752000Y-81060200D02*
X108581000Y-81060200D01*
X114626000Y-76525600D02*
X114626000Y-78186800D01*
X113030000Y-74930000D02*
X114626000Y-76525600D01*
%TO.N,/D3*%
X106680000Y-91657100D02*
X116851000Y-101828000D01*
X116851400Y-102766400D02*
X116851400Y-105580200D01*
X116851000Y-102766000D02*
X116851400Y-102766400D01*
X116851000Y-102766000D02*
X116851000Y-103704000D01*
X105410000Y-74930000D02*
X106680000Y-76200100D01*
X106680000Y-76200100D02*
X106680000Y-91657100D01*
X116851000Y-101828000D02*
X116851000Y-102766000D01*
%TO.N,/{slash}RD*%
X114324000Y-78029200D02*
X113241000Y-79111700D01*
X112458000Y-76197700D02*
X113551000Y-76197700D01*
X119350800Y-103066200D02*
X119350800Y-105580200D01*
X113241000Y-79111700D02*
X109713000Y-79111700D01*
X107979000Y-82486800D02*
X119351000Y-93858200D01*
X119351000Y-103066000D02*
X119350800Y-103066200D01*
X110490000Y-72390000D02*
X111760000Y-73660000D01*
X111760000Y-73660000D02*
X111760000Y-75499600D01*
X113551000Y-76197700D02*
X114324000Y-76971000D01*
X109713000Y-79111700D02*
X107979000Y-80845300D01*
X119351000Y-93858200D02*
X119351000Y-103066000D01*
X111760000Y-75499600D02*
X112458000Y-76197700D01*
X119351000Y-103066000D02*
X119351000Y-103904000D01*
X107979000Y-80845300D02*
X107979000Y-82486800D01*
X114324000Y-76971000D02*
X114324000Y-78029200D01*
%TO.N,/A9*%
X90709400Y-71120000D02*
X89578500Y-71120000D01*
X82517200Y-101161000D02*
X82517200Y-100988000D01*
X81850200Y-105580000D02*
X81850200Y-101828000D01*
X89578500Y-71120000D02*
X86359400Y-74339100D01*
X86359400Y-74339100D02*
X86359400Y-75137100D01*
X81850200Y-105580000D02*
X81850200Y-105580200D01*
X91437700Y-68582300D02*
X91437700Y-70391700D01*
X81850200Y-101828000D02*
X82517200Y-101161000D01*
X91437700Y-70391700D02*
X90709400Y-71120000D01*
X92710000Y-67310000D02*
X91437700Y-68582300D01*
%TO.N,/A11*%
X76849000Y-105580000D02*
X76849000Y-105580200D01*
X91440000Y-71120000D02*
X91440000Y-72916900D01*
X76849000Y-86410700D02*
X76849000Y-105580000D01*
X92710000Y-69850000D02*
X91440000Y-71120000D01*
X91440000Y-72916900D02*
X90696900Y-73660000D01*
X89599700Y-73660000D02*
X76849000Y-86410700D01*
X90696900Y-73660000D02*
X89599700Y-73660000D01*
%TO.N,/GND*%
X118560000Y-32268300D02*
X114368000Y-32268300D01*
X95806700Y-35560000D02*
X98346700Y-33020000D01*
X98346700Y-33020000D02*
X111790000Y-33020000D01*
X83022200Y-84617800D02*
X81129000Y-84617800D01*
X108416000Y-73603100D02*
X102362000Y-73603100D01*
X100909000Y-76200000D02*
X91440000Y-76200000D01*
X91440000Y-76200000D02*
X90170000Y-77470000D01*
X102362000Y-58725500D02*
X108914000Y-58725500D01*
X126710000Y-40418400D02*
X118560000Y-32268300D01*
X94285500Y-58725500D02*
X92710000Y-57150000D01*
X109218000Y-75454600D02*
X109218000Y-74404800D01*
X111760000Y-76200000D02*
X109963000Y-76200000D01*
X81129000Y-84617800D02*
X80000500Y-85746300D01*
X102362000Y-73603100D02*
X101600000Y-74364600D01*
X102362000Y-58725500D02*
X94285500Y-58725500D01*
X126710000Y-40930000D02*
X113030000Y-54610000D01*
X126710000Y-40930000D02*
X133185000Y-40930000D01*
X108914000Y-58725500D02*
X110490000Y-57150000D01*
X109218000Y-74404800D02*
X108416000Y-73603100D01*
X126710000Y-40930000D02*
X126710000Y-40418400D01*
X93980000Y-35560000D02*
X95806700Y-35560000D01*
X133185000Y-40930000D02*
X141135000Y-40930000D01*
X113617000Y-33020000D02*
X111790000Y-33020000D01*
X114368000Y-32268300D02*
X113617000Y-33020000D01*
X90170000Y-77470000D02*
X83022200Y-84617800D01*
X102362000Y-73603100D02*
X102362000Y-58725500D01*
X92710000Y-57150000D02*
X90170000Y-54610000D01*
X101600000Y-74364600D02*
X101600000Y-75509300D01*
X113030000Y-77470000D02*
X111760000Y-76200000D01*
X109963000Y-76200000D02*
X109218000Y-75454600D01*
X101600000Y-75509300D02*
X100909000Y-76200000D01*
%TO.N,/A8*%
X84349600Y-105580000D02*
X84349600Y-101828000D01*
X84349600Y-105580000D02*
X84349600Y-105580200D01*
X84349600Y-101828000D02*
X82616200Y-100095000D01*
X82616200Y-100095000D02*
X82616200Y-94995100D01*
%TO.N,/A10*%
X79350900Y-105580000D02*
X79350900Y-105580200D01*
X79350900Y-105580000D02*
X79350900Y-98951800D01*
%TO.N,/A7*%
X86849000Y-105580000D02*
X86849000Y-105580200D01*
X86849000Y-105580000D02*
X86849000Y-101828000D01*
X86540800Y-101828000D02*
X83870400Y-99158000D01*
X86849000Y-101828000D02*
X86540800Y-101828000D01*
%TO.N,/CIC_P7_RESET*%
X125573323Y-101067846D02*
X124354323Y-101067846D01*
%TO.N,/VBUS*%
X88900000Y-48260000D02*
X78740000Y-48260000D01*
X95250000Y-54610000D02*
X88900000Y-48260000D01*
%TD*%
%TA.AperFunction,Conductor*%
%TO.N,/GND*%
G36*
X121863039Y-27959685D02*
G01*
X121908794Y-28012489D01*
X121920000Y-28064000D01*
X121920000Y-33020000D01*
X149736000Y-33020000D01*
X149803039Y-33039685D01*
X149848794Y-33092489D01*
X149860000Y-33144000D01*
X149860000Y-33955060D01*
X149840315Y-34022099D01*
X149787511Y-34067854D01*
X149736000Y-34079060D01*
X148284088Y-34079060D01*
X148156792Y-34113168D01*
X148042666Y-34179060D01*
X148042663Y-34179062D01*
X147949482Y-34272243D01*
X147949480Y-34272246D01*
X147883588Y-34386372D01*
X147849480Y-34513668D01*
X147849480Y-36344711D01*
X147883588Y-36472007D01*
X147902580Y-36504901D01*
X147949480Y-36586134D01*
X148042666Y-36679320D01*
X148156794Y-36745212D01*
X148284088Y-36779320D01*
X148284090Y-36779320D01*
X149736000Y-36779320D01*
X149803039Y-36799005D01*
X149848794Y-36851809D01*
X149860000Y-36903320D01*
X149860000Y-86933581D01*
X149840315Y-87000620D01*
X149787511Y-87046375D01*
X149736000Y-87057581D01*
X148284088Y-87057581D01*
X148156792Y-87091689D01*
X148042666Y-87157581D01*
X148042663Y-87157583D01*
X147949482Y-87250764D01*
X147949480Y-87250767D01*
X147883588Y-87364893D01*
X147849480Y-87492189D01*
X147849480Y-89646611D01*
X147883588Y-89773907D01*
X147916534Y-89830970D01*
X147949480Y-89888034D01*
X148042666Y-89981220D01*
X148156794Y-90047112D01*
X148284088Y-90081220D01*
X148284090Y-90081220D01*
X149736000Y-90081220D01*
X149803039Y-90100905D01*
X149848794Y-90153709D01*
X149860000Y-90205220D01*
X149860000Y-98831797D01*
X149840315Y-98898836D01*
X149787511Y-98944591D01*
X149736000Y-98955797D01*
X146917272Y-98955797D01*
X146785488Y-98955797D01*
X146658194Y-98989905D01*
X146658193Y-98989905D01*
X146658191Y-98989906D01*
X146658190Y-98989906D01*
X146565560Y-99043387D01*
X146503560Y-99060000D01*
X145168500Y-99060000D01*
X145101461Y-99040315D01*
X145055706Y-98987511D01*
X145044500Y-98936000D01*
X145044500Y-80208327D01*
X145044500Y-80208325D01*
X145011111Y-80083716D01*
X145011111Y-80083715D01*
X145011110Y-80083710D01*
X145006987Y-80068321D01*
X145006986Y-80068319D01*
X144934512Y-79942788D01*
X143958013Y-78966276D01*
X138105003Y-73113185D01*
X138071519Y-73051861D01*
X138076504Y-72982170D01*
X138093420Y-72951191D01*
X138093457Y-72951142D01*
X138103796Y-72937331D01*
X138154091Y-72802483D01*
X138160500Y-72742873D01*
X138160499Y-69967799D01*
X138180184Y-69900761D01*
X138232987Y-69855006D01*
X138284499Y-69843800D01*
X138575500Y-69843800D01*
X138642539Y-69863485D01*
X138688294Y-69916289D01*
X138699500Y-69967800D01*
X138699500Y-72742870D01*
X138699501Y-72742876D01*
X138705908Y-72802483D01*
X138756202Y-72937328D01*
X138756206Y-72937335D01*
X138842452Y-73052544D01*
X138842455Y-73052547D01*
X138957664Y-73138793D01*
X138957671Y-73138797D01*
X139092517Y-73189091D01*
X139092516Y-73189091D01*
X139099444Y-73189835D01*
X139152127Y-73195500D01*
X140247872Y-73195499D01*
X140307483Y-73189091D01*
X140442331Y-73138796D01*
X140557546Y-73052546D01*
X140643796Y-72937331D01*
X140694091Y-72802483D01*
X140700500Y-72742873D01*
X140700499Y-69967799D01*
X140720184Y-69900761D01*
X140772987Y-69855006D01*
X140824499Y-69843800D01*
X141115500Y-69843800D01*
X141182539Y-69863485D01*
X141228294Y-69916289D01*
X141239500Y-69967800D01*
X141239500Y-72742870D01*
X141239501Y-72742876D01*
X141245908Y-72802483D01*
X141296202Y-72937328D01*
X141296206Y-72937335D01*
X141382452Y-73052544D01*
X141382455Y-73052547D01*
X141497664Y-73138793D01*
X141497671Y-73138797D01*
X141632517Y-73189091D01*
X141632516Y-73189091D01*
X141639444Y-73189835D01*
X141692127Y-73195500D01*
X142787872Y-73195499D01*
X142847483Y-73189091D01*
X142982331Y-73138796D01*
X143097546Y-73052546D01*
X143183796Y-72937331D01*
X143234091Y-72802483D01*
X143240500Y-72742873D01*
X143240499Y-69967799D01*
X143260184Y-69900761D01*
X143312987Y-69855006D01*
X143364499Y-69843800D01*
X143655500Y-69843800D01*
X143722539Y-69863485D01*
X143768294Y-69916289D01*
X143779500Y-69967800D01*
X143779500Y-72742870D01*
X143779501Y-72742876D01*
X143785908Y-72802483D01*
X143836202Y-72937328D01*
X143836206Y-72937335D01*
X143922452Y-73052544D01*
X143922455Y-73052547D01*
X144037664Y-73138793D01*
X144037671Y-73138797D01*
X144172517Y-73189091D01*
X144172516Y-73189091D01*
X144179444Y-73189835D01*
X144232127Y-73195500D01*
X145327872Y-73195499D01*
X145387483Y-73189091D01*
X145522331Y-73138796D01*
X145637546Y-73052546D01*
X145723796Y-72937331D01*
X145774091Y-72802483D01*
X145780500Y-72742873D01*
X145780499Y-69497135D01*
X146319500Y-69497135D01*
X146319500Y-72742870D01*
X146319501Y-72742876D01*
X146325908Y-72802483D01*
X146376202Y-72937328D01*
X146376206Y-72937335D01*
X146462452Y-73052544D01*
X146462455Y-73052547D01*
X146577664Y-73138793D01*
X146577671Y-73138797D01*
X146712517Y-73189091D01*
X146712516Y-73189091D01*
X146719444Y-73189835D01*
X146772127Y-73195500D01*
X147867872Y-73195499D01*
X147927483Y-73189091D01*
X148062331Y-73138796D01*
X148177546Y-73052546D01*
X148263796Y-72937331D01*
X148314091Y-72802483D01*
X148320500Y-72742873D01*
X148320499Y-69497128D01*
X148314091Y-69437517D01*
X148303926Y-69410264D01*
X148263797Y-69302671D01*
X148263793Y-69302664D01*
X148177547Y-69187455D01*
X148177544Y-69187452D01*
X148062335Y-69101206D01*
X148062328Y-69101202D01*
X147927482Y-69050908D01*
X147927483Y-69050908D01*
X147867883Y-69044501D01*
X147867881Y-69044500D01*
X147867873Y-69044500D01*
X147867864Y-69044500D01*
X146772129Y-69044500D01*
X146772123Y-69044501D01*
X146712516Y-69050908D01*
X146577671Y-69101202D01*
X146577664Y-69101206D01*
X146462455Y-69187452D01*
X146462452Y-69187455D01*
X146376206Y-69302664D01*
X146376202Y-69302671D01*
X146325908Y-69437517D01*
X146319957Y-69492873D01*
X146319501Y-69497123D01*
X146319500Y-69497135D01*
X145780499Y-69497135D01*
X145780499Y-69497128D01*
X145774091Y-69437517D01*
X145763926Y-69410264D01*
X145723797Y-69302671D01*
X145723793Y-69302664D01*
X145637547Y-69187455D01*
X145637544Y-69187452D01*
X145522335Y-69101206D01*
X145522328Y-69101202D01*
X145387482Y-69050908D01*
X145387484Y-69050908D01*
X145330954Y-69044831D01*
X145266403Y-69018093D01*
X145236823Y-68983542D01*
X145220509Y-68955285D01*
X145118015Y-68852791D01*
X145118013Y-68852790D01*
X145118011Y-68852788D01*
X144992488Y-68780317D01*
X144992489Y-68780317D01*
X144970246Y-68774357D01*
X144852475Y-68742800D01*
X144852472Y-68742800D01*
X143232687Y-68742800D01*
X143165648Y-68723115D01*
X143145006Y-68706481D01*
X142786421Y-68347896D01*
X142752936Y-68286573D01*
X142757920Y-68216881D01*
X142799792Y-68160948D01*
X142840294Y-68142014D01*
X142840215Y-68141802D01*
X142842858Y-68140815D01*
X142845599Y-68139535D01*
X142847466Y-68139092D01*
X142847483Y-68139091D01*
X142982331Y-68088796D01*
X143097546Y-68002546D01*
X143183796Y-67887331D01*
X143234091Y-67752483D01*
X143240500Y-67692873D01*
X143240499Y-64598585D01*
X143260184Y-64531547D01*
X143312988Y-64485792D01*
X143382146Y-64475848D01*
X143445702Y-64504873D01*
X143452180Y-64510905D01*
X143625085Y-64683810D01*
X143717500Y-64737165D01*
X143765715Y-64787731D01*
X143779500Y-64844552D01*
X143779500Y-67692870D01*
X143779501Y-67692876D01*
X143785908Y-67752483D01*
X143836202Y-67887328D01*
X143836206Y-67887335D01*
X143922452Y-68002544D01*
X143922455Y-68002547D01*
X144037664Y-68088793D01*
X144037671Y-68088797D01*
X144172517Y-68139091D01*
X144172516Y-68139091D01*
X144179444Y-68139835D01*
X144232127Y-68145500D01*
X145327872Y-68145499D01*
X145387483Y-68139091D01*
X145522331Y-68088796D01*
X145637546Y-68002546D01*
X145723796Y-67887331D01*
X145774091Y-67752483D01*
X145780500Y-67692873D01*
X145780499Y-64447135D01*
X146319500Y-64447135D01*
X146319500Y-67692870D01*
X146319501Y-67692876D01*
X146325908Y-67752483D01*
X146376202Y-67887328D01*
X146376206Y-67887335D01*
X146462452Y-68002544D01*
X146462455Y-68002547D01*
X146577664Y-68088793D01*
X146577671Y-68088797D01*
X146712517Y-68139091D01*
X146712516Y-68139091D01*
X146719444Y-68139835D01*
X146772127Y-68145500D01*
X147867872Y-68145499D01*
X147927483Y-68139091D01*
X148062331Y-68088796D01*
X148177546Y-68002546D01*
X148263796Y-67887331D01*
X148314091Y-67752483D01*
X148320500Y-67692873D01*
X148320499Y-64447128D01*
X148314091Y-64387517D01*
X148306821Y-64368026D01*
X148263797Y-64252671D01*
X148263793Y-64252664D01*
X148177547Y-64137455D01*
X148177544Y-64137452D01*
X148062335Y-64051206D01*
X148062328Y-64051202D01*
X147927482Y-64000908D01*
X147927483Y-64000908D01*
X147867883Y-63994501D01*
X147867881Y-63994500D01*
X147867873Y-63994500D01*
X147867864Y-63994500D01*
X146772129Y-63994500D01*
X146772123Y-63994501D01*
X146712516Y-64000908D01*
X146577671Y-64051202D01*
X146577664Y-64051206D01*
X146462455Y-64137452D01*
X146462452Y-64137455D01*
X146376206Y-64252664D01*
X146376202Y-64252671D01*
X146325908Y-64387517D01*
X146319501Y-64447116D01*
X146319501Y-64447123D01*
X146319500Y-64447135D01*
X145780499Y-64447135D01*
X145780499Y-64447128D01*
X145774091Y-64387517D01*
X145766821Y-64368026D01*
X145723797Y-64252671D01*
X145723793Y-64252664D01*
X145637547Y-64137455D01*
X145637544Y-64137452D01*
X145522335Y-64051206D01*
X145522328Y-64051202D01*
X145387482Y-64000908D01*
X145387484Y-64000908D01*
X145330954Y-63994831D01*
X145266403Y-63968093D01*
X145236823Y-63933542D01*
X145220509Y-63905285D01*
X145118015Y-63802791D01*
X145118013Y-63802790D01*
X145118011Y-63802788D01*
X144992488Y-63730317D01*
X144992489Y-63730317D01*
X144981006Y-63727240D01*
X144852475Y-63692800D01*
X144852472Y-63692800D01*
X144242487Y-63692800D01*
X144175448Y-63673115D01*
X144154806Y-63656481D01*
X144124679Y-63626354D01*
X144091194Y-63565031D01*
X144089140Y-63552556D01*
X144087526Y-63538234D01*
X144081505Y-63484791D01*
X144070369Y-63385949D01*
X144070368Y-63385945D01*
X144010788Y-63215676D01*
X143914815Y-63062937D01*
X143787262Y-62935384D01*
X143634523Y-62839411D01*
X143464254Y-62779831D01*
X143464249Y-62779830D01*
X143285004Y-62759635D01*
X143284996Y-62759635D01*
X143105750Y-62779830D01*
X143105745Y-62779831D01*
X142935476Y-62839411D01*
X142782737Y-62935384D01*
X142655184Y-63062937D01*
X142559211Y-63215676D01*
X142499631Y-63385945D01*
X142499630Y-63385949D01*
X142494187Y-63434265D01*
X142467120Y-63498679D01*
X142409525Y-63538234D01*
X142339689Y-63540371D01*
X142283286Y-63508062D01*
X139286724Y-60511500D01*
X136088115Y-57312890D01*
X135962585Y-57240416D01*
X135895625Y-57222474D01*
X135895624Y-57222473D01*
X135842148Y-57208144D01*
X135822575Y-57202900D01*
X135822574Y-57202900D01*
X114669977Y-57202900D01*
X114602938Y-57183215D01*
X114557183Y-57130411D01*
X114546359Y-57088629D01*
X114532461Y-56912036D01*
X114476738Y-56679929D01*
X114444439Y-56601952D01*
X114436970Y-56532483D01*
X114468245Y-56470004D01*
X114528334Y-56434352D01*
X114559000Y-56430500D01*
X123258662Y-56430500D01*
X123259049Y-56430443D01*
X123262020Y-56429550D01*
X123306050Y-56417752D01*
X123398485Y-56392984D01*
X123398485Y-56392983D01*
X123398488Y-56392983D01*
X123398490Y-56392982D01*
X123469060Y-56352237D01*
X123513152Y-56326780D01*
X123515770Y-56325603D01*
X123522409Y-56321500D01*
X123524034Y-56320528D01*
X123525311Y-56319214D01*
X123588653Y-56255871D01*
X123588652Y-56255871D01*
X123588656Y-56255868D01*
X123626509Y-56218015D01*
X123626509Y-56218013D01*
X123636712Y-56207811D01*
X123636716Y-56207804D01*
X132048615Y-47795738D01*
X133227511Y-46616819D01*
X133288834Y-46583333D01*
X133315193Y-46580499D01*
X134007871Y-46580499D01*
X134007872Y-46580499D01*
X134067483Y-46574091D01*
X134202331Y-46523796D01*
X134292851Y-46456033D01*
X134358315Y-46431616D01*
X134367162Y-46431300D01*
X139577464Y-46431300D01*
X139578547Y-46431370D01*
X139586012Y-46431363D01*
X139586015Y-46431364D01*
X139657927Y-46431300D01*
X139730475Y-46431300D01*
X139730476Y-46431300D01*
X139730957Y-46431236D01*
X139730961Y-46431235D01*
X139730963Y-46431235D01*
X139800150Y-46412630D01*
X139800260Y-46412632D01*
X139800253Y-46412603D01*
X139839122Y-46402187D01*
X139870485Y-46393784D01*
X139870486Y-46393783D01*
X139872051Y-46393364D01*
X139941901Y-46395026D01*
X139995888Y-46431563D01*
X139996180Y-46431272D01*
X139997694Y-46432786D01*
X139999764Y-46434187D01*
X140002226Y-46437317D01*
X140002451Y-46437542D01*
X140002454Y-46437546D01*
X140002457Y-46437548D01*
X140117664Y-46523793D01*
X140117671Y-46523797D01*
X140252517Y-46574091D01*
X140252516Y-46574091D01*
X140259444Y-46574835D01*
X140312127Y-46580500D01*
X141957872Y-46580499D01*
X142017483Y-46574091D01*
X142152331Y-46523796D01*
X142267546Y-46437546D01*
X142353796Y-46322331D01*
X142404091Y-46187483D01*
X142410500Y-46127873D01*
X142410499Y-44732128D01*
X142404091Y-44672517D01*
X142353796Y-44537669D01*
X142353795Y-44537668D01*
X142353793Y-44537664D01*
X142267547Y-44422455D01*
X142267544Y-44422452D01*
X142152335Y-44336206D01*
X142152328Y-44336202D01*
X142017482Y-44285908D01*
X142017483Y-44285908D01*
X141957883Y-44279501D01*
X141957881Y-44279500D01*
X141957873Y-44279500D01*
X141957864Y-44279500D01*
X140312129Y-44279500D01*
X140312123Y-44279501D01*
X140252516Y-44285908D01*
X140117671Y-44336202D01*
X140117664Y-44336206D01*
X140002455Y-44422452D01*
X140002452Y-44422455D01*
X139916206Y-44537664D01*
X139916202Y-44537671D01*
X139865908Y-44672517D01*
X139859519Y-44731949D01*
X139859501Y-44732123D01*
X139859500Y-44732135D01*
X139859500Y-44866217D01*
X139839815Y-44933256D01*
X139797503Y-44973603D01*
X139769969Y-44989500D01*
X139769809Y-44989624D01*
X139769597Y-44989786D01*
X139718480Y-45040995D01*
X139662237Y-45097238D01*
X139661522Y-45098053D01*
X139466021Y-45293903D01*
X139404728Y-45327443D01*
X139378262Y-45330300D01*
X134584499Y-45330300D01*
X134517460Y-45310615D01*
X134471705Y-45257811D01*
X134460499Y-45206300D01*
X134460499Y-44732129D01*
X134460498Y-44732123D01*
X134460497Y-44732116D01*
X134454091Y-44672517D01*
X134403796Y-44537669D01*
X134403795Y-44537668D01*
X134403793Y-44537664D01*
X134317547Y-44422455D01*
X134317544Y-44422452D01*
X134202335Y-44336206D01*
X134202328Y-44336202D01*
X134067482Y-44285908D01*
X134067483Y-44285908D01*
X134007883Y-44279501D01*
X134007881Y-44279500D01*
X134007873Y-44279500D01*
X134007864Y-44279500D01*
X132362129Y-44279500D01*
X132362123Y-44279501D01*
X132302516Y-44285908D01*
X132167671Y-44336202D01*
X132167664Y-44336206D01*
X132052455Y-44422452D01*
X132052452Y-44422455D01*
X131966206Y-44537664D01*
X131966202Y-44537671D01*
X131915908Y-44672517D01*
X131909519Y-44731949D01*
X131909501Y-44732123D01*
X131909500Y-44732135D01*
X131909500Y-46127870D01*
X131909501Y-46127876D01*
X131915908Y-46187483D01*
X131938018Y-46246761D01*
X131943002Y-46316453D01*
X131909518Y-46377774D01*
X122994292Y-55293180D01*
X122932969Y-55326666D01*
X122906610Y-55329500D01*
X114558460Y-55329500D01*
X114491421Y-55309815D01*
X114445666Y-55257011D01*
X114435722Y-55187853D01*
X114443899Y-55158048D01*
X114476256Y-55079929D01*
X114476257Y-55079927D01*
X114531966Y-54847883D01*
X114550687Y-54610000D01*
X114531966Y-54372116D01*
X114476257Y-54140074D01*
X114384943Y-53919621D01*
X114266769Y-53726781D01*
X113411000Y-54582550D01*
X113411000Y-54559840D01*
X113385036Y-54462939D01*
X113334876Y-54376060D01*
X113263940Y-54305124D01*
X113177061Y-54254964D01*
X113080160Y-54229000D01*
X113057448Y-54229000D01*
X113913217Y-53373229D01*
X113720378Y-53255056D01*
X113499924Y-53163742D01*
X113499927Y-53163742D01*
X113267883Y-53108033D01*
X113030000Y-53089312D01*
X112792116Y-53108033D01*
X112560074Y-53163742D01*
X112339621Y-53255056D01*
X112146781Y-53373229D01*
X113002553Y-54229000D01*
X112979840Y-54229000D01*
X112882939Y-54254964D01*
X112796060Y-54305124D01*
X112725124Y-54376060D01*
X112674964Y-54462939D01*
X112649000Y-54559840D01*
X112649000Y-54582552D01*
X111790324Y-53723876D01*
X111732725Y-53714119D01*
X111692750Y-53683180D01*
X111673144Y-53660225D01*
X111565643Y-53534357D01*
X111384132Y-53379332D01*
X111180605Y-53254611D01*
X111180604Y-53254610D01*
X111180600Y-53254608D01*
X110960068Y-53163261D01*
X110727962Y-53107538D01*
X110727963Y-53107538D01*
X110490000Y-53088811D01*
X110252036Y-53107538D01*
X110019931Y-53163261D01*
X109799399Y-53254608D01*
X109595867Y-53379332D01*
X109414357Y-53534357D01*
X109314290Y-53651520D01*
X109255783Y-53689713D01*
X109185915Y-53690211D01*
X109126869Y-53652857D01*
X109125710Y-53651520D01*
X109098683Y-53619876D01*
X109025643Y-53534357D01*
X108844132Y-53379332D01*
X108640605Y-53254611D01*
X108640604Y-53254610D01*
X108640600Y-53254608D01*
X108420068Y-53163261D01*
X108187962Y-53107538D01*
X108187963Y-53107538D01*
X107950000Y-53088811D01*
X107712036Y-53107538D01*
X107479929Y-53163261D01*
X107403952Y-53194732D01*
X107334482Y-53202201D01*
X107272003Y-53170925D01*
X107236352Y-53110836D01*
X107232500Y-53080171D01*
X107232500Y-44171070D01*
X107252185Y-44104031D01*
X107268811Y-44083396D01*
X109724156Y-41627844D01*
X131910000Y-41627844D01*
X131916401Y-41687372D01*
X131916403Y-41687379D01*
X131966645Y-41822086D01*
X131966649Y-41822093D01*
X132052809Y-41937187D01*
X132052812Y-41937190D01*
X132167906Y-42023350D01*
X132167913Y-42023354D01*
X132302620Y-42073596D01*
X132302627Y-42073598D01*
X132362155Y-42079999D01*
X132362172Y-42080000D01*
X132935000Y-42080000D01*
X133435000Y-42080000D01*
X134007828Y-42080000D01*
X134007844Y-42079999D01*
X134067372Y-42073598D01*
X134067379Y-42073596D01*
X134202086Y-42023354D01*
X134202093Y-42023350D01*
X134317187Y-41937190D01*
X134317190Y-41937187D01*
X134403350Y-41822093D01*
X134403354Y-41822086D01*
X134453596Y-41687379D01*
X134453598Y-41687372D01*
X134459999Y-41627844D01*
X139860000Y-41627844D01*
X139866401Y-41687372D01*
X139866403Y-41687379D01*
X139916645Y-41822086D01*
X139916649Y-41822093D01*
X140002809Y-41937187D01*
X140002812Y-41937190D01*
X140117906Y-42023350D01*
X140117913Y-42023354D01*
X140252620Y-42073596D01*
X140252627Y-42073598D01*
X140312155Y-42079999D01*
X140312172Y-42080000D01*
X140885000Y-42080000D01*
X141385000Y-42080000D01*
X141957828Y-42080000D01*
X141957844Y-42079999D01*
X142017372Y-42073598D01*
X142017379Y-42073596D01*
X142152086Y-42023354D01*
X142152093Y-42023350D01*
X142267187Y-41937190D01*
X142267190Y-41937187D01*
X142353350Y-41822093D01*
X142353354Y-41822086D01*
X142403596Y-41687379D01*
X142403598Y-41687372D01*
X142409999Y-41627844D01*
X142410000Y-41627827D01*
X142410000Y-41180000D01*
X141385000Y-41180000D01*
X141385000Y-42080000D01*
X140885000Y-42080000D01*
X140885000Y-41180000D01*
X139860000Y-41180000D01*
X139860000Y-41627844D01*
X134459999Y-41627844D01*
X134460000Y-41627827D01*
X134460000Y-41180000D01*
X133435000Y-41180000D01*
X133435000Y-42080000D01*
X132935000Y-42080000D01*
X132935000Y-41180000D01*
X131910000Y-41180000D01*
X131910000Y-41627844D01*
X109724156Y-41627844D01*
X111119727Y-40232155D01*
X131910000Y-40232155D01*
X131910000Y-40680000D01*
X132935000Y-40680000D01*
X133435000Y-40680000D01*
X134460000Y-40680000D01*
X134460000Y-40232172D01*
X134459999Y-40232155D01*
X139860000Y-40232155D01*
X139860000Y-40680000D01*
X140885000Y-40680000D01*
X141385000Y-40680000D01*
X142410000Y-40680000D01*
X142410000Y-40232172D01*
X142409999Y-40232155D01*
X142403598Y-40172627D01*
X142403596Y-40172620D01*
X142353354Y-40037913D01*
X142353350Y-40037906D01*
X142267190Y-39922812D01*
X142267187Y-39922809D01*
X142152093Y-39836649D01*
X142152086Y-39836645D01*
X142017379Y-39786403D01*
X142017372Y-39786401D01*
X141957844Y-39780000D01*
X141385000Y-39780000D01*
X141385000Y-40680000D01*
X140885000Y-40680000D01*
X140885000Y-39780000D01*
X140312155Y-39780000D01*
X140252627Y-39786401D01*
X140252620Y-39786403D01*
X140117913Y-39836645D01*
X140117906Y-39836649D01*
X140002812Y-39922809D01*
X140002809Y-39922812D01*
X139916649Y-40037906D01*
X139916645Y-40037913D01*
X139866403Y-40172620D01*
X139866401Y-40172627D01*
X139860000Y-40232155D01*
X134459999Y-40232155D01*
X134453598Y-40172627D01*
X134453596Y-40172620D01*
X134403354Y-40037913D01*
X134403350Y-40037906D01*
X134317190Y-39922812D01*
X134317187Y-39922809D01*
X134202093Y-39836649D01*
X134202086Y-39836645D01*
X134067379Y-39786403D01*
X134067372Y-39786401D01*
X134007844Y-39780000D01*
X133435000Y-39780000D01*
X133435000Y-40680000D01*
X132935000Y-40680000D01*
X132935000Y-39780000D01*
X132362155Y-39780000D01*
X132302627Y-39786401D01*
X132302620Y-39786403D01*
X132167913Y-39836645D01*
X132167906Y-39836649D01*
X132052812Y-39922809D01*
X132052809Y-39922812D01*
X131966649Y-40037906D01*
X131966645Y-40037913D01*
X131916403Y-40172620D01*
X131916401Y-40172627D01*
X131910000Y-40232155D01*
X111119727Y-40232155D01*
X114846668Y-36504900D01*
X114907990Y-36471414D01*
X114977682Y-36476395D01*
X115008663Y-36493312D01*
X115022665Y-36503793D01*
X115022671Y-36503797D01*
X115157517Y-36554091D01*
X115157516Y-36554091D01*
X115164444Y-36554835D01*
X115217127Y-36560500D01*
X118462872Y-36560499D01*
X118522483Y-36554091D01*
X118657331Y-36503796D01*
X118772546Y-36417546D01*
X118858796Y-36302331D01*
X118909091Y-36167483D01*
X118915500Y-36107873D01*
X118915499Y-35012128D01*
X118909862Y-34959688D01*
X118909091Y-34952516D01*
X118858797Y-34817671D01*
X118858793Y-34817664D01*
X118772547Y-34702455D01*
X118772544Y-34702452D01*
X118657335Y-34616206D01*
X118657328Y-34616202D01*
X118522482Y-34565908D01*
X118522483Y-34565908D01*
X118462883Y-34559501D01*
X118462881Y-34559500D01*
X118462873Y-34559500D01*
X118462865Y-34559500D01*
X115687500Y-34559500D01*
X115620461Y-34539815D01*
X115574706Y-34487011D01*
X115563500Y-34435500D01*
X115563500Y-34144499D01*
X115583185Y-34077460D01*
X115635989Y-34031705D01*
X115687500Y-34020499D01*
X118462871Y-34020499D01*
X118462872Y-34020499D01*
X118522483Y-34014091D01*
X118657331Y-33963796D01*
X118772546Y-33877546D01*
X118858796Y-33762331D01*
X118909091Y-33627483D01*
X118915500Y-33567873D01*
X118915499Y-32472128D01*
X118909091Y-32412517D01*
X118858884Y-32277906D01*
X118858797Y-32277671D01*
X118858793Y-32277664D01*
X118772547Y-32162455D01*
X118772544Y-32162452D01*
X118657335Y-32076206D01*
X118657328Y-32076202D01*
X118522482Y-32025908D01*
X118522483Y-32025908D01*
X118462883Y-32019501D01*
X118462881Y-32019500D01*
X118462873Y-32019500D01*
X118462864Y-32019500D01*
X115217129Y-32019500D01*
X115217123Y-32019501D01*
X115157516Y-32025908D01*
X115022671Y-32076202D01*
X115022664Y-32076206D01*
X114907455Y-32162452D01*
X114907452Y-32162455D01*
X114821206Y-32277664D01*
X114821202Y-32277671D01*
X114770908Y-32412516D01*
X114764851Y-32468860D01*
X114738113Y-32533411D01*
X114703564Y-32562990D01*
X114674988Y-32579488D01*
X114674982Y-32579493D01*
X114572493Y-32681982D01*
X114572488Y-32681988D01*
X114500017Y-32807511D01*
X114500016Y-32807515D01*
X114462500Y-32947525D01*
X114462500Y-32947527D01*
X114462500Y-34567316D01*
X114442815Y-34634355D01*
X114426182Y-34654997D01*
X114067842Y-35013343D01*
X114006519Y-35046828D01*
X113936827Y-35041844D01*
X113880894Y-34999973D01*
X113862060Y-34959688D01*
X113861802Y-34959785D01*
X113860605Y-34956577D01*
X113859482Y-34954174D01*
X113859091Y-34952521D01*
X113859091Y-34952517D01*
X113808887Y-34817913D01*
X113808797Y-34817671D01*
X113808793Y-34817664D01*
X113722547Y-34702455D01*
X113722544Y-34702452D01*
X113607335Y-34616206D01*
X113607328Y-34616202D01*
X113472482Y-34565908D01*
X113472483Y-34565908D01*
X113412883Y-34559501D01*
X113412881Y-34559500D01*
X113412873Y-34559500D01*
X113412864Y-34559500D01*
X110167129Y-34559500D01*
X110167123Y-34559501D01*
X110107516Y-34565908D01*
X109972671Y-34616202D01*
X109972664Y-34616206D01*
X109857455Y-34702452D01*
X109857452Y-34702455D01*
X109771206Y-34817664D01*
X109771202Y-34817671D01*
X109720908Y-34952516D01*
X109714851Y-35008860D01*
X109688113Y-35073411D01*
X109653564Y-35102990D01*
X109624988Y-35119488D01*
X109624985Y-35119491D01*
X109576441Y-35168033D01*
X109529717Y-35197390D01*
X109362480Y-35255909D01*
X109209737Y-35351884D01*
X109082184Y-35479437D01*
X108986211Y-35632176D01*
X108926631Y-35802445D01*
X108926630Y-35802450D01*
X108906435Y-35981696D01*
X108906435Y-35981703D01*
X108926630Y-36160949D01*
X108926631Y-36160954D01*
X108986211Y-36331223D01*
X109074672Y-36472007D01*
X109082184Y-36483962D01*
X109209738Y-36611516D01*
X109300080Y-36668282D01*
X109353974Y-36702146D01*
X109362478Y-36707489D01*
X109470284Y-36745212D01*
X109532745Y-36767068D01*
X109532750Y-36767069D01*
X109711996Y-36787265D01*
X109712000Y-36787265D01*
X109712004Y-36787265D01*
X109891249Y-36767069D01*
X109891252Y-36767068D01*
X109891255Y-36767068D01*
X110061522Y-36707489D01*
X110214262Y-36611516D01*
X110228958Y-36596820D01*
X110290280Y-36563333D01*
X110316641Y-36560499D01*
X112221357Y-36560499D01*
X112288396Y-36580184D01*
X112334151Y-36632988D01*
X112344095Y-36702146D01*
X112315070Y-36765702D01*
X112309039Y-36772179D01*
X103699488Y-45381887D01*
X103665773Y-45440286D01*
X103665772Y-45440287D01*
X103627025Y-45507397D01*
X103627016Y-45507414D01*
X103627010Y-45507432D01*
X103617433Y-45543177D01*
X103589500Y-45647425D01*
X103589500Y-50502736D01*
X103569815Y-50569775D01*
X103517011Y-50615530D01*
X103447853Y-50625474D01*
X103384297Y-50596449D01*
X103358113Y-50564736D01*
X103310512Y-50482288D01*
X103310508Y-50482283D01*
X92740119Y-39911894D01*
X92706634Y-39850571D01*
X92703800Y-39824213D01*
X92703800Y-36684000D01*
X92723485Y-36616961D01*
X92776289Y-36571206D01*
X92827800Y-36560000D01*
X93730000Y-36560000D01*
X94230000Y-36560000D01*
X95602828Y-36560000D01*
X95602844Y-36559999D01*
X95662372Y-36553598D01*
X95662379Y-36553596D01*
X95797086Y-36503354D01*
X95797093Y-36503350D01*
X95912187Y-36417190D01*
X95912190Y-36417187D01*
X95998350Y-36302093D01*
X95998354Y-36302086D01*
X96048596Y-36167379D01*
X96048598Y-36167372D01*
X96054999Y-36107844D01*
X96055000Y-36107827D01*
X96055000Y-35810000D01*
X94230000Y-35810000D01*
X94230000Y-36560000D01*
X93730000Y-36560000D01*
X93730000Y-35310000D01*
X94230000Y-35310000D01*
X96055000Y-35310000D01*
X96055000Y-35012172D01*
X96054999Y-35012155D01*
X96048598Y-34952627D01*
X96048596Y-34952620D01*
X95998354Y-34817913D01*
X95998350Y-34817906D01*
X95912190Y-34702812D01*
X95912187Y-34702809D01*
X95797093Y-34616649D01*
X95797086Y-34616645D01*
X95662379Y-34566403D01*
X95662372Y-34566401D01*
X95602844Y-34560000D01*
X94230000Y-34560000D01*
X94230000Y-35310000D01*
X93730000Y-35310000D01*
X93730000Y-34560000D01*
X92827800Y-34560000D01*
X92760761Y-34540315D01*
X92715006Y-34487511D01*
X92703800Y-34436000D01*
X92703800Y-34144499D01*
X92723485Y-34077460D01*
X92776289Y-34031705D01*
X92827800Y-34020499D01*
X95602871Y-34020499D01*
X95602872Y-34020499D01*
X95662483Y-34014091D01*
X95797331Y-33963796D01*
X95912546Y-33877546D01*
X95998796Y-33762331D01*
X96049091Y-33627483D01*
X96055500Y-33567873D01*
X96055500Y-33567844D01*
X109715000Y-33567844D01*
X109721401Y-33627372D01*
X109721403Y-33627379D01*
X109771645Y-33762086D01*
X109771649Y-33762093D01*
X109857809Y-33877187D01*
X109857812Y-33877190D01*
X109972906Y-33963350D01*
X109972913Y-33963354D01*
X110107620Y-34013596D01*
X110107627Y-34013598D01*
X110167155Y-34019999D01*
X110167172Y-34020000D01*
X111540000Y-34020000D01*
X112040000Y-34020000D01*
X113412828Y-34020000D01*
X113412844Y-34019999D01*
X113472372Y-34013598D01*
X113472379Y-34013596D01*
X113607086Y-33963354D01*
X113607093Y-33963350D01*
X113722187Y-33877190D01*
X113722190Y-33877187D01*
X113808350Y-33762093D01*
X113808354Y-33762086D01*
X113858596Y-33627379D01*
X113858598Y-33627372D01*
X113864999Y-33567844D01*
X113865000Y-33567827D01*
X113865000Y-33270000D01*
X112040000Y-33270000D01*
X112040000Y-34020000D01*
X111540000Y-34020000D01*
X111540000Y-33270000D01*
X109715000Y-33270000D01*
X109715000Y-33567844D01*
X96055500Y-33567844D01*
X96055499Y-32472155D01*
X109715000Y-32472155D01*
X109715000Y-32770000D01*
X111540000Y-32770000D01*
X112040000Y-32770000D01*
X113865000Y-32770000D01*
X113865000Y-32472172D01*
X113864999Y-32472155D01*
X113858598Y-32412627D01*
X113858596Y-32412620D01*
X113808354Y-32277913D01*
X113808350Y-32277906D01*
X113722190Y-32162812D01*
X113722187Y-32162809D01*
X113607093Y-32076649D01*
X113607086Y-32076645D01*
X113472379Y-32026403D01*
X113472372Y-32026401D01*
X113412844Y-32020000D01*
X112040000Y-32020000D01*
X112040000Y-32770000D01*
X111540000Y-32770000D01*
X111540000Y-32020000D01*
X110167155Y-32020000D01*
X110107627Y-32026401D01*
X110107620Y-32026403D01*
X109972913Y-32076645D01*
X109972906Y-32076649D01*
X109857812Y-32162809D01*
X109857809Y-32162812D01*
X109771649Y-32277906D01*
X109771645Y-32277913D01*
X109721403Y-32412620D01*
X109721401Y-32412627D01*
X109715000Y-32472155D01*
X96055499Y-32472155D01*
X96055499Y-32472128D01*
X96049091Y-32412517D01*
X95998884Y-32277906D01*
X95998797Y-32277671D01*
X95998793Y-32277664D01*
X95912547Y-32162455D01*
X95912544Y-32162452D01*
X95797335Y-32076206D01*
X95797328Y-32076202D01*
X95662482Y-32025908D01*
X95662483Y-32025908D01*
X95602883Y-32019501D01*
X95602881Y-32019500D01*
X95602873Y-32019500D01*
X95602864Y-32019500D01*
X92357129Y-32019500D01*
X92357123Y-32019501D01*
X92297516Y-32025908D01*
X92162671Y-32076202D01*
X92162664Y-32076206D01*
X92047455Y-32162452D01*
X92047452Y-32162455D01*
X91961206Y-32277664D01*
X91961202Y-32277671D01*
X91910908Y-32412516D01*
X91904831Y-32469045D01*
X91878093Y-32533596D01*
X91843544Y-32563175D01*
X91815288Y-32579489D01*
X91815282Y-32579493D01*
X91712793Y-32681982D01*
X91712788Y-32681988D01*
X91640317Y-32807511D01*
X91640316Y-32807515D01*
X91602800Y-32947525D01*
X91602800Y-32947527D01*
X91602800Y-39255413D01*
X91583115Y-39322452D01*
X91530311Y-39368207D01*
X91461153Y-39378151D01*
X91397597Y-39349126D01*
X91391119Y-39343094D01*
X91343519Y-39295494D01*
X91310034Y-39234171D01*
X91307200Y-39207813D01*
X91307200Y-35487527D01*
X91307200Y-35487525D01*
X91269684Y-35347515D01*
X91216796Y-35255911D01*
X91197211Y-35221988D01*
X91197210Y-35221987D01*
X91197209Y-35221985D01*
X91094715Y-35119491D01*
X91094714Y-35119490D01*
X91094713Y-35119489D01*
X91066454Y-35103173D01*
X91018240Y-35052605D01*
X91005167Y-35009041D01*
X90999091Y-34952516D01*
X90948797Y-34817671D01*
X90948793Y-34817664D01*
X90862547Y-34702455D01*
X90862544Y-34702452D01*
X90747335Y-34616206D01*
X90747328Y-34616202D01*
X90612482Y-34565908D01*
X90612483Y-34565908D01*
X90552883Y-34559501D01*
X90552881Y-34559500D01*
X90552873Y-34559500D01*
X90552864Y-34559500D01*
X87307129Y-34559500D01*
X87307123Y-34559501D01*
X87247516Y-34565908D01*
X87112671Y-34616202D01*
X87112664Y-34616206D01*
X86997455Y-34702452D01*
X86997452Y-34702455D01*
X86911206Y-34817664D01*
X86911202Y-34817671D01*
X86860908Y-34952517D01*
X86854851Y-35008860D01*
X86854501Y-35012123D01*
X86854500Y-35012135D01*
X86854500Y-36107870D01*
X86854501Y-36107876D01*
X86860908Y-36167483D01*
X86911202Y-36302328D01*
X86911206Y-36302335D01*
X86997452Y-36417544D01*
X86997455Y-36417547D01*
X87112664Y-36503793D01*
X87112671Y-36503797D01*
X87247517Y-36554091D01*
X87247516Y-36554091D01*
X87254444Y-36554835D01*
X87307127Y-36560500D01*
X90082200Y-36560499D01*
X90149239Y-36580184D01*
X90194994Y-36632987D01*
X90206200Y-36684499D01*
X90206200Y-39414726D01*
X90206200Y-39559674D01*
X90243716Y-39699685D01*
X90316189Y-39825213D01*
X90316191Y-39825216D01*
X90778220Y-40287245D01*
X90811705Y-40348568D01*
X90813759Y-40361043D01*
X90832530Y-40527649D01*
X90832531Y-40527654D01*
X90892111Y-40697923D01*
X90988084Y-40850662D01*
X91115638Y-40978216D01*
X91268378Y-41074189D01*
X91438645Y-41133768D01*
X91438650Y-41133769D01*
X91617896Y-41153965D01*
X91617900Y-41153965D01*
X91617904Y-41153965D01*
X91797149Y-41133769D01*
X91797152Y-41133768D01*
X91797155Y-41133768D01*
X91967422Y-41074189D01*
X92115795Y-40980960D01*
X92183032Y-40961960D01*
X92249867Y-40982328D01*
X92269448Y-40998273D01*
X102283181Y-51012006D01*
X102316666Y-51073329D01*
X102319500Y-51099687D01*
X102319500Y-53113722D01*
X102299815Y-53180761D01*
X102247011Y-53226516D01*
X102242954Y-53228282D01*
X102179403Y-53254606D01*
X101975867Y-53379332D01*
X101794357Y-53534357D01*
X101694290Y-53651520D01*
X101635783Y-53689713D01*
X101565915Y-53690211D01*
X101506869Y-53652857D01*
X101505710Y-53651520D01*
X101478683Y-53619876D01*
X101405643Y-53534357D01*
X101224132Y-53379332D01*
X101020605Y-53254611D01*
X101020604Y-53254610D01*
X101020600Y-53254608D01*
X100800068Y-53163261D01*
X100567962Y-53107538D01*
X100567963Y-53107538D01*
X100330000Y-53088811D01*
X100092036Y-53107538D01*
X99859931Y-53163261D01*
X99639399Y-53254608D01*
X99435867Y-53379332D01*
X99254357Y-53534357D01*
X99154290Y-53651520D01*
X99095783Y-53689713D01*
X99025915Y-53690211D01*
X98966869Y-53652857D01*
X98965710Y-53651520D01*
X98938683Y-53619876D01*
X98865643Y-53534357D01*
X98684132Y-53379332D01*
X98480605Y-53254611D01*
X98480604Y-53254610D01*
X98480600Y-53254608D01*
X98260068Y-53163261D01*
X98027962Y-53107538D01*
X98027963Y-53107538D01*
X97790000Y-53088811D01*
X97552036Y-53107538D01*
X97319931Y-53163261D01*
X97099399Y-53254608D01*
X96895867Y-53379332D01*
X96714357Y-53534357D01*
X96614290Y-53651520D01*
X96555783Y-53689713D01*
X96485915Y-53690211D01*
X96426869Y-53652857D01*
X96425710Y-53651520D01*
X96398683Y-53619876D01*
X96325643Y-53534357D01*
X96144132Y-53379332D01*
X95940605Y-53254611D01*
X95940604Y-53254610D01*
X95940600Y-53254608D01*
X95720068Y-53163261D01*
X95487962Y-53107538D01*
X95487963Y-53107538D01*
X95250000Y-53088811D01*
X95012036Y-53107538D01*
X94779930Y-53163261D01*
X94716367Y-53189590D01*
X94646897Y-53197058D01*
X94584418Y-53165782D01*
X94581234Y-53162709D01*
X89238016Y-47819491D01*
X89238015Y-47819490D01*
X89112485Y-47747016D01*
X89112486Y-47747016D01*
X89077482Y-47737637D01*
X88972475Y-47709500D01*
X88972472Y-47709500D01*
X79787849Y-47709500D01*
X79720810Y-47689815D01*
X79675055Y-47637012D01*
X79624776Y-47526918D01*
X79624773Y-47526914D01*
X79624770Y-47526906D01*
X79546986Y-47405870D01*
X79546985Y-47405869D01*
X79546984Y-47405867D01*
X79546981Y-47405863D01*
X79452847Y-47297226D01*
X79452830Y-47297207D01*
X79452829Y-47297206D01*
X79344091Y-47202985D01*
X79344081Y-47202978D01*
X79340541Y-47200328D01*
X79341804Y-47198640D01*
X79301684Y-47152299D01*
X79290500Y-47100835D01*
X79290500Y-44339104D01*
X79310185Y-44272065D01*
X79338878Y-44242861D01*
X79338222Y-44242103D01*
X79403512Y-44185526D01*
X79452832Y-44142791D01*
X79546986Y-44034130D01*
X79624770Y-43913094D01*
X79681742Y-43788342D01*
X79683986Y-43784053D01*
X79684498Y-43782308D01*
X79684499Y-43782308D01*
X79725035Y-43644256D01*
X79745497Y-43501941D01*
X79745497Y-43445601D01*
X79745500Y-43445590D01*
X79745500Y-42914426D01*
X79745497Y-42914399D01*
X79745497Y-42858060D01*
X79725035Y-42715744D01*
X79725034Y-42715739D01*
X79684498Y-42577692D01*
X79684498Y-42577691D01*
X79681736Y-42571643D01*
X79624776Y-42446918D01*
X79624773Y-42446914D01*
X79624770Y-42446906D01*
X79546986Y-42325870D01*
X79546985Y-42325869D01*
X79546984Y-42325867D01*
X79546981Y-42325863D01*
X79452847Y-42217226D01*
X79452830Y-42217207D01*
X79452829Y-42217206D01*
X79344091Y-42122985D01*
X79277205Y-42080000D01*
X79223142Y-42045255D01*
X79223137Y-42045253D01*
X79223135Y-42045252D01*
X79133945Y-42004520D01*
X79081143Y-41958767D01*
X79061458Y-41891728D01*
X79081142Y-41824688D01*
X79097773Y-41804050D01*
X81590494Y-39311328D01*
X81651815Y-39277845D01*
X81664290Y-39275791D01*
X81830899Y-39257019D01*
X81830902Y-39257018D01*
X81830905Y-39257018D01*
X82001172Y-39197439D01*
X82153912Y-39101466D01*
X82281466Y-38973912D01*
X82377439Y-38821172D01*
X82437018Y-38650905D01*
X82455790Y-38484290D01*
X82482856Y-38419878D01*
X82491319Y-38410504D01*
X86936819Y-33965004D01*
X86998140Y-33931521D01*
X87067832Y-33936505D01*
X87098808Y-33953420D01*
X87112073Y-33963350D01*
X87112668Y-33963795D01*
X87112671Y-33963797D01*
X87247517Y-34014091D01*
X87247516Y-34014091D01*
X87254444Y-34014835D01*
X87307127Y-34020500D01*
X90552872Y-34020499D01*
X90612483Y-34014091D01*
X90747331Y-33963796D01*
X90862546Y-33877546D01*
X90948796Y-33762331D01*
X90999091Y-33627483D01*
X91005500Y-33567873D01*
X91005499Y-32472128D01*
X90999091Y-32412517D01*
X90948884Y-32277906D01*
X90948797Y-32277671D01*
X90948793Y-32277664D01*
X90862547Y-32162455D01*
X90862544Y-32162452D01*
X90747335Y-32076206D01*
X90747328Y-32076202D01*
X90612482Y-32025908D01*
X90612483Y-32025908D01*
X90552883Y-32019501D01*
X90552881Y-32019500D01*
X90552873Y-32019500D01*
X90552864Y-32019500D01*
X87307129Y-32019500D01*
X87307123Y-32019501D01*
X87247516Y-32025908D01*
X87112671Y-32076202D01*
X87112664Y-32076206D01*
X86997455Y-32162452D01*
X86997452Y-32162455D01*
X86911206Y-32277664D01*
X86911202Y-32277671D01*
X86860908Y-32412516D01*
X86854831Y-32469044D01*
X86828093Y-32533595D01*
X86793543Y-32563175D01*
X86765286Y-32579489D01*
X86765283Y-32579491D01*
X81712803Y-37631970D01*
X81651480Y-37665455D01*
X81639006Y-37667509D01*
X81472399Y-37686280D01*
X81472395Y-37686281D01*
X81302126Y-37745861D01*
X81149387Y-37841834D01*
X81021834Y-37969387D01*
X80925861Y-38122126D01*
X80866281Y-38292395D01*
X80866280Y-38292400D01*
X80847509Y-38459006D01*
X80820443Y-38523420D01*
X80811970Y-38532804D01*
X77456594Y-41888181D01*
X77395271Y-41921666D01*
X77372525Y-41924111D01*
X77372531Y-41924184D01*
X77370501Y-41924329D01*
X77368913Y-41924500D01*
X77368110Y-41924500D01*
X77225703Y-41944974D01*
X77225691Y-41944977D01*
X77087741Y-41985483D01*
X76956863Y-42045252D01*
X76956861Y-42045254D01*
X76841523Y-42119376D01*
X76840083Y-42120196D01*
X76835901Y-42122988D01*
X76727169Y-42217207D01*
X76727166Y-42217210D01*
X76633018Y-42325864D01*
X76633015Y-42325867D01*
X76555231Y-42446905D01*
X76555223Y-42446918D01*
X76498263Y-42571643D01*
X76496015Y-42575939D01*
X76454966Y-42715738D01*
X76454965Y-42715744D01*
X76434503Y-42858059D01*
X76434503Y-42914399D01*
X76434500Y-42914409D01*
X76434500Y-43445573D01*
X76434503Y-43445601D01*
X76434503Y-43501939D01*
X76453703Y-43635478D01*
X76453703Y-43635481D01*
X76454964Y-43644255D01*
X76495503Y-43782313D01*
X76555223Y-43913081D01*
X76555227Y-43913087D01*
X76555230Y-43913094D01*
X76615749Y-44007264D01*
X76633015Y-44034132D01*
X76633018Y-44034136D01*
X76707169Y-44119711D01*
X76727168Y-44142791D01*
X76727171Y-44142794D01*
X76835909Y-44237015D01*
X76889499Y-44271455D01*
X76956857Y-44314744D01*
X76956863Y-44314747D01*
X77087741Y-44374517D01*
X77225696Y-44415024D01*
X77368111Y-44435500D01*
X77368114Y-44435500D01*
X77940000Y-44435500D01*
X78006399Y-44430751D01*
X78011941Y-44430355D01*
X78030562Y-44424887D01*
X78100432Y-44424885D01*
X78159211Y-44462658D01*
X78188237Y-44526213D01*
X78189500Y-44543863D01*
X78189500Y-46897268D01*
X78169815Y-46964307D01*
X78117011Y-47010062D01*
X78047854Y-47020006D01*
X77940001Y-47004500D01*
X77940000Y-47004500D01*
X77368111Y-47004500D01*
X77368110Y-47004500D01*
X77225703Y-47024974D01*
X77225691Y-47024977D01*
X77087741Y-47065483D01*
X76956863Y-47125252D01*
X76956861Y-47125254D01*
X76841523Y-47199376D01*
X76840083Y-47200196D01*
X76835901Y-47202988D01*
X76727169Y-47297207D01*
X76727166Y-47297210D01*
X76633018Y-47405864D01*
X76633015Y-47405867D01*
X76555231Y-47526905D01*
X76555223Y-47526918D01*
X76498263Y-47651643D01*
X76496015Y-47655939D01*
X76454966Y-47795738D01*
X76454963Y-47795748D01*
X76434503Y-47938059D01*
X76434503Y-47994399D01*
X76434500Y-47994409D01*
X76434500Y-48525573D01*
X76434503Y-48525601D01*
X76434503Y-48581939D01*
X76453703Y-48715478D01*
X76453703Y-48715481D01*
X76454964Y-48724255D01*
X76495503Y-48862313D01*
X76555223Y-48993081D01*
X76555227Y-48993087D01*
X76555230Y-48993094D01*
X76615749Y-49087264D01*
X76633015Y-49114132D01*
X76633018Y-49114136D01*
X76727152Y-49222773D01*
X76727168Y-49222791D01*
X76727171Y-49222794D01*
X76835909Y-49317015D01*
X76896386Y-49355881D01*
X76956857Y-49394744D01*
X76956863Y-49394747D01*
X77087741Y-49454517D01*
X77225696Y-49495024D01*
X77368111Y-49515500D01*
X77515613Y-49515500D01*
X77582652Y-49535185D01*
X77603294Y-49551819D01*
X86911985Y-58860510D01*
X87037515Y-58932984D01*
X87177525Y-58970500D01*
X87177526Y-58970500D01*
X87322474Y-58970500D01*
X88641000Y-58970500D01*
X88708039Y-58990185D01*
X88753794Y-59042989D01*
X88763738Y-59112147D01*
X88755561Y-59141952D01*
X88723261Y-59219929D01*
X88667538Y-59452036D01*
X88648811Y-59690000D01*
X88667538Y-59927963D01*
X88723261Y-60160068D01*
X88814608Y-60380600D01*
X88814610Y-60380604D01*
X88814611Y-60380605D01*
X88939332Y-60584132D01*
X89094357Y-60765643D01*
X89179876Y-60838683D01*
X89211520Y-60865710D01*
X89249713Y-60924217D01*
X89250211Y-60994085D01*
X89212857Y-61053131D01*
X89211520Y-61054290D01*
X89094357Y-61154357D01*
X88939332Y-61335867D01*
X88814608Y-61539399D01*
X88723261Y-61759931D01*
X88667538Y-61992036D01*
X88648811Y-62230000D01*
X88667538Y-62467963D01*
X88723261Y-62700068D01*
X88814608Y-62920600D01*
X88814610Y-62920604D01*
X88814611Y-62920605D01*
X88939332Y-63124132D01*
X89094357Y-63305643D01*
X89179876Y-63378683D01*
X89211520Y-63405710D01*
X89249713Y-63464217D01*
X89250211Y-63534085D01*
X89212857Y-63593131D01*
X89211520Y-63594290D01*
X89094357Y-63694357D01*
X88939332Y-63875867D01*
X88814608Y-64079399D01*
X88723261Y-64299931D01*
X88667538Y-64532036D01*
X88648811Y-64770000D01*
X88667538Y-65007963D01*
X88723261Y-65240068D01*
X88814608Y-65460600D01*
X88814610Y-65460604D01*
X88814611Y-65460605D01*
X88939332Y-65664132D01*
X89094357Y-65845643D01*
X89179876Y-65918683D01*
X89211520Y-65945710D01*
X89249713Y-66004217D01*
X89250211Y-66074085D01*
X89212857Y-66133131D01*
X89211520Y-66134290D01*
X89094357Y-66234357D01*
X88939332Y-66415867D01*
X88814608Y-66619399D01*
X88723261Y-66839931D01*
X88667538Y-67072036D01*
X88648811Y-67310000D01*
X88667538Y-67547963D01*
X88723261Y-67780068D01*
X88814608Y-68000600D01*
X88814610Y-68000604D01*
X88814611Y-68000605D01*
X88939332Y-68204132D01*
X89094357Y-68385643D01*
X89153218Y-68435915D01*
X89211520Y-68485710D01*
X89249713Y-68544217D01*
X89250211Y-68614085D01*
X89212857Y-68673131D01*
X89211520Y-68674290D01*
X89094357Y-68774357D01*
X88939332Y-68955867D01*
X88814608Y-69159399D01*
X88723261Y-69379931D01*
X88667538Y-69612036D01*
X88648811Y-69850000D01*
X88667538Y-70087963D01*
X88723261Y-70320068D01*
X88814608Y-70540600D01*
X88814610Y-70540604D01*
X88814611Y-70540605D01*
X88939332Y-70744132D01*
X88973838Y-70784533D01*
X89002408Y-70848293D01*
X88991971Y-70917378D01*
X88967228Y-70952745D01*
X85918891Y-74001083D01*
X85918887Y-74001088D01*
X85861487Y-74100510D01*
X85846418Y-74126610D01*
X85846416Y-74126613D01*
X85827658Y-74196620D01*
X85808900Y-74266625D01*
X85808900Y-74266627D01*
X85808900Y-74504160D01*
X85789215Y-74571199D01*
X85772581Y-74591841D01*
X85729584Y-74634837D01*
X85633611Y-74787576D01*
X85574031Y-74957845D01*
X85574030Y-74957850D01*
X85553835Y-75137096D01*
X85553835Y-75137103D01*
X85574030Y-75316349D01*
X85574031Y-75316354D01*
X85633611Y-75486623D01*
X85714092Y-75614707D01*
X85729584Y-75639362D01*
X85857138Y-75766916D01*
X86009878Y-75862889D01*
X86093953Y-75892308D01*
X86180145Y-75922468D01*
X86180150Y-75922469D01*
X86264501Y-75931973D01*
X86328915Y-75959039D01*
X86368470Y-76016634D01*
X86370608Y-76086471D01*
X86338299Y-76142874D01*
X76408491Y-86072683D01*
X76408489Y-86072685D01*
X76358263Y-86159683D01*
X76358261Y-86159685D01*
X76336018Y-86198209D01*
X76336017Y-86198210D01*
X76336016Y-86198215D01*
X76298500Y-86338225D01*
X76298500Y-86338227D01*
X76298500Y-98936000D01*
X76278815Y-99003039D01*
X76226011Y-99048794D01*
X76174500Y-99060000D01*
X72474760Y-99060000D01*
X72407721Y-99040315D01*
X72361966Y-98987511D01*
X72350760Y-98936000D01*
X72350760Y-98714710D01*
X72350760Y-98714708D01*
X72316652Y-98587414D01*
X72250760Y-98473286D01*
X72157574Y-98380100D01*
X72100510Y-98347154D01*
X72043447Y-98314208D01*
X71979799Y-98297154D01*
X71916152Y-98280100D01*
X69416792Y-98280100D01*
X69285008Y-98280100D01*
X69157712Y-98314208D01*
X69043586Y-98380100D01*
X69043583Y-98380102D01*
X68950402Y-98473283D01*
X68950400Y-98473286D01*
X68884508Y-98587412D01*
X68850400Y-98714708D01*
X68850400Y-98936000D01*
X68830715Y-99003039D01*
X68777911Y-99048794D01*
X68726400Y-99060000D01*
X67465200Y-99060000D01*
X67398161Y-99040315D01*
X67352406Y-98987511D01*
X67341200Y-98936000D01*
X67341200Y-88258027D01*
X67341200Y-88258025D01*
X67303684Y-88118015D01*
X67263079Y-88047685D01*
X67231210Y-87992485D01*
X65339654Y-86100929D01*
X65306169Y-86039606D01*
X65311153Y-85969914D01*
X65353025Y-85913981D01*
X65418489Y-85889564D01*
X65440590Y-85889958D01*
X65492127Y-85895500D01*
X66587872Y-85895499D01*
X66647483Y-85889091D01*
X66782331Y-85838796D01*
X66897546Y-85752546D01*
X66983796Y-85637331D01*
X67034091Y-85502483D01*
X67040500Y-85442873D01*
X67040499Y-82197135D01*
X67579500Y-82197135D01*
X67579500Y-85442870D01*
X67579501Y-85442876D01*
X67585908Y-85502483D01*
X67636202Y-85637328D01*
X67636206Y-85637335D01*
X67722452Y-85752544D01*
X67722455Y-85752547D01*
X67837664Y-85838793D01*
X67837671Y-85838797D01*
X67972517Y-85889091D01*
X67972516Y-85889091D01*
X67976916Y-85889564D01*
X68032127Y-85895500D01*
X69127872Y-85895499D01*
X69187483Y-85889091D01*
X69322331Y-85838796D01*
X69437546Y-85752546D01*
X69523796Y-85637331D01*
X69574091Y-85502483D01*
X69580500Y-85442873D01*
X69580499Y-82197135D01*
X70119500Y-82197135D01*
X70119500Y-85442870D01*
X70119501Y-85442876D01*
X70125908Y-85502483D01*
X70176202Y-85637328D01*
X70176206Y-85637335D01*
X70262452Y-85752544D01*
X70262455Y-85752547D01*
X70377664Y-85838793D01*
X70377671Y-85838797D01*
X70512517Y-85889091D01*
X70512516Y-85889091D01*
X70516916Y-85889564D01*
X70572127Y-85895500D01*
X71667872Y-85895499D01*
X71727483Y-85889091D01*
X71862331Y-85838796D01*
X71977546Y-85752546D01*
X72063796Y-85637331D01*
X72114091Y-85502483D01*
X72120500Y-85442873D01*
X72120499Y-82197135D01*
X72659500Y-82197135D01*
X72659500Y-85442870D01*
X72659501Y-85442876D01*
X72665908Y-85502483D01*
X72716202Y-85637328D01*
X72716206Y-85637335D01*
X72802452Y-85752544D01*
X72802455Y-85752547D01*
X72917664Y-85838793D01*
X72917671Y-85838797D01*
X73052517Y-85889091D01*
X73052516Y-85889091D01*
X73056916Y-85889564D01*
X73112127Y-85895500D01*
X74207872Y-85895499D01*
X74267483Y-85889091D01*
X74402331Y-85838796D01*
X74517546Y-85752546D01*
X74603796Y-85637331D01*
X74654091Y-85502483D01*
X74660500Y-85442873D01*
X74660499Y-82197128D01*
X74654091Y-82137517D01*
X74645205Y-82113693D01*
X74603797Y-82002671D01*
X74603793Y-82002664D01*
X74517547Y-81887455D01*
X74517544Y-81887452D01*
X74402335Y-81801206D01*
X74402328Y-81801202D01*
X74267482Y-81750908D01*
X74267483Y-81750908D01*
X74207883Y-81744501D01*
X74207881Y-81744500D01*
X74207873Y-81744500D01*
X74207864Y-81744500D01*
X73112129Y-81744500D01*
X73112123Y-81744501D01*
X73052516Y-81750908D01*
X72917671Y-81801202D01*
X72917664Y-81801206D01*
X72802455Y-81887452D01*
X72802452Y-81887455D01*
X72716206Y-82002664D01*
X72716202Y-82002671D01*
X72665908Y-82137517D01*
X72659821Y-82194138D01*
X72659501Y-82197123D01*
X72659500Y-82197135D01*
X72120499Y-82197135D01*
X72120499Y-82197128D01*
X72114091Y-82137517D01*
X72105205Y-82113693D01*
X72063797Y-82002671D01*
X72063793Y-82002664D01*
X71977547Y-81887455D01*
X71977544Y-81887452D01*
X71862335Y-81801206D01*
X71862328Y-81801202D01*
X71727482Y-81750908D01*
X71727483Y-81750908D01*
X71667883Y-81744501D01*
X71667881Y-81744500D01*
X71667873Y-81744500D01*
X71667864Y-81744500D01*
X70572129Y-81744500D01*
X70572123Y-81744501D01*
X70512516Y-81750908D01*
X70377671Y-81801202D01*
X70377664Y-81801206D01*
X70262455Y-81887452D01*
X70262452Y-81887455D01*
X70176206Y-82002664D01*
X70176202Y-82002671D01*
X70125908Y-82137517D01*
X70119821Y-82194138D01*
X70119501Y-82197123D01*
X70119500Y-82197135D01*
X69580499Y-82197135D01*
X69580499Y-82197128D01*
X69574091Y-82137517D01*
X69565205Y-82113693D01*
X69523797Y-82002671D01*
X69523793Y-82002664D01*
X69437547Y-81887455D01*
X69437544Y-81887452D01*
X69322335Y-81801206D01*
X69322328Y-81801202D01*
X69187482Y-81750908D01*
X69187483Y-81750908D01*
X69127883Y-81744501D01*
X69127881Y-81744500D01*
X69127873Y-81744500D01*
X69127864Y-81744500D01*
X68032129Y-81744500D01*
X68032123Y-81744501D01*
X67972516Y-81750908D01*
X67837671Y-81801202D01*
X67837664Y-81801206D01*
X67722455Y-81887452D01*
X67722452Y-81887455D01*
X67636206Y-82002664D01*
X67636202Y-82002671D01*
X67585908Y-82137517D01*
X67579821Y-82194138D01*
X67579501Y-82197123D01*
X67579500Y-82197135D01*
X67040499Y-82197135D01*
X67040499Y-82197128D01*
X67034091Y-82137517D01*
X67025205Y-82113693D01*
X66983797Y-82002671D01*
X66983793Y-82002664D01*
X66897547Y-81887455D01*
X66897544Y-81887452D01*
X66782335Y-81801206D01*
X66782328Y-81801202D01*
X66647482Y-81750908D01*
X66647483Y-81750908D01*
X66587883Y-81744501D01*
X66587881Y-81744500D01*
X66587873Y-81744500D01*
X66587864Y-81744500D01*
X65492129Y-81744500D01*
X65492123Y-81744501D01*
X65432516Y-81750908D01*
X65297671Y-81801202D01*
X65297664Y-81801206D01*
X65182455Y-81887452D01*
X65182452Y-81887455D01*
X65096206Y-82002664D01*
X65096202Y-82002671D01*
X65043198Y-82144785D01*
X65040894Y-82143926D01*
X65012301Y-82194138D01*
X64950390Y-82226523D01*
X64880799Y-82220294D01*
X64825622Y-82177431D01*
X64802378Y-82111541D01*
X64802200Y-82104905D01*
X64802200Y-81275927D01*
X64802200Y-81275925D01*
X64764684Y-81135915D01*
X64756068Y-81120991D01*
X64756068Y-81120990D01*
X64692212Y-81010388D01*
X64692208Y-81010383D01*
X64445007Y-80763182D01*
X64411522Y-80701859D01*
X64416506Y-80632167D01*
X64433422Y-80601190D01*
X64443793Y-80587335D01*
X64443792Y-80587335D01*
X64443796Y-80587331D01*
X64494091Y-80452483D01*
X64500500Y-80392873D01*
X64500499Y-77147135D01*
X65039500Y-77147135D01*
X65039500Y-80392870D01*
X65039501Y-80392876D01*
X65045908Y-80452483D01*
X65096202Y-80587328D01*
X65096206Y-80587335D01*
X65182452Y-80702544D01*
X65182455Y-80702547D01*
X65297664Y-80788793D01*
X65297671Y-80788797D01*
X65432517Y-80839091D01*
X65432516Y-80839091D01*
X65439444Y-80839835D01*
X65492127Y-80845500D01*
X66587872Y-80845499D01*
X66647483Y-80839091D01*
X66782331Y-80788796D01*
X66897546Y-80702546D01*
X66983796Y-80587331D01*
X67034091Y-80452483D01*
X67040500Y-80392873D01*
X67040499Y-77147135D01*
X67579500Y-77147135D01*
X67579500Y-80392870D01*
X67579501Y-80392876D01*
X67585908Y-80452483D01*
X67636202Y-80587328D01*
X67636206Y-80587335D01*
X67722452Y-80702544D01*
X67722455Y-80702547D01*
X67837664Y-80788793D01*
X67837671Y-80788797D01*
X67972517Y-80839091D01*
X67972516Y-80839091D01*
X67979444Y-80839835D01*
X68032127Y-80845500D01*
X69127872Y-80845499D01*
X69187483Y-80839091D01*
X69322331Y-80788796D01*
X69437546Y-80702546D01*
X69523796Y-80587331D01*
X69574091Y-80452483D01*
X69580500Y-80392873D01*
X69580499Y-77147135D01*
X70119500Y-77147135D01*
X70119500Y-80392870D01*
X70119501Y-80392876D01*
X70125908Y-80452483D01*
X70176202Y-80587328D01*
X70176206Y-80587335D01*
X70262452Y-80702544D01*
X70262455Y-80702547D01*
X70377664Y-80788793D01*
X70377671Y-80788797D01*
X70512517Y-80839091D01*
X70512516Y-80839091D01*
X70519444Y-80839835D01*
X70572127Y-80845500D01*
X71667872Y-80845499D01*
X71727483Y-80839091D01*
X71862331Y-80788796D01*
X71977546Y-80702546D01*
X72063796Y-80587331D01*
X72114091Y-80452483D01*
X72120500Y-80392873D01*
X72120499Y-77147135D01*
X72659500Y-77147135D01*
X72659500Y-80392870D01*
X72659501Y-80392876D01*
X72665908Y-80452483D01*
X72716202Y-80587328D01*
X72716206Y-80587335D01*
X72802452Y-80702544D01*
X72802455Y-80702547D01*
X72917664Y-80788793D01*
X72917671Y-80788797D01*
X73052517Y-80839091D01*
X73052516Y-80839091D01*
X73059444Y-80839835D01*
X73112127Y-80845500D01*
X74207872Y-80845499D01*
X74267483Y-80839091D01*
X74402331Y-80788796D01*
X74517546Y-80702546D01*
X74603796Y-80587331D01*
X74654091Y-80452483D01*
X74660500Y-80392873D01*
X74660499Y-77147128D01*
X74655299Y-77098757D01*
X74654091Y-77087516D01*
X74603797Y-76952671D01*
X74603793Y-76952664D01*
X74517547Y-76837455D01*
X74517544Y-76837452D01*
X74402335Y-76751206D01*
X74402328Y-76751202D01*
X74267482Y-76700908D01*
X74267483Y-76700908D01*
X74207883Y-76694501D01*
X74207881Y-76694500D01*
X74207873Y-76694500D01*
X74207864Y-76694500D01*
X73112129Y-76694500D01*
X73112123Y-76694501D01*
X73052516Y-76700908D01*
X72917671Y-76751202D01*
X72917664Y-76751206D01*
X72802455Y-76837452D01*
X72802452Y-76837455D01*
X72716206Y-76952664D01*
X72716202Y-76952671D01*
X72665908Y-77087517D01*
X72659501Y-77147116D01*
X72659501Y-77147123D01*
X72659500Y-77147135D01*
X72120499Y-77147135D01*
X72120499Y-77147128D01*
X72115299Y-77098757D01*
X72114091Y-77087516D01*
X72063797Y-76952671D01*
X72063793Y-76952664D01*
X71977547Y-76837455D01*
X71977544Y-76837452D01*
X71862335Y-76751206D01*
X71862328Y-76751202D01*
X71727482Y-76700908D01*
X71727483Y-76700908D01*
X71667883Y-76694501D01*
X71667881Y-76694500D01*
X71667873Y-76694500D01*
X71667864Y-76694500D01*
X70572129Y-76694500D01*
X70572123Y-76694501D01*
X70512516Y-76700908D01*
X70377671Y-76751202D01*
X70377664Y-76751206D01*
X70262455Y-76837452D01*
X70262452Y-76837455D01*
X70176206Y-76952664D01*
X70176202Y-76952671D01*
X70125908Y-77087517D01*
X70119501Y-77147116D01*
X70119501Y-77147123D01*
X70119500Y-77147135D01*
X69580499Y-77147135D01*
X69580499Y-77147128D01*
X69575299Y-77098757D01*
X69574091Y-77087516D01*
X69523797Y-76952671D01*
X69523793Y-76952664D01*
X69437547Y-76837455D01*
X69437544Y-76837452D01*
X69322335Y-76751206D01*
X69322328Y-76751202D01*
X69187482Y-76700908D01*
X69187483Y-76700908D01*
X69127883Y-76694501D01*
X69127881Y-76694500D01*
X69127873Y-76694500D01*
X69127864Y-76694500D01*
X68032129Y-76694500D01*
X68032123Y-76694501D01*
X67972516Y-76700908D01*
X67837671Y-76751202D01*
X67837664Y-76751206D01*
X67722455Y-76837452D01*
X67722452Y-76837455D01*
X67636206Y-76952664D01*
X67636202Y-76952671D01*
X67585908Y-77087517D01*
X67579501Y-77147116D01*
X67579501Y-77147123D01*
X67579500Y-77147135D01*
X67040499Y-77147135D01*
X67040499Y-77147128D01*
X67035299Y-77098757D01*
X67034091Y-77087516D01*
X66983797Y-76952671D01*
X66983793Y-76952664D01*
X66897547Y-76837455D01*
X66897544Y-76837452D01*
X66782335Y-76751206D01*
X66782328Y-76751202D01*
X66647482Y-76700908D01*
X66647483Y-76700908D01*
X66587883Y-76694501D01*
X66587881Y-76694500D01*
X66587873Y-76694500D01*
X66587864Y-76694500D01*
X65492129Y-76694500D01*
X65492123Y-76694501D01*
X65432516Y-76700908D01*
X65297671Y-76751202D01*
X65297664Y-76751206D01*
X65182455Y-76837452D01*
X65182452Y-76837455D01*
X65096206Y-76952664D01*
X65096202Y-76952671D01*
X65045908Y-77087517D01*
X65039501Y-77147116D01*
X65039501Y-77147123D01*
X65039500Y-77147135D01*
X64500499Y-77147135D01*
X64500499Y-77147128D01*
X64495299Y-77098757D01*
X64494091Y-77087516D01*
X64443797Y-76952671D01*
X64443793Y-76952664D01*
X64357547Y-76837455D01*
X64357544Y-76837452D01*
X64242335Y-76751206D01*
X64242328Y-76751202D01*
X64107482Y-76700908D01*
X64107483Y-76700908D01*
X64047883Y-76694501D01*
X64047881Y-76694500D01*
X64047873Y-76694500D01*
X64047864Y-76694500D01*
X62952129Y-76694500D01*
X62952123Y-76694501D01*
X62892516Y-76700908D01*
X62757671Y-76751202D01*
X62757664Y-76751206D01*
X62642455Y-76837452D01*
X62642452Y-76837455D01*
X62556206Y-76952664D01*
X62556202Y-76952671D01*
X62505908Y-77087517D01*
X62499501Y-77147116D01*
X62499501Y-77147123D01*
X62499500Y-77147135D01*
X62499500Y-79759227D01*
X62479815Y-79826266D01*
X62427011Y-79872021D01*
X62357853Y-79881965D01*
X62328284Y-79872954D01*
X62328195Y-79873211D01*
X62321906Y-79871010D01*
X62321698Y-79870947D01*
X62321626Y-79870912D01*
X62151354Y-79811331D01*
X62151350Y-79811330D01*
X62070615Y-79802234D01*
X62006201Y-79775167D01*
X61966646Y-79717572D01*
X61960499Y-79679014D01*
X61960499Y-77147129D01*
X61960498Y-77147123D01*
X61960497Y-77147116D01*
X61955299Y-77098757D01*
X61954091Y-77087516D01*
X61903797Y-76952671D01*
X61903793Y-76952664D01*
X61817547Y-76837455D01*
X61817544Y-76837452D01*
X61702335Y-76751206D01*
X61702328Y-76751202D01*
X61567482Y-76700908D01*
X61567483Y-76700908D01*
X61507883Y-76694501D01*
X61507881Y-76694500D01*
X61507873Y-76694500D01*
X61507864Y-76694500D01*
X60412129Y-76694500D01*
X60412123Y-76694501D01*
X60352516Y-76700908D01*
X60217671Y-76751202D01*
X60217664Y-76751206D01*
X60102455Y-76837452D01*
X60102452Y-76837455D01*
X60016206Y-76952664D01*
X60016202Y-76952671D01*
X59965908Y-77087517D01*
X59959501Y-77147116D01*
X59959501Y-77147123D01*
X59959500Y-77147135D01*
X59959500Y-79759227D01*
X59939815Y-79826266D01*
X59887011Y-79872021D01*
X59817853Y-79881965D01*
X59788284Y-79872954D01*
X59788195Y-79873211D01*
X59781906Y-79871010D01*
X59781698Y-79870947D01*
X59781626Y-79870912D01*
X59611354Y-79811331D01*
X59611350Y-79811330D01*
X59530615Y-79802234D01*
X59466201Y-79775167D01*
X59426646Y-79717572D01*
X59420499Y-79679014D01*
X59420499Y-77147129D01*
X59420498Y-77147123D01*
X59420497Y-77147116D01*
X59415299Y-77098757D01*
X59414091Y-77087516D01*
X59363797Y-76952671D01*
X59363793Y-76952664D01*
X59277547Y-76837455D01*
X59277544Y-76837452D01*
X59162335Y-76751206D01*
X59162328Y-76751202D01*
X59027482Y-76700908D01*
X59027483Y-76700908D01*
X58967883Y-76694501D01*
X58967881Y-76694500D01*
X58967873Y-76694500D01*
X58967864Y-76694500D01*
X57872129Y-76694500D01*
X57872123Y-76694501D01*
X57812516Y-76700908D01*
X57677671Y-76751202D01*
X57677664Y-76751206D01*
X57562455Y-76837452D01*
X57562452Y-76837455D01*
X57476206Y-76952664D01*
X57476202Y-76952671D01*
X57425908Y-77087517D01*
X57419501Y-77147116D01*
X57419501Y-77147123D01*
X57419500Y-77147135D01*
X57419500Y-79759227D01*
X57399815Y-79826266D01*
X57347011Y-79872021D01*
X57277853Y-79881965D01*
X57248284Y-79872954D01*
X57248195Y-79873211D01*
X57241906Y-79871010D01*
X57241698Y-79870947D01*
X57241626Y-79870912D01*
X57071354Y-79811331D01*
X57071350Y-79811330D01*
X56990615Y-79802234D01*
X56926201Y-79775167D01*
X56886646Y-79717572D01*
X56880499Y-79679014D01*
X56880499Y-77147129D01*
X56880498Y-77147123D01*
X56880497Y-77147116D01*
X56875299Y-77098757D01*
X56874091Y-77087516D01*
X56823797Y-76952671D01*
X56823793Y-76952664D01*
X56737547Y-76837455D01*
X56737544Y-76837452D01*
X56622335Y-76751206D01*
X56622328Y-76751202D01*
X56487482Y-76700908D01*
X56487483Y-76700908D01*
X56427883Y-76694501D01*
X56427881Y-76694500D01*
X56427873Y-76694500D01*
X56427865Y-76694500D01*
X56004000Y-76694500D01*
X55936961Y-76674815D01*
X55891206Y-76622011D01*
X55880000Y-76570500D01*
X55880000Y-33144000D01*
X55899685Y-33076961D01*
X55952489Y-33031206D01*
X56004000Y-33020000D01*
X81280000Y-33020000D01*
X81280000Y-28064000D01*
X81299685Y-27996961D01*
X81352489Y-27951206D01*
X81404000Y-27940000D01*
X121796000Y-27940000D01*
X121863039Y-27959685D01*
G37*
%TD.AperFunction*%
%TA.AperFunction,Conductor*%
G36*
X88698125Y-75442612D02*
G01*
X88754058Y-75484484D01*
X88769352Y-75511341D01*
X88814608Y-75620600D01*
X88814610Y-75620604D01*
X88814611Y-75620605D01*
X88939332Y-75824132D01*
X88997561Y-75892310D01*
X89026132Y-75956069D01*
X89015695Y-76025155D01*
X88990952Y-76060521D01*
X84410153Y-80641320D01*
X84348830Y-80674805D01*
X84336356Y-80676859D01*
X84169749Y-80695630D01*
X84169745Y-80695631D01*
X83999476Y-80755211D01*
X83846737Y-80851184D01*
X83719184Y-80978737D01*
X83623211Y-81131476D01*
X83563631Y-81301745D01*
X83563630Y-81301750D01*
X83543435Y-81480996D01*
X83543435Y-81481003D01*
X83563630Y-81660249D01*
X83563631Y-81660254D01*
X83623211Y-81830523D01*
X83658984Y-81887455D01*
X83719184Y-81983262D01*
X83846738Y-82110816D01*
X83937080Y-82167582D01*
X83984113Y-82197135D01*
X83999478Y-82206789D01*
X84148020Y-82258766D01*
X84169745Y-82266368D01*
X84169750Y-82266369D01*
X84348996Y-82286565D01*
X84349000Y-82286565D01*
X84349004Y-82286565D01*
X84528249Y-82266369D01*
X84528252Y-82266368D01*
X84528255Y-82266368D01*
X84698522Y-82206789D01*
X84851262Y-82110816D01*
X84978816Y-81983262D01*
X85074789Y-81830522D01*
X85134368Y-81660255D01*
X85135860Y-81647019D01*
X85148199Y-81537498D01*
X85153140Y-81493640D01*
X85180206Y-81429228D01*
X85188669Y-81419854D01*
X88576369Y-78032154D01*
X88637689Y-77998672D01*
X88707381Y-78003656D01*
X88763314Y-78045528D01*
X88778608Y-78072384D01*
X88815057Y-78160380D01*
X88933229Y-78353217D01*
X89789000Y-77497446D01*
X89789000Y-77520160D01*
X89814964Y-77617061D01*
X89865124Y-77703940D01*
X89936060Y-77774876D01*
X90022939Y-77825036D01*
X90119840Y-77851000D01*
X90142553Y-77851000D01*
X89286781Y-78706769D01*
X89479621Y-78824943D01*
X89700075Y-78916257D01*
X89700072Y-78916257D01*
X89932116Y-78971966D01*
X90170000Y-78990687D01*
X90407883Y-78971966D01*
X90639925Y-78916257D01*
X90860378Y-78824943D01*
X91053217Y-78706770D01*
X91053217Y-78706769D01*
X90197447Y-77851000D01*
X90220160Y-77851000D01*
X90317061Y-77825036D01*
X90403940Y-77774876D01*
X90474876Y-77703940D01*
X90525036Y-77617061D01*
X90551000Y-77520160D01*
X90551000Y-77497448D01*
X91409674Y-78356122D01*
X91467271Y-78365878D01*
X91507248Y-78396818D01*
X91552626Y-78449949D01*
X91634357Y-78545643D01*
X91815868Y-78700668D01*
X92019395Y-78825389D01*
X92019397Y-78825389D01*
X92019399Y-78825391D01*
X92082949Y-78851714D01*
X92239927Y-78916737D01*
X92472034Y-78972461D01*
X92710000Y-78991189D01*
X92947966Y-78972461D01*
X93180073Y-78916737D01*
X93400605Y-78825389D01*
X93604132Y-78700668D01*
X93785643Y-78545643D01*
X93885711Y-78428478D01*
X93944217Y-78390286D01*
X94014084Y-78389787D01*
X94073131Y-78427141D01*
X94074255Y-78428439D01*
X94174357Y-78545643D01*
X94355868Y-78700668D01*
X94559395Y-78825389D01*
X94559397Y-78825389D01*
X94559399Y-78825391D01*
X94622949Y-78851714D01*
X94779927Y-78916737D01*
X95012034Y-78972461D01*
X95250000Y-78991189D01*
X95487966Y-78972461D01*
X95720073Y-78916737D01*
X95940605Y-78825389D01*
X96144132Y-78700668D01*
X96325643Y-78545643D01*
X96425711Y-78428478D01*
X96484217Y-78390286D01*
X96554084Y-78389787D01*
X96613131Y-78427141D01*
X96614255Y-78428439D01*
X96714357Y-78545643D01*
X96895868Y-78700668D01*
X97099395Y-78825389D01*
X97099397Y-78825389D01*
X97099399Y-78825391D01*
X97162949Y-78851714D01*
X97319927Y-78916737D01*
X97552034Y-78972461D01*
X97790000Y-78991189D01*
X98027966Y-78972461D01*
X98260073Y-78916737D01*
X98480605Y-78825389D01*
X98684132Y-78700668D01*
X98865643Y-78545643D01*
X98965711Y-78428478D01*
X99024217Y-78390286D01*
X99094084Y-78389787D01*
X99153131Y-78427141D01*
X99154255Y-78428439D01*
X99254357Y-78545643D01*
X99435868Y-78700668D01*
X99639395Y-78825389D01*
X99639397Y-78825389D01*
X99639399Y-78825391D01*
X99702949Y-78851714D01*
X99859927Y-78916737D01*
X100092034Y-78972461D01*
X100330000Y-78991189D01*
X100567966Y-78972461D01*
X100800073Y-78916737D01*
X101020605Y-78825389D01*
X101224132Y-78700668D01*
X101405643Y-78545643D01*
X101505711Y-78428478D01*
X101564217Y-78390286D01*
X101634084Y-78389787D01*
X101693131Y-78427141D01*
X101694255Y-78428439D01*
X101794357Y-78545643D01*
X101975868Y-78700668D01*
X102179395Y-78825389D01*
X102242952Y-78851715D01*
X102297355Y-78895555D01*
X102319421Y-78961849D01*
X102319500Y-78966276D01*
X102319500Y-95267527D01*
X102319497Y-95267577D01*
X102319500Y-95337273D01*
X102319500Y-95420086D01*
X102334238Y-95475077D01*
X102334238Y-95475084D01*
X102334240Y-95475084D01*
X102357019Y-95560096D01*
X102357025Y-95560107D01*
X102357026Y-95560109D01*
X102366593Y-95576678D01*
X102394446Y-95624917D01*
X102394447Y-95624919D01*
X102429491Y-95685615D01*
X102429505Y-95685634D01*
X102429506Y-95685635D01*
X102483557Y-95739681D01*
X102483562Y-95739686D01*
X102537334Y-95793459D01*
X102537377Y-95793497D01*
X104371180Y-97627130D01*
X105592478Y-98848315D01*
X105625966Y-98909636D01*
X105620985Y-98979328D01*
X105579116Y-99035264D01*
X105513653Y-99059684D01*
X105504801Y-99060000D01*
X99911859Y-99060000D01*
X99844820Y-99040315D01*
X99824178Y-99023682D01*
X85529312Y-84728988D01*
X85447114Y-84681532D01*
X85403785Y-84656516D01*
X85403782Y-84656515D01*
X85403765Y-84656510D01*
X85403754Y-84656507D01*
X85382125Y-84650711D01*
X85382123Y-84650711D01*
X85263775Y-84619000D01*
X85263774Y-84619000D01*
X82001540Y-84619000D01*
X81934501Y-84599315D01*
X81913859Y-84582681D01*
X81870862Y-84539684D01*
X81718123Y-84443711D01*
X81547854Y-84384131D01*
X81547849Y-84384130D01*
X81368604Y-84363935D01*
X81368596Y-84363935D01*
X81189350Y-84384130D01*
X81189345Y-84384131D01*
X81019076Y-84443711D01*
X80866337Y-84539684D01*
X80738784Y-84667237D01*
X80642811Y-84819976D01*
X80583231Y-84990245D01*
X80583230Y-84990250D01*
X80563035Y-85169496D01*
X80563035Y-85169503D01*
X80583230Y-85348749D01*
X80583231Y-85348754D01*
X80642811Y-85519023D01*
X80738784Y-85671762D01*
X80866339Y-85799317D01*
X80891526Y-85815143D01*
X80937816Y-85867477D01*
X80948774Y-85934016D01*
X80948235Y-85938801D01*
X80948235Y-85938803D01*
X80968430Y-86118049D01*
X80968431Y-86118054D01*
X81028011Y-86288323D01*
X81059367Y-86338225D01*
X81123984Y-86441062D01*
X81251538Y-86568616D01*
X81404278Y-86664589D01*
X81574545Y-86724168D01*
X81574550Y-86724169D01*
X81753796Y-86744365D01*
X81753800Y-86744365D01*
X81753804Y-86744365D01*
X81933049Y-86724169D01*
X81933052Y-86724168D01*
X81933055Y-86724168D01*
X82103322Y-86664589D01*
X82256062Y-86568616D01*
X82299059Y-86525619D01*
X82360382Y-86492134D01*
X82386740Y-86489300D01*
X83181818Y-86489300D01*
X83248857Y-86508985D01*
X83269497Y-86525617D01*
X95575987Y-98831797D01*
X95592509Y-98848318D01*
X95625995Y-98909640D01*
X95621011Y-98979332D01*
X95579141Y-99035266D01*
X95513677Y-99059684D01*
X95504829Y-99060000D01*
X94059640Y-99060000D01*
X93992601Y-99040315D01*
X93971959Y-99023681D01*
X93902662Y-98954384D01*
X93749923Y-98858411D01*
X93579654Y-98798831D01*
X93579649Y-98798830D01*
X93400404Y-98778635D01*
X93400396Y-98778635D01*
X93221150Y-98798830D01*
X93221145Y-98798831D01*
X93050876Y-98858411D01*
X92898137Y-98954384D01*
X92828841Y-99023681D01*
X92767518Y-99057166D01*
X92741160Y-99060000D01*
X92411410Y-99060000D01*
X92344371Y-99040315D01*
X92323730Y-99023683D01*
X86820904Y-93521036D01*
X82880777Y-89581038D01*
X82847292Y-89519716D01*
X82845238Y-89507239D01*
X82826469Y-89340649D01*
X82826468Y-89340645D01*
X82766888Y-89170376D01*
X82710239Y-89080220D01*
X82670916Y-89017638D01*
X82543362Y-88890084D01*
X82502666Y-88864513D01*
X82390623Y-88794111D01*
X82220354Y-88734531D01*
X82220349Y-88734530D01*
X82041104Y-88714335D01*
X82041096Y-88714335D01*
X81861850Y-88734530D01*
X81861845Y-88734531D01*
X81691576Y-88794111D01*
X81538837Y-88890084D01*
X81411284Y-89017637D01*
X81315311Y-89170376D01*
X81255731Y-89340645D01*
X81255730Y-89340650D01*
X81235535Y-89519896D01*
X81235535Y-89519903D01*
X81255730Y-89699149D01*
X81255731Y-89699154D01*
X81315311Y-89869423D01*
X81385558Y-89981219D01*
X81411284Y-90022162D01*
X81538838Y-90149716D01*
X81691578Y-90245689D01*
X81861845Y-90305268D01*
X81861850Y-90305269D01*
X81979959Y-90318576D01*
X82028472Y-90324042D01*
X82092886Y-90351108D01*
X82102269Y-90359579D01*
X84342119Y-92599356D01*
X90551445Y-98808480D01*
X90591284Y-98848317D01*
X90624770Y-98909640D01*
X90619786Y-98979332D01*
X90577916Y-99035266D01*
X90512452Y-99059684D01*
X90503604Y-99060000D01*
X89384675Y-99060000D01*
X89317636Y-99040315D01*
X89296996Y-99023683D01*
X89286021Y-99012709D01*
X85157689Y-94884566D01*
X83486479Y-93213433D01*
X83452992Y-93152111D01*
X83450938Y-93139633D01*
X83432169Y-92973050D01*
X83432168Y-92973045D01*
X83372588Y-92802776D01*
X83306235Y-92697177D01*
X83276616Y-92650038D01*
X83149062Y-92522484D01*
X82996323Y-92426511D01*
X82826054Y-92366931D01*
X82826049Y-92366930D01*
X82646804Y-92346735D01*
X82646796Y-92346735D01*
X82467550Y-92366930D01*
X82467545Y-92366931D01*
X82297276Y-92426511D01*
X82144536Y-92522485D01*
X82121298Y-92545723D01*
X82059974Y-92579207D01*
X82019735Y-92581260D01*
X81834904Y-92560435D01*
X81834896Y-92560435D01*
X81655650Y-92580630D01*
X81655645Y-92580631D01*
X81485376Y-92640211D01*
X81332637Y-92736184D01*
X81205084Y-92863737D01*
X81109111Y-93016476D01*
X81049531Y-93186745D01*
X81049530Y-93186750D01*
X81029335Y-93365996D01*
X81029335Y-93366003D01*
X81049530Y-93545249D01*
X81049531Y-93545254D01*
X81109111Y-93715523D01*
X81186637Y-93838904D01*
X81205084Y-93868262D01*
X81332638Y-93995816D01*
X81412240Y-94045833D01*
X81476535Y-94086233D01*
X81485378Y-94091789D01*
X81616290Y-94137597D01*
X81655645Y-94151368D01*
X81655649Y-94151369D01*
X81754491Y-94162505D01*
X81822257Y-94170140D01*
X81886670Y-94197206D01*
X81896054Y-94205679D01*
X81997116Y-94306741D01*
X82030601Y-94368064D01*
X82025617Y-94437756D01*
X81997122Y-94482098D01*
X81986385Y-94492835D01*
X81890411Y-94645576D01*
X81830831Y-94815845D01*
X81830830Y-94815850D01*
X81810635Y-94995096D01*
X81810635Y-94995103D01*
X81830830Y-95174349D01*
X81830831Y-95174354D01*
X81890411Y-95344623D01*
X81986384Y-95497362D01*
X82029381Y-95540359D01*
X82062866Y-95601682D01*
X82065700Y-95628040D01*
X82065700Y-98936000D01*
X82046015Y-99003039D01*
X81993211Y-99048794D01*
X81941700Y-99060000D01*
X80279469Y-99060000D01*
X80212430Y-99040315D01*
X80166675Y-98987511D01*
X80156249Y-98949883D01*
X80136269Y-98772550D01*
X80136268Y-98772545D01*
X80076688Y-98602276D01*
X79980715Y-98449537D01*
X79853162Y-98321984D01*
X79700423Y-98226011D01*
X79530154Y-98166431D01*
X79530149Y-98166430D01*
X79350904Y-98146235D01*
X79350896Y-98146235D01*
X79171650Y-98166430D01*
X79171645Y-98166431D01*
X79001376Y-98226011D01*
X78848637Y-98321984D01*
X78721084Y-98449537D01*
X78625111Y-98602276D01*
X78565531Y-98772545D01*
X78565530Y-98772550D01*
X78545551Y-98949883D01*
X78518485Y-99014297D01*
X78460890Y-99053852D01*
X78422331Y-99060000D01*
X77523500Y-99060000D01*
X77456461Y-99040315D01*
X77410706Y-98987511D01*
X77399500Y-98936000D01*
X77399500Y-86690086D01*
X77419185Y-86623047D01*
X77435814Y-86602410D01*
X88567112Y-75471111D01*
X88628433Y-75437628D01*
X88698125Y-75442612D01*
G37*
%TD.AperFunction*%
%TA.AperFunction,Conductor*%
G36*
X94073131Y-75887141D02*
G01*
X94074255Y-75888439D01*
X94174357Y-76005643D01*
X94238611Y-76060521D01*
X94291520Y-76105710D01*
X94329713Y-76164217D01*
X94330211Y-76234085D01*
X94292857Y-76293131D01*
X94291520Y-76294290D01*
X94174357Y-76394357D01*
X94074290Y-76511520D01*
X94015783Y-76549713D01*
X93945915Y-76550211D01*
X93886869Y-76512857D01*
X93885710Y-76511520D01*
X93835836Y-76453126D01*
X93785643Y-76394357D01*
X93668478Y-76294288D01*
X93630286Y-76235783D01*
X93629787Y-76165916D01*
X93667141Y-76106869D01*
X93668439Y-76105744D01*
X93785643Y-76005643D01*
X93885711Y-75888478D01*
X93944217Y-75850286D01*
X94014084Y-75849787D01*
X94073131Y-75887141D01*
G37*
%TD.AperFunction*%
%TA.AperFunction,Conductor*%
G36*
X96613131Y-75887141D02*
G01*
X96614255Y-75888439D01*
X96714357Y-76005643D01*
X96778611Y-76060521D01*
X96831520Y-76105710D01*
X96869713Y-76164217D01*
X96870211Y-76234085D01*
X96832857Y-76293131D01*
X96831520Y-76294290D01*
X96714357Y-76394357D01*
X96614290Y-76511520D01*
X96555783Y-76549713D01*
X96485915Y-76550211D01*
X96426869Y-76512857D01*
X96425710Y-76511520D01*
X96375836Y-76453126D01*
X96325643Y-76394357D01*
X96208478Y-76294288D01*
X96170286Y-76235783D01*
X96169787Y-76165916D01*
X96207141Y-76106869D01*
X96208439Y-76105744D01*
X96325643Y-76005643D01*
X96425711Y-75888478D01*
X96484217Y-75850286D01*
X96554084Y-75849787D01*
X96613131Y-75887141D01*
G37*
%TD.AperFunction*%
%TA.AperFunction,Conductor*%
G36*
X99153131Y-75887141D02*
G01*
X99154255Y-75888439D01*
X99254357Y-76005643D01*
X99318611Y-76060521D01*
X99371520Y-76105710D01*
X99409713Y-76164217D01*
X99410211Y-76234085D01*
X99372857Y-76293131D01*
X99371520Y-76294290D01*
X99254357Y-76394357D01*
X99154290Y-76511520D01*
X99095783Y-76549713D01*
X99025915Y-76550211D01*
X98966869Y-76512857D01*
X98965710Y-76511520D01*
X98915836Y-76453126D01*
X98865643Y-76394357D01*
X98748478Y-76294288D01*
X98710286Y-76235783D01*
X98709787Y-76165916D01*
X98747141Y-76106869D01*
X98748439Y-76105744D01*
X98865643Y-76005643D01*
X98965711Y-75888478D01*
X99024217Y-75850286D01*
X99094084Y-75849787D01*
X99153131Y-75887141D01*
G37*
%TD.AperFunction*%
%TA.AperFunction,Conductor*%
G36*
X110109000Y-57200160D02*
G01*
X110134964Y-57297061D01*
X110185124Y-57383940D01*
X110256060Y-57454876D01*
X110342939Y-57505036D01*
X110439840Y-57531000D01*
X110462551Y-57531000D01*
X109603876Y-58389674D01*
X109594121Y-58447272D01*
X109563181Y-58487249D01*
X109414357Y-58614357D01*
X109259332Y-58795867D01*
X109134608Y-58999399D01*
X109043261Y-59219931D01*
X108987538Y-59452036D01*
X108968811Y-59690000D01*
X108987538Y-59927963D01*
X109043261Y-60160068D01*
X109134608Y-60380600D01*
X109134610Y-60380604D01*
X109134611Y-60380605D01*
X109259332Y-60584132D01*
X109414357Y-60765643D01*
X109499876Y-60838683D01*
X109531520Y-60865710D01*
X109569713Y-60924217D01*
X109570211Y-60994085D01*
X109532857Y-61053131D01*
X109531520Y-61054290D01*
X109414357Y-61154357D01*
X109259332Y-61335867D01*
X109134608Y-61539399D01*
X109043261Y-61759931D01*
X108987538Y-61992036D01*
X108968811Y-62230000D01*
X108987538Y-62467963D01*
X109043261Y-62700068D01*
X109134608Y-62920600D01*
X109134610Y-62920604D01*
X109134611Y-62920605D01*
X109259332Y-63124132D01*
X109414357Y-63305643D01*
X109499876Y-63378683D01*
X109531520Y-63405710D01*
X109569713Y-63464217D01*
X109570211Y-63534085D01*
X109532857Y-63593131D01*
X109531520Y-63594290D01*
X109414357Y-63694357D01*
X109259332Y-63875867D01*
X109134608Y-64079399D01*
X109043261Y-64299931D01*
X108987538Y-64532036D01*
X108968811Y-64770000D01*
X108987538Y-65007963D01*
X109043261Y-65240068D01*
X109134608Y-65460600D01*
X109134610Y-65460604D01*
X109134611Y-65460605D01*
X109259332Y-65664132D01*
X109414357Y-65845643D01*
X109499876Y-65918683D01*
X109531520Y-65945710D01*
X109569713Y-66004217D01*
X109570211Y-66074085D01*
X109532857Y-66133131D01*
X109531520Y-66134290D01*
X109414357Y-66234357D01*
X109259332Y-66415867D01*
X109134608Y-66619399D01*
X109043261Y-66839931D01*
X108987538Y-67072036D01*
X108968811Y-67310000D01*
X108987538Y-67547963D01*
X109043261Y-67780068D01*
X109134608Y-68000600D01*
X109134610Y-68000604D01*
X109134611Y-68000605D01*
X109259332Y-68204132D01*
X109414357Y-68385643D01*
X109473218Y-68435915D01*
X109531520Y-68485710D01*
X109569713Y-68544217D01*
X109570211Y-68614085D01*
X109532857Y-68673131D01*
X109531520Y-68674290D01*
X109414357Y-68774357D01*
X109259332Y-68955867D01*
X109134608Y-69159399D01*
X109043261Y-69379931D01*
X108987538Y-69612036D01*
X108968811Y-69850000D01*
X108987538Y-70087963D01*
X109043261Y-70320068D01*
X109134608Y-70540600D01*
X109134610Y-70540604D01*
X109134611Y-70540605D01*
X109259332Y-70744132D01*
X109414357Y-70925643D01*
X109499876Y-70998683D01*
X109531520Y-71025710D01*
X109569713Y-71084217D01*
X109570211Y-71154085D01*
X109532857Y-71213131D01*
X109531520Y-71214290D01*
X109414357Y-71314357D01*
X109259332Y-71495867D01*
X109134608Y-71699399D01*
X109043261Y-71919931D01*
X108987538Y-72152036D01*
X108968811Y-72390000D01*
X108987538Y-72627963D01*
X109043261Y-72860068D01*
X109134608Y-73080600D01*
X109134610Y-73080604D01*
X109134611Y-73080605D01*
X109259332Y-73284132D01*
X109414357Y-73465643D01*
X109483169Y-73524414D01*
X109531520Y-73565710D01*
X109569713Y-73624217D01*
X109570211Y-73694085D01*
X109532857Y-73753131D01*
X109531520Y-73754290D01*
X109414357Y-73854357D01*
X109314290Y-73971520D01*
X109255783Y-74009713D01*
X109185915Y-74010211D01*
X109126869Y-73972857D01*
X109125710Y-73971520D01*
X109085541Y-73924489D01*
X109025643Y-73854357D01*
X108844132Y-73699332D01*
X108640605Y-73574611D01*
X108640604Y-73574610D01*
X108640600Y-73574608D01*
X108420068Y-73483261D01*
X108187962Y-73427538D01*
X108187963Y-73427538D01*
X107950000Y-73408811D01*
X107712036Y-73427538D01*
X107479931Y-73483261D01*
X107259399Y-73574608D01*
X107055867Y-73699332D01*
X106874357Y-73854357D01*
X106774290Y-73971520D01*
X106715783Y-74009713D01*
X106645915Y-74010211D01*
X106586869Y-73972857D01*
X106585710Y-73971520D01*
X106545541Y-73924489D01*
X106485643Y-73854357D01*
X106304132Y-73699332D01*
X106100605Y-73574611D01*
X106100604Y-73574610D01*
X106100600Y-73574608D01*
X105880068Y-73483261D01*
X105647962Y-73427538D01*
X105647963Y-73427538D01*
X105410000Y-73408811D01*
X105172036Y-73427538D01*
X104939931Y-73483261D01*
X104719399Y-73574608D01*
X104515867Y-73699332D01*
X104334357Y-73854357D01*
X104234290Y-73971520D01*
X104175783Y-74009713D01*
X104105915Y-74010211D01*
X104046869Y-73972857D01*
X104045710Y-73971520D01*
X104005541Y-73924489D01*
X103945643Y-73854357D01*
X103764132Y-73699332D01*
X103560605Y-73574611D01*
X103560604Y-73574610D01*
X103560600Y-73574608D01*
X103340068Y-73483261D01*
X103107962Y-73427538D01*
X103107963Y-73427538D01*
X102870000Y-73408811D01*
X102632036Y-73427538D01*
X102399931Y-73483261D01*
X102179399Y-73574608D01*
X101975867Y-73699332D01*
X101794357Y-73854357D01*
X101694290Y-73971520D01*
X101635783Y-74009713D01*
X101565915Y-74010211D01*
X101506869Y-73972857D01*
X101505710Y-73971520D01*
X101465541Y-73924489D01*
X101405643Y-73854357D01*
X101224132Y-73699332D01*
X101020605Y-73574611D01*
X101020604Y-73574610D01*
X101020600Y-73574608D01*
X100800068Y-73483261D01*
X100567962Y-73427538D01*
X100567963Y-73427538D01*
X100330000Y-73408811D01*
X100092036Y-73427538D01*
X99859931Y-73483261D01*
X99639399Y-73574608D01*
X99435867Y-73699332D01*
X99254357Y-73854357D01*
X99154290Y-73971520D01*
X99095783Y-74009713D01*
X99025915Y-74010211D01*
X98966869Y-73972857D01*
X98965710Y-73971520D01*
X98925541Y-73924489D01*
X98865643Y-73854357D01*
X98684132Y-73699332D01*
X98480605Y-73574611D01*
X98480604Y-73574610D01*
X98480600Y-73574608D01*
X98260068Y-73483261D01*
X98027962Y-73427538D01*
X98027963Y-73427538D01*
X97790000Y-73408811D01*
X97552036Y-73427538D01*
X97319931Y-73483261D01*
X97099399Y-73574608D01*
X96895867Y-73699332D01*
X96714357Y-73854357D01*
X96614290Y-73971520D01*
X96555783Y-74009713D01*
X96485915Y-74010211D01*
X96426869Y-73972857D01*
X96425710Y-73971520D01*
X96385541Y-73924489D01*
X96325643Y-73854357D01*
X96144132Y-73699332D01*
X95940605Y-73574611D01*
X95940604Y-73574610D01*
X95940600Y-73574608D01*
X95720068Y-73483261D01*
X95487962Y-73427538D01*
X95487963Y-73427538D01*
X95250000Y-73408811D01*
X95012036Y-73427538D01*
X94779931Y-73483261D01*
X94559399Y-73574608D01*
X94355867Y-73699332D01*
X94174357Y-73854357D01*
X94074290Y-73971520D01*
X94015783Y-74009713D01*
X93945915Y-74010211D01*
X93886869Y-73972857D01*
X93885710Y-73971520D01*
X93845541Y-73924489D01*
X93785643Y-73854357D01*
X93668478Y-73754288D01*
X93630286Y-73695783D01*
X93629787Y-73625916D01*
X93667141Y-73566869D01*
X93668439Y-73565744D01*
X93785643Y-73465643D01*
X93940668Y-73284132D01*
X94065389Y-73080605D01*
X94156737Y-72860073D01*
X94212461Y-72627966D01*
X94231189Y-72390000D01*
X94212461Y-72152034D01*
X94156737Y-71919927D01*
X94065389Y-71699395D01*
X93940668Y-71495868D01*
X93785643Y-71314357D01*
X93668478Y-71214288D01*
X93630286Y-71155783D01*
X93629787Y-71085916D01*
X93667141Y-71026869D01*
X93668439Y-71025744D01*
X93785643Y-70925643D01*
X93940668Y-70744132D01*
X94065389Y-70540605D01*
X94156737Y-70320073D01*
X94212461Y-70087966D01*
X94231189Y-69850000D01*
X94212461Y-69612034D01*
X94156737Y-69379927D01*
X94065389Y-69159395D01*
X93940668Y-68955868D01*
X93785643Y-68774357D01*
X93668478Y-68674288D01*
X93630286Y-68615783D01*
X93629787Y-68545916D01*
X93667141Y-68486869D01*
X93668439Y-68485744D01*
X93785643Y-68385643D01*
X93940668Y-68204132D01*
X94065389Y-68000605D01*
X94156737Y-67780073D01*
X94212461Y-67547966D01*
X94231189Y-67310000D01*
X94212461Y-67072034D01*
X94156737Y-66839927D01*
X94065389Y-66619395D01*
X93940668Y-66415868D01*
X93785643Y-66234357D01*
X93668478Y-66134288D01*
X93630286Y-66075783D01*
X93629787Y-66005916D01*
X93667141Y-65946869D01*
X93668439Y-65945744D01*
X93785643Y-65845643D01*
X93940668Y-65664132D01*
X94065389Y-65460605D01*
X94156737Y-65240073D01*
X94212461Y-65007966D01*
X94231189Y-64770000D01*
X94212461Y-64532034D01*
X94156737Y-64299927D01*
X94065389Y-64079395D01*
X93940668Y-63875868D01*
X93785643Y-63694357D01*
X93668478Y-63594288D01*
X93630286Y-63535783D01*
X93629787Y-63465916D01*
X93667141Y-63406869D01*
X93668439Y-63405744D01*
X93785643Y-63305643D01*
X93940668Y-63124132D01*
X94065389Y-62920605D01*
X94156737Y-62700073D01*
X94212461Y-62467966D01*
X94231189Y-62230000D01*
X94212461Y-61992034D01*
X94156737Y-61759927D01*
X94075690Y-61564264D01*
X94065391Y-61539399D01*
X94042785Y-61502510D01*
X93940668Y-61335868D01*
X93785643Y-61154357D01*
X93668478Y-61054288D01*
X93630286Y-60995783D01*
X93629787Y-60925916D01*
X93667141Y-60866869D01*
X93668439Y-60865744D01*
X93785643Y-60765643D01*
X93940668Y-60584132D01*
X94065389Y-60380605D01*
X94156737Y-60160073D01*
X94172442Y-60094656D01*
X94207232Y-60034065D01*
X94269258Y-60001900D01*
X94338827Y-60008376D01*
X94380697Y-60035922D01*
X95847285Y-61502510D01*
X95847287Y-61502511D01*
X95847291Y-61502514D01*
X95954240Y-61564261D01*
X95954245Y-61564262D01*
X95972815Y-61574984D01*
X96112825Y-61612500D01*
X100663060Y-61612500D01*
X100730099Y-61632185D01*
X100750741Y-61648819D01*
X100793738Y-61691816D01*
X100946478Y-61787789D01*
X101116745Y-61847368D01*
X101116750Y-61847369D01*
X101295996Y-61867565D01*
X101296000Y-61867565D01*
X101296004Y-61867565D01*
X101475249Y-61847369D01*
X101475252Y-61847368D01*
X101475255Y-61847368D01*
X101645522Y-61787789D01*
X101798262Y-61691816D01*
X101925816Y-61564262D01*
X102021789Y-61411522D01*
X102081368Y-61241255D01*
X102101565Y-61062000D01*
X102100696Y-61054290D01*
X102081369Y-60882750D01*
X102081368Y-60882745D01*
X102021788Y-60712476D01*
X101925815Y-60559737D01*
X101798262Y-60432184D01*
X101645523Y-60336211D01*
X101475254Y-60276631D01*
X101475249Y-60276630D01*
X101296004Y-60256435D01*
X101295996Y-60256435D01*
X101116750Y-60276630D01*
X101116745Y-60276631D01*
X100946476Y-60336211D01*
X100793737Y-60432184D01*
X100750741Y-60475181D01*
X100689418Y-60508666D01*
X100663060Y-60511500D01*
X96464687Y-60511500D01*
X96397648Y-60491815D01*
X96377006Y-60475181D01*
X94720565Y-58818740D01*
X94687080Y-58757417D01*
X94692064Y-58687725D01*
X94733936Y-58631792D01*
X94799400Y-58607375D01*
X94837190Y-58610484D01*
X95012034Y-58652461D01*
X95250000Y-58671189D01*
X95487966Y-58652461D01*
X95720073Y-58596737D01*
X95940605Y-58505389D01*
X96144132Y-58380668D01*
X96325643Y-58225643D01*
X96425711Y-58108478D01*
X96484217Y-58070286D01*
X96554084Y-58069787D01*
X96613131Y-58107141D01*
X96614255Y-58108439D01*
X96714357Y-58225643D01*
X96895868Y-58380668D01*
X97099395Y-58505389D01*
X97099397Y-58505389D01*
X97099399Y-58505391D01*
X97124000Y-58515581D01*
X97319927Y-58596737D01*
X97552034Y-58652461D01*
X97790000Y-58671189D01*
X98027966Y-58652461D01*
X98260073Y-58596737D01*
X98323632Y-58570409D01*
X98393097Y-58562940D01*
X98455577Y-58594214D01*
X98458764Y-58597289D01*
X98722685Y-58861210D01*
X98846986Y-58932974D01*
X98846998Y-58932987D01*
X98847001Y-58932984D01*
X98848210Y-58933682D01*
X98848212Y-58933682D01*
X98848215Y-58933684D01*
X98988225Y-58971200D01*
X98988228Y-58971200D01*
X103393711Y-58971200D01*
X103464327Y-58971219D01*
X103464336Y-58971216D01*
X103464465Y-58971200D01*
X103464475Y-58971200D01*
X103534929Y-58952321D01*
X103534963Y-58952321D01*
X103534961Y-58952313D01*
X103553573Y-58947330D01*
X103604348Y-58933741D01*
X103604356Y-58933736D01*
X103604476Y-58933686D01*
X103604485Y-58933684D01*
X103666010Y-58898161D01*
X103666043Y-58898153D01*
X103666039Y-58898145D01*
X103677021Y-58891808D01*
X103729897Y-58861300D01*
X103729901Y-58861295D01*
X103729916Y-58861287D01*
X103729995Y-58861227D01*
X103730010Y-58861211D01*
X103730015Y-58861209D01*
X103780455Y-58810767D01*
X103780484Y-58810751D01*
X103780478Y-58810745D01*
X103795364Y-58795867D01*
X104270311Y-58321173D01*
X104331642Y-58287706D01*
X104401333Y-58292709D01*
X104438499Y-58314588D01*
X104515868Y-58380668D01*
X104719395Y-58505389D01*
X104719397Y-58505389D01*
X104719399Y-58505391D01*
X104744000Y-58515581D01*
X104939927Y-58596737D01*
X105172034Y-58652461D01*
X105410000Y-58671189D01*
X105647966Y-58652461D01*
X105880073Y-58596737D01*
X106100605Y-58505389D01*
X106304132Y-58380668D01*
X106485643Y-58225643D01*
X106585711Y-58108478D01*
X106644217Y-58070286D01*
X106714084Y-58069787D01*
X106773131Y-58107141D01*
X106774255Y-58108439D01*
X106874357Y-58225643D01*
X107055868Y-58380668D01*
X107259395Y-58505389D01*
X107259397Y-58505389D01*
X107259399Y-58505391D01*
X107284000Y-58515581D01*
X107479927Y-58596737D01*
X107712034Y-58652461D01*
X107950000Y-58671189D01*
X108187966Y-58652461D01*
X108420073Y-58596737D01*
X108640605Y-58505389D01*
X108844132Y-58380668D01*
X109025643Y-58225643D01*
X109152752Y-58076817D01*
X109211258Y-58038625D01*
X109251335Y-58035111D01*
X110109000Y-57177446D01*
X110109000Y-57200160D01*
G37*
%TD.AperFunction*%
%TA.AperFunction,Conductor*%
G36*
X88687652Y-48830185D02*
G01*
X88708294Y-48846819D01*
X92742559Y-52881084D01*
X92776044Y-52942407D01*
X92771060Y-53012099D01*
X92729188Y-53068032D01*
X92664607Y-53092383D01*
X92472037Y-53107538D01*
X92239931Y-53163261D01*
X92019399Y-53254608D01*
X91815867Y-53379332D01*
X91634357Y-53534357D01*
X91507249Y-53683181D01*
X91448742Y-53721374D01*
X91408663Y-53724887D01*
X90551000Y-54582551D01*
X90551000Y-54559840D01*
X90525036Y-54462939D01*
X90474876Y-54376060D01*
X90403940Y-54305124D01*
X90317061Y-54254964D01*
X90220160Y-54229000D01*
X90197448Y-54229000D01*
X91053217Y-53373229D01*
X90860378Y-53255056D01*
X90639924Y-53163742D01*
X90639927Y-53163742D01*
X90407883Y-53108033D01*
X90170000Y-53089312D01*
X89932116Y-53108033D01*
X89700074Y-53163742D01*
X89479621Y-53255056D01*
X89286781Y-53373229D01*
X90142553Y-54229000D01*
X90119840Y-54229000D01*
X90022939Y-54254964D01*
X89936060Y-54305124D01*
X89865124Y-54376060D01*
X89814964Y-54462939D01*
X89789000Y-54559840D01*
X89789000Y-54582552D01*
X88933229Y-53726781D01*
X88815056Y-53919621D01*
X88723742Y-54140074D01*
X88668033Y-54372116D01*
X88649312Y-54610000D01*
X88668033Y-54847883D01*
X88723742Y-55079925D01*
X88815056Y-55300378D01*
X88933229Y-55493217D01*
X89789000Y-54637446D01*
X89789000Y-54660160D01*
X89814964Y-54757061D01*
X89865124Y-54843940D01*
X89936060Y-54914876D01*
X90022939Y-54965036D01*
X90119840Y-54991000D01*
X90142553Y-54991000D01*
X89283876Y-55849674D01*
X89274121Y-55907272D01*
X89243180Y-55947249D01*
X89094357Y-56074357D01*
X88939332Y-56255868D01*
X88899113Y-56321500D01*
X88814608Y-56459399D01*
X88723261Y-56679931D01*
X88667538Y-56912036D01*
X88648811Y-57150000D01*
X88667538Y-57387963D01*
X88723261Y-57620070D01*
X88755561Y-57698048D01*
X88763030Y-57767517D01*
X88731755Y-57829996D01*
X88671666Y-57865648D01*
X88641000Y-57869500D01*
X87529387Y-57869500D01*
X87462348Y-57849815D01*
X87441706Y-57833181D01*
X79198053Y-49589528D01*
X79164568Y-49528205D01*
X79169552Y-49458513D01*
X79211424Y-49402580D01*
X79219553Y-49397364D01*
X79219411Y-49397142D01*
X79338475Y-49320624D01*
X79339915Y-49319804D01*
X79344098Y-49317011D01*
X79393017Y-49274620D01*
X79452832Y-49222791D01*
X79546986Y-49114130D01*
X79624770Y-48993094D01*
X79675054Y-48882989D01*
X79720808Y-48830185D01*
X79787848Y-48810500D01*
X88620613Y-48810500D01*
X88687652Y-48830185D01*
G37*
%TD.AperFunction*%
%TA.AperFunction,Conductor*%
G36*
X91409674Y-55496122D02*
G01*
X91467271Y-55505878D01*
X91507248Y-55536818D01*
X91552626Y-55589949D01*
X91634357Y-55685643D01*
X91760225Y-55793144D01*
X91783180Y-55812750D01*
X91821373Y-55871257D01*
X91824887Y-55911335D01*
X92682553Y-56769000D01*
X92659840Y-56769000D01*
X92562939Y-56794964D01*
X92476060Y-56845124D01*
X92405124Y-56916060D01*
X92354964Y-57002939D01*
X92329000Y-57099840D01*
X92329000Y-57122552D01*
X91470324Y-56263876D01*
X91412725Y-56254119D01*
X91372750Y-56223180D01*
X91353144Y-56200225D01*
X91245643Y-56074357D01*
X91096819Y-55947249D01*
X91096818Y-55947248D01*
X91058625Y-55888741D01*
X91055111Y-55848663D01*
X90197447Y-54991000D01*
X90220160Y-54991000D01*
X90317061Y-54965036D01*
X90403940Y-54914876D01*
X90474876Y-54843940D01*
X90525036Y-54757061D01*
X90551000Y-54660160D01*
X90551000Y-54637447D01*
X91409674Y-55496122D01*
G37*
%TD.AperFunction*%
%TA.AperFunction,Conductor*%
G36*
X94073131Y-55567141D02*
G01*
X94074255Y-55568439D01*
X94174357Y-55685643D01*
X94259876Y-55758683D01*
X94291520Y-55785710D01*
X94329713Y-55844217D01*
X94330211Y-55914085D01*
X94292857Y-55973131D01*
X94291520Y-55974290D01*
X94174357Y-56074357D01*
X94047249Y-56223181D01*
X93988742Y-56261374D01*
X93948663Y-56264887D01*
X93091000Y-57122550D01*
X93091000Y-57099840D01*
X93065036Y-57002939D01*
X93014876Y-56916060D01*
X92943940Y-56845124D01*
X92857061Y-56794964D01*
X92760160Y-56769000D01*
X92737448Y-56769000D01*
X93596122Y-55910324D01*
X93605878Y-55852728D01*
X93636816Y-55812752D01*
X93785643Y-55685643D01*
X93885711Y-55568478D01*
X93944217Y-55530286D01*
X94014084Y-55529787D01*
X94073131Y-55567141D01*
G37*
%TD.AperFunction*%
%TD*%
M02*
