%TF.GenerationSoftware,KiCad,Pcbnew,8.0.6*%
%TF.CreationDate,2025-01-05T14:05:32+01:00*%
%TF.ProjectId,snes_cart_pcb_pga2350,736e6573-5f63-4617-9274-5f7063625f70,rev?*%
%TF.SameCoordinates,Original*%
%TF.FileFunction,Legend,Top*%
%TF.FilePolarity,Positive*%
%FSLAX46Y46*%
G04 Gerber Fmt 4.6, Leading zero omitted, Abs format (unit mm)*
G04 Created by KiCad (PCBNEW 8.0.6) date 2025-01-05 14:05:32*
%MOMM*%
%LPD*%
G01*
G04 APERTURE LIST*
%ADD10C,0.222250*%
%ADD11C,0.150000*%
%ADD12C,0.304800*%
%ADD13C,0.120000*%
%ADD14C,0.190500*%
%ADD15C,2.032000*%
G04 APERTURE END LIST*
D10*
X62293501Y-60894045D02*
X61997167Y-60894045D01*
X61997167Y-61359712D02*
X61997167Y-60470712D01*
X61997167Y-60470712D02*
X62420501Y-60470712D01*
X62759167Y-61359712D02*
X62759167Y-60767045D01*
X62759167Y-60936379D02*
X62801501Y-60851712D01*
X62801501Y-60851712D02*
X62843834Y-60809379D01*
X62843834Y-60809379D02*
X62928501Y-60767045D01*
X62928501Y-60767045D02*
X63013167Y-60767045D01*
X63436500Y-61359712D02*
X63351834Y-61317379D01*
X63351834Y-61317379D02*
X63309500Y-61275045D01*
X63309500Y-61275045D02*
X63267167Y-61190379D01*
X63267167Y-61190379D02*
X63267167Y-60936379D01*
X63267167Y-60936379D02*
X63309500Y-60851712D01*
X63309500Y-60851712D02*
X63351834Y-60809379D01*
X63351834Y-60809379D02*
X63436500Y-60767045D01*
X63436500Y-60767045D02*
X63563500Y-60767045D01*
X63563500Y-60767045D02*
X63648167Y-60809379D01*
X63648167Y-60809379D02*
X63690500Y-60851712D01*
X63690500Y-60851712D02*
X63732834Y-60936379D01*
X63732834Y-60936379D02*
X63732834Y-61190379D01*
X63732834Y-61190379D02*
X63690500Y-61275045D01*
X63690500Y-61275045D02*
X63648167Y-61317379D01*
X63648167Y-61317379D02*
X63563500Y-61359712D01*
X63563500Y-61359712D02*
X63436500Y-61359712D01*
X64113833Y-60767045D02*
X64113833Y-61359712D01*
X64113833Y-60851712D02*
X64156167Y-60809379D01*
X64156167Y-60809379D02*
X64240833Y-60767045D01*
X64240833Y-60767045D02*
X64367833Y-60767045D01*
X64367833Y-60767045D02*
X64452500Y-60809379D01*
X64452500Y-60809379D02*
X64494833Y-60894045D01*
X64494833Y-60894045D02*
X64494833Y-61359712D01*
X64791166Y-60767045D02*
X65129833Y-60767045D01*
X64918166Y-60470712D02*
X64918166Y-61232712D01*
X64918166Y-61232712D02*
X64960500Y-61317379D01*
X64960500Y-61317379D02*
X65045166Y-61359712D01*
X65045166Y-61359712D02*
X65129833Y-61359712D01*
D11*
X124124819Y-68928333D02*
X124839104Y-68928333D01*
X124839104Y-68928333D02*
X124981961Y-68975952D01*
X124981961Y-68975952D02*
X125077200Y-69071190D01*
X125077200Y-69071190D02*
X125124819Y-69214047D01*
X125124819Y-69214047D02*
X125124819Y-69309285D01*
X124124819Y-67975952D02*
X124124819Y-68452142D01*
X124124819Y-68452142D02*
X124601009Y-68499761D01*
X124601009Y-68499761D02*
X124553390Y-68452142D01*
X124553390Y-68452142D02*
X124505771Y-68356904D01*
X124505771Y-68356904D02*
X124505771Y-68118809D01*
X124505771Y-68118809D02*
X124553390Y-68023571D01*
X124553390Y-68023571D02*
X124601009Y-67975952D01*
X124601009Y-67975952D02*
X124696247Y-67928333D01*
X124696247Y-67928333D02*
X124934342Y-67928333D01*
X124934342Y-67928333D02*
X125029580Y-67975952D01*
X125029580Y-67975952D02*
X125077200Y-68023571D01*
X125077200Y-68023571D02*
X125124819Y-68118809D01*
X125124819Y-68118809D02*
X125124819Y-68356904D01*
X125124819Y-68356904D02*
X125077200Y-68452142D01*
X125077200Y-68452142D02*
X125029580Y-68499761D01*
X91121666Y-30144819D02*
X91121666Y-30859104D01*
X91121666Y-30859104D02*
X91074047Y-31001961D01*
X91074047Y-31001961D02*
X90978809Y-31097200D01*
X90978809Y-31097200D02*
X90835952Y-31144819D01*
X90835952Y-31144819D02*
X90740714Y-31144819D01*
X91502619Y-30144819D02*
X92121666Y-30144819D01*
X92121666Y-30144819D02*
X91788333Y-30525771D01*
X91788333Y-30525771D02*
X91931190Y-30525771D01*
X91931190Y-30525771D02*
X92026428Y-30573390D01*
X92026428Y-30573390D02*
X92074047Y-30621009D01*
X92074047Y-30621009D02*
X92121666Y-30716247D01*
X92121666Y-30716247D02*
X92121666Y-30954342D01*
X92121666Y-30954342D02*
X92074047Y-31049580D01*
X92074047Y-31049580D02*
X92026428Y-31097200D01*
X92026428Y-31097200D02*
X91931190Y-31144819D01*
X91931190Y-31144819D02*
X91645476Y-31144819D01*
X91645476Y-31144819D02*
X91550238Y-31097200D01*
X91550238Y-31097200D02*
X91502619Y-31049580D01*
D12*
X85851999Y-111745601D02*
X85851999Y-112834172D01*
X85851999Y-112834172D02*
X85779428Y-113051887D01*
X85779428Y-113051887D02*
X85634285Y-113197030D01*
X85634285Y-113197030D02*
X85416571Y-113269601D01*
X85416571Y-113269601D02*
X85271428Y-113269601D01*
X87375999Y-113269601D02*
X86505142Y-113269601D01*
X86940571Y-113269601D02*
X86940571Y-111745601D01*
X86940571Y-111745601D02*
X86795428Y-111963315D01*
X86795428Y-111963315D02*
X86650285Y-112108458D01*
X86650285Y-112108458D02*
X86505142Y-112181030D01*
X88460770Y-113197030D02*
X88605913Y-113269601D01*
X88605913Y-113269601D02*
X88896199Y-113269601D01*
X88896199Y-113269601D02*
X89041342Y-113197030D01*
X89041342Y-113197030D02*
X89113913Y-113051887D01*
X89113913Y-113051887D02*
X89113913Y-112979315D01*
X89113913Y-112979315D02*
X89041342Y-112834172D01*
X89041342Y-112834172D02*
X88896199Y-112761601D01*
X88896199Y-112761601D02*
X88678485Y-112761601D01*
X88678485Y-112761601D02*
X88533342Y-112689030D01*
X88533342Y-112689030D02*
X88460770Y-112543887D01*
X88460770Y-112543887D02*
X88460770Y-112471315D01*
X88460770Y-112471315D02*
X88533342Y-112326172D01*
X88533342Y-112326172D02*
X88678485Y-112253601D01*
X88678485Y-112253601D02*
X88896199Y-112253601D01*
X88896199Y-112253601D02*
X89041342Y-112326172D01*
X89767056Y-112253601D02*
X89767056Y-113269601D01*
X89767056Y-112398744D02*
X89839627Y-112326172D01*
X89839627Y-112326172D02*
X89984770Y-112253601D01*
X89984770Y-112253601D02*
X90202484Y-112253601D01*
X90202484Y-112253601D02*
X90347627Y-112326172D01*
X90347627Y-112326172D02*
X90420199Y-112471315D01*
X90420199Y-112471315D02*
X90420199Y-113269601D01*
X91726484Y-113197030D02*
X91581341Y-113269601D01*
X91581341Y-113269601D02*
X91291056Y-113269601D01*
X91291056Y-113269601D02*
X91145913Y-113197030D01*
X91145913Y-113197030D02*
X91073341Y-113051887D01*
X91073341Y-113051887D02*
X91073341Y-112471315D01*
X91073341Y-112471315D02*
X91145913Y-112326172D01*
X91145913Y-112326172D02*
X91291056Y-112253601D01*
X91291056Y-112253601D02*
X91581341Y-112253601D01*
X91581341Y-112253601D02*
X91726484Y-112326172D01*
X91726484Y-112326172D02*
X91799056Y-112471315D01*
X91799056Y-112471315D02*
X91799056Y-112616458D01*
X91799056Y-112616458D02*
X91073341Y-112761601D01*
X92379627Y-113197030D02*
X92524770Y-113269601D01*
X92524770Y-113269601D02*
X92815056Y-113269601D01*
X92815056Y-113269601D02*
X92960199Y-113197030D01*
X92960199Y-113197030D02*
X93032770Y-113051887D01*
X93032770Y-113051887D02*
X93032770Y-112979315D01*
X93032770Y-112979315D02*
X92960199Y-112834172D01*
X92960199Y-112834172D02*
X92815056Y-112761601D01*
X92815056Y-112761601D02*
X92597342Y-112761601D01*
X92597342Y-112761601D02*
X92452199Y-112689030D01*
X92452199Y-112689030D02*
X92379627Y-112543887D01*
X92379627Y-112543887D02*
X92379627Y-112471315D01*
X92379627Y-112471315D02*
X92452199Y-112326172D01*
X92452199Y-112326172D02*
X92597342Y-112253601D01*
X92597342Y-112253601D02*
X92815056Y-112253601D01*
X92815056Y-112253601D02*
X92960199Y-112326172D01*
X94339056Y-113197030D02*
X94193913Y-113269601D01*
X94193913Y-113269601D02*
X93903627Y-113269601D01*
X93903627Y-113269601D02*
X93758484Y-113197030D01*
X93758484Y-113197030D02*
X93685913Y-113124458D01*
X93685913Y-113124458D02*
X93613341Y-112979315D01*
X93613341Y-112979315D02*
X93613341Y-112543887D01*
X93613341Y-112543887D02*
X93685913Y-112398744D01*
X93685913Y-112398744D02*
X93758484Y-112326172D01*
X93758484Y-112326172D02*
X93903627Y-112253601D01*
X93903627Y-112253601D02*
X94193913Y-112253601D01*
X94193913Y-112253601D02*
X94339056Y-112326172D01*
X95645342Y-113269601D02*
X95645342Y-112471315D01*
X95645342Y-112471315D02*
X95572770Y-112326172D01*
X95572770Y-112326172D02*
X95427627Y-112253601D01*
X95427627Y-112253601D02*
X95137342Y-112253601D01*
X95137342Y-112253601D02*
X94992199Y-112326172D01*
X95645342Y-113197030D02*
X95500199Y-113269601D01*
X95500199Y-113269601D02*
X95137342Y-113269601D01*
X95137342Y-113269601D02*
X94992199Y-113197030D01*
X94992199Y-113197030D02*
X94919627Y-113051887D01*
X94919627Y-113051887D02*
X94919627Y-112906744D01*
X94919627Y-112906744D02*
X94992199Y-112761601D01*
X94992199Y-112761601D02*
X95137342Y-112689030D01*
X95137342Y-112689030D02*
X95500199Y-112689030D01*
X95500199Y-112689030D02*
X95645342Y-112616458D01*
X96371056Y-113269601D02*
X96371056Y-112253601D01*
X96371056Y-112543887D02*
X96443627Y-112398744D01*
X96443627Y-112398744D02*
X96516199Y-112326172D01*
X96516199Y-112326172D02*
X96661341Y-112253601D01*
X96661341Y-112253601D02*
X96806484Y-112253601D01*
X97096770Y-112253601D02*
X97677342Y-112253601D01*
X97314485Y-111745601D02*
X97314485Y-113051887D01*
X97314485Y-113051887D02*
X97387056Y-113197030D01*
X97387056Y-113197030D02*
X97532199Y-113269601D01*
X97532199Y-113269601D02*
X97677342Y-113269601D01*
X97822485Y-113414744D02*
X98983627Y-113414744D01*
X99273913Y-113197030D02*
X99491628Y-113269601D01*
X99491628Y-113269601D02*
X99854485Y-113269601D01*
X99854485Y-113269601D02*
X99999628Y-113197030D01*
X99999628Y-113197030D02*
X100072199Y-113124458D01*
X100072199Y-113124458D02*
X100144770Y-112979315D01*
X100144770Y-112979315D02*
X100144770Y-112834172D01*
X100144770Y-112834172D02*
X100072199Y-112689030D01*
X100072199Y-112689030D02*
X99999628Y-112616458D01*
X99999628Y-112616458D02*
X99854485Y-112543887D01*
X99854485Y-112543887D02*
X99564199Y-112471315D01*
X99564199Y-112471315D02*
X99419056Y-112398744D01*
X99419056Y-112398744D02*
X99346485Y-112326172D01*
X99346485Y-112326172D02*
X99273913Y-112181030D01*
X99273913Y-112181030D02*
X99273913Y-112035887D01*
X99273913Y-112035887D02*
X99346485Y-111890744D01*
X99346485Y-111890744D02*
X99419056Y-111818172D01*
X99419056Y-111818172D02*
X99564199Y-111745601D01*
X99564199Y-111745601D02*
X99927056Y-111745601D01*
X99927056Y-111745601D02*
X100144770Y-111818172D01*
X100797914Y-113269601D02*
X100797914Y-111745601D01*
X100797914Y-111745601D02*
X101668771Y-113269601D01*
X101668771Y-113269601D02*
X101668771Y-111745601D01*
X102394485Y-112471315D02*
X102902485Y-112471315D01*
X103120199Y-113269601D02*
X102394485Y-113269601D01*
X102394485Y-113269601D02*
X102394485Y-111745601D01*
X102394485Y-111745601D02*
X103120199Y-111745601D01*
X103700770Y-113197030D02*
X103918485Y-113269601D01*
X103918485Y-113269601D02*
X104281342Y-113269601D01*
X104281342Y-113269601D02*
X104426485Y-113197030D01*
X104426485Y-113197030D02*
X104499056Y-113124458D01*
X104499056Y-113124458D02*
X104571627Y-112979315D01*
X104571627Y-112979315D02*
X104571627Y-112834172D01*
X104571627Y-112834172D02*
X104499056Y-112689030D01*
X104499056Y-112689030D02*
X104426485Y-112616458D01*
X104426485Y-112616458D02*
X104281342Y-112543887D01*
X104281342Y-112543887D02*
X103991056Y-112471315D01*
X103991056Y-112471315D02*
X103845913Y-112398744D01*
X103845913Y-112398744D02*
X103773342Y-112326172D01*
X103773342Y-112326172D02*
X103700770Y-112181030D01*
X103700770Y-112181030D02*
X103700770Y-112035887D01*
X103700770Y-112035887D02*
X103773342Y-111890744D01*
X103773342Y-111890744D02*
X103845913Y-111818172D01*
X103845913Y-111818172D02*
X103991056Y-111745601D01*
X103991056Y-111745601D02*
X104353913Y-111745601D01*
X104353913Y-111745601D02*
X104571627Y-111818172D01*
X106095628Y-113124458D02*
X106023056Y-113197030D01*
X106023056Y-113197030D02*
X105805342Y-113269601D01*
X105805342Y-113269601D02*
X105660199Y-113269601D01*
X105660199Y-113269601D02*
X105442485Y-113197030D01*
X105442485Y-113197030D02*
X105297342Y-113051887D01*
X105297342Y-113051887D02*
X105224771Y-112906744D01*
X105224771Y-112906744D02*
X105152199Y-112616458D01*
X105152199Y-112616458D02*
X105152199Y-112398744D01*
X105152199Y-112398744D02*
X105224771Y-112108458D01*
X105224771Y-112108458D02*
X105297342Y-111963315D01*
X105297342Y-111963315D02*
X105442485Y-111818172D01*
X105442485Y-111818172D02*
X105660199Y-111745601D01*
X105660199Y-111745601D02*
X105805342Y-111745601D01*
X105805342Y-111745601D02*
X106023056Y-111818172D01*
X106023056Y-111818172D02*
X106095628Y-111890744D01*
X106676199Y-112834172D02*
X107401914Y-112834172D01*
X106531056Y-113269601D02*
X107039056Y-111745601D01*
X107039056Y-111745601D02*
X107547056Y-113269601D01*
X108925914Y-113269601D02*
X108417914Y-112543887D01*
X108055057Y-113269601D02*
X108055057Y-111745601D01*
X108055057Y-111745601D02*
X108635628Y-111745601D01*
X108635628Y-111745601D02*
X108780771Y-111818172D01*
X108780771Y-111818172D02*
X108853342Y-111890744D01*
X108853342Y-111890744D02*
X108925914Y-112035887D01*
X108925914Y-112035887D02*
X108925914Y-112253601D01*
X108925914Y-112253601D02*
X108853342Y-112398744D01*
X108853342Y-112398744D02*
X108780771Y-112471315D01*
X108780771Y-112471315D02*
X108635628Y-112543887D01*
X108635628Y-112543887D02*
X108055057Y-112543887D01*
X109361342Y-111745601D02*
X110232200Y-111745601D01*
X109796771Y-113269601D02*
X109796771Y-111745601D01*
X110377343Y-113414744D02*
X111538485Y-113414744D01*
X111901343Y-112471315D02*
X112409343Y-112471315D01*
X112627057Y-113269601D02*
X111901343Y-113269601D01*
X111901343Y-113269601D02*
X111901343Y-111745601D01*
X111901343Y-111745601D02*
X112627057Y-111745601D01*
X113135057Y-111745601D02*
X114151057Y-113269601D01*
X114151057Y-111745601D02*
X113135057Y-113269601D01*
X114513914Y-111745601D02*
X115384772Y-111745601D01*
X114949343Y-113269601D02*
X114949343Y-111745601D01*
D11*
X77256666Y-40834819D02*
X77256666Y-41549104D01*
X77256666Y-41549104D02*
X77209047Y-41691961D01*
X77209047Y-41691961D02*
X77113809Y-41787200D01*
X77113809Y-41787200D02*
X76970952Y-41834819D01*
X76970952Y-41834819D02*
X76875714Y-41834819D01*
X77732857Y-41834819D02*
X77732857Y-40834819D01*
X77732857Y-40834819D02*
X78113809Y-40834819D01*
X78113809Y-40834819D02*
X78209047Y-40882438D01*
X78209047Y-40882438D02*
X78256666Y-40930057D01*
X78256666Y-40930057D02*
X78304285Y-41025295D01*
X78304285Y-41025295D02*
X78304285Y-41168152D01*
X78304285Y-41168152D02*
X78256666Y-41263390D01*
X78256666Y-41263390D02*
X78209047Y-41311009D01*
X78209047Y-41311009D02*
X78113809Y-41358628D01*
X78113809Y-41358628D02*
X77732857Y-41358628D01*
X79256666Y-41834819D02*
X78685238Y-41834819D01*
X78970952Y-41834819D02*
X78970952Y-40834819D01*
X78970952Y-40834819D02*
X78875714Y-40977676D01*
X78875714Y-40977676D02*
X78780476Y-41072914D01*
X78780476Y-41072914D02*
X78685238Y-41120533D01*
X77256666Y-45914819D02*
X77256666Y-46629104D01*
X77256666Y-46629104D02*
X77209047Y-46771961D01*
X77209047Y-46771961D02*
X77113809Y-46867200D01*
X77113809Y-46867200D02*
X76970952Y-46914819D01*
X76970952Y-46914819D02*
X76875714Y-46914819D01*
X77732857Y-46914819D02*
X77732857Y-45914819D01*
X77732857Y-45914819D02*
X78113809Y-45914819D01*
X78113809Y-45914819D02*
X78209047Y-45962438D01*
X78209047Y-45962438D02*
X78256666Y-46010057D01*
X78256666Y-46010057D02*
X78304285Y-46105295D01*
X78304285Y-46105295D02*
X78304285Y-46248152D01*
X78304285Y-46248152D02*
X78256666Y-46343390D01*
X78256666Y-46343390D02*
X78209047Y-46391009D01*
X78209047Y-46391009D02*
X78113809Y-46438628D01*
X78113809Y-46438628D02*
X77732857Y-46438628D01*
X78685238Y-46010057D02*
X78732857Y-45962438D01*
X78732857Y-45962438D02*
X78828095Y-45914819D01*
X78828095Y-45914819D02*
X79066190Y-45914819D01*
X79066190Y-45914819D02*
X79161428Y-45962438D01*
X79161428Y-45962438D02*
X79209047Y-46010057D01*
X79209047Y-46010057D02*
X79256666Y-46105295D01*
X79256666Y-46105295D02*
X79256666Y-46200533D01*
X79256666Y-46200533D02*
X79209047Y-46343390D01*
X79209047Y-46343390D02*
X78637619Y-46914819D01*
X78637619Y-46914819D02*
X79256666Y-46914819D01*
X113981666Y-30144819D02*
X113981666Y-30859104D01*
X113981666Y-30859104D02*
X113934047Y-31001961D01*
X113934047Y-31001961D02*
X113838809Y-31097200D01*
X113838809Y-31097200D02*
X113695952Y-31144819D01*
X113695952Y-31144819D02*
X113600714Y-31144819D01*
X114410238Y-30240057D02*
X114457857Y-30192438D01*
X114457857Y-30192438D02*
X114553095Y-30144819D01*
X114553095Y-30144819D02*
X114791190Y-30144819D01*
X114791190Y-30144819D02*
X114886428Y-30192438D01*
X114886428Y-30192438D02*
X114934047Y-30240057D01*
X114934047Y-30240057D02*
X114981666Y-30335295D01*
X114981666Y-30335295D02*
X114981666Y-30430533D01*
X114981666Y-30430533D02*
X114934047Y-30573390D01*
X114934047Y-30573390D02*
X114362619Y-31144819D01*
X114362619Y-31144819D02*
X114981666Y-31144819D01*
D10*
X96030712Y-71797333D02*
X96750379Y-71797333D01*
X96750379Y-71797333D02*
X96835045Y-71755000D01*
X96835045Y-71755000D02*
X96877379Y-71712666D01*
X96877379Y-71712666D02*
X96919712Y-71628000D01*
X96919712Y-71628000D02*
X96919712Y-71458666D01*
X96919712Y-71458666D02*
X96877379Y-71374000D01*
X96877379Y-71374000D02*
X96835045Y-71331666D01*
X96835045Y-71331666D02*
X96750379Y-71289333D01*
X96750379Y-71289333D02*
X96030712Y-71289333D01*
X96919712Y-70400333D02*
X96919712Y-70908333D01*
X96919712Y-70654333D02*
X96030712Y-70654333D01*
X96030712Y-70654333D02*
X96157712Y-70739000D01*
X96157712Y-70739000D02*
X96242379Y-70823667D01*
X96242379Y-70823667D02*
X96284712Y-70908333D01*
X96919712Y-68791667D02*
X96030712Y-68791667D01*
X96030712Y-68791667D02*
X96030712Y-68453000D01*
X96030712Y-68453000D02*
X96073045Y-68368334D01*
X96073045Y-68368334D02*
X96115379Y-68326000D01*
X96115379Y-68326000D02*
X96200045Y-68283667D01*
X96200045Y-68283667D02*
X96327045Y-68283667D01*
X96327045Y-68283667D02*
X96411712Y-68326000D01*
X96411712Y-68326000D02*
X96454045Y-68368334D01*
X96454045Y-68368334D02*
X96496379Y-68453000D01*
X96496379Y-68453000D02*
X96496379Y-68791667D01*
X96073045Y-67437000D02*
X96030712Y-67521667D01*
X96030712Y-67521667D02*
X96030712Y-67648667D01*
X96030712Y-67648667D02*
X96073045Y-67775667D01*
X96073045Y-67775667D02*
X96157712Y-67860334D01*
X96157712Y-67860334D02*
X96242379Y-67902667D01*
X96242379Y-67902667D02*
X96411712Y-67945000D01*
X96411712Y-67945000D02*
X96538712Y-67945000D01*
X96538712Y-67945000D02*
X96708045Y-67902667D01*
X96708045Y-67902667D02*
X96792712Y-67860334D01*
X96792712Y-67860334D02*
X96877379Y-67775667D01*
X96877379Y-67775667D02*
X96919712Y-67648667D01*
X96919712Y-67648667D02*
X96919712Y-67564000D01*
X96919712Y-67564000D02*
X96877379Y-67437000D01*
X96877379Y-67437000D02*
X96835045Y-67394667D01*
X96835045Y-67394667D02*
X96538712Y-67394667D01*
X96538712Y-67394667D02*
X96538712Y-67564000D01*
X96665712Y-67056000D02*
X96665712Y-66632667D01*
X96919712Y-67140667D02*
X96030712Y-66844334D01*
X96030712Y-66844334D02*
X96919712Y-66548000D01*
X96115379Y-66294000D02*
X96073045Y-66251667D01*
X96073045Y-66251667D02*
X96030712Y-66167000D01*
X96030712Y-66167000D02*
X96030712Y-65955334D01*
X96030712Y-65955334D02*
X96073045Y-65870667D01*
X96073045Y-65870667D02*
X96115379Y-65828334D01*
X96115379Y-65828334D02*
X96200045Y-65786000D01*
X96200045Y-65786000D02*
X96284712Y-65786000D01*
X96284712Y-65786000D02*
X96411712Y-65828334D01*
X96411712Y-65828334D02*
X96919712Y-66336334D01*
X96919712Y-66336334D02*
X96919712Y-65786000D01*
X96030712Y-65489667D02*
X96030712Y-64939333D01*
X96030712Y-64939333D02*
X96369379Y-65235667D01*
X96369379Y-65235667D02*
X96369379Y-65108667D01*
X96369379Y-65108667D02*
X96411712Y-65024000D01*
X96411712Y-65024000D02*
X96454045Y-64981667D01*
X96454045Y-64981667D02*
X96538712Y-64939333D01*
X96538712Y-64939333D02*
X96750379Y-64939333D01*
X96750379Y-64939333D02*
X96835045Y-64981667D01*
X96835045Y-64981667D02*
X96877379Y-65024000D01*
X96877379Y-65024000D02*
X96919712Y-65108667D01*
X96919712Y-65108667D02*
X96919712Y-65362667D01*
X96919712Y-65362667D02*
X96877379Y-65447333D01*
X96877379Y-65447333D02*
X96835045Y-65489667D01*
X96030712Y-64135000D02*
X96030712Y-64558333D01*
X96030712Y-64558333D02*
X96454045Y-64600666D01*
X96454045Y-64600666D02*
X96411712Y-64558333D01*
X96411712Y-64558333D02*
X96369379Y-64473666D01*
X96369379Y-64473666D02*
X96369379Y-64262000D01*
X96369379Y-64262000D02*
X96411712Y-64177333D01*
X96411712Y-64177333D02*
X96454045Y-64135000D01*
X96454045Y-64135000D02*
X96538712Y-64092666D01*
X96538712Y-64092666D02*
X96750379Y-64092666D01*
X96750379Y-64092666D02*
X96835045Y-64135000D01*
X96835045Y-64135000D02*
X96877379Y-64177333D01*
X96877379Y-64177333D02*
X96919712Y-64262000D01*
X96919712Y-64262000D02*
X96919712Y-64473666D01*
X96919712Y-64473666D02*
X96877379Y-64558333D01*
X96877379Y-64558333D02*
X96835045Y-64600666D01*
X96030712Y-63542333D02*
X96030712Y-63457666D01*
X96030712Y-63457666D02*
X96073045Y-63372999D01*
X96073045Y-63372999D02*
X96115379Y-63330666D01*
X96115379Y-63330666D02*
X96200045Y-63288333D01*
X96200045Y-63288333D02*
X96369379Y-63245999D01*
X96369379Y-63245999D02*
X96581045Y-63245999D01*
X96581045Y-63245999D02*
X96750379Y-63288333D01*
X96750379Y-63288333D02*
X96835045Y-63330666D01*
X96835045Y-63330666D02*
X96877379Y-63372999D01*
X96877379Y-63372999D02*
X96919712Y-63457666D01*
X96919712Y-63457666D02*
X96919712Y-63542333D01*
X96919712Y-63542333D02*
X96877379Y-63626999D01*
X96877379Y-63626999D02*
X96835045Y-63669333D01*
X96835045Y-63669333D02*
X96750379Y-63711666D01*
X96750379Y-63711666D02*
X96581045Y-63753999D01*
X96581045Y-63753999D02*
X96369379Y-63753999D01*
X96369379Y-63753999D02*
X96200045Y-63711666D01*
X96200045Y-63711666D02*
X96115379Y-63669333D01*
X96115379Y-63669333D02*
X96073045Y-63626999D01*
X96073045Y-63626999D02*
X96030712Y-63542333D01*
D11*
X135826667Y-39537200D02*
X135969524Y-39584819D01*
X135969524Y-39584819D02*
X136207619Y-39584819D01*
X136207619Y-39584819D02*
X136302857Y-39537200D01*
X136302857Y-39537200D02*
X136350476Y-39489580D01*
X136350476Y-39489580D02*
X136398095Y-39394342D01*
X136398095Y-39394342D02*
X136398095Y-39299104D01*
X136398095Y-39299104D02*
X136350476Y-39203866D01*
X136350476Y-39203866D02*
X136302857Y-39156247D01*
X136302857Y-39156247D02*
X136207619Y-39108628D01*
X136207619Y-39108628D02*
X136017143Y-39061009D01*
X136017143Y-39061009D02*
X135921905Y-39013390D01*
X135921905Y-39013390D02*
X135874286Y-38965771D01*
X135874286Y-38965771D02*
X135826667Y-38870533D01*
X135826667Y-38870533D02*
X135826667Y-38775295D01*
X135826667Y-38775295D02*
X135874286Y-38680057D01*
X135874286Y-38680057D02*
X135921905Y-38632438D01*
X135921905Y-38632438D02*
X136017143Y-38584819D01*
X136017143Y-38584819D02*
X136255238Y-38584819D01*
X136255238Y-38584819D02*
X136398095Y-38632438D01*
X136731429Y-38584819D02*
X136969524Y-39584819D01*
X136969524Y-39584819D02*
X137160000Y-38870533D01*
X137160000Y-38870533D02*
X137350476Y-39584819D01*
X137350476Y-39584819D02*
X137588572Y-38584819D01*
X138493333Y-39584819D02*
X137921905Y-39584819D01*
X138207619Y-39584819D02*
X138207619Y-38584819D01*
X138207619Y-38584819D02*
X138112381Y-38727676D01*
X138112381Y-38727676D02*
X138017143Y-38822914D01*
X138017143Y-38822914D02*
X137921905Y-38870533D01*
X53004819Y-81628333D02*
X53719104Y-81628333D01*
X53719104Y-81628333D02*
X53861961Y-81675952D01*
X53861961Y-81675952D02*
X53957200Y-81771190D01*
X53957200Y-81771190D02*
X54004819Y-81914047D01*
X54004819Y-81914047D02*
X54004819Y-82009285D01*
X53338152Y-80723571D02*
X54004819Y-80723571D01*
X52957200Y-80961666D02*
X53671485Y-81199761D01*
X53671485Y-81199761D02*
X53671485Y-80580714D01*
D13*
%TO.C,J5*%
X125670000Y-65995000D02*
X126240000Y-65995000D01*
X125670000Y-71195000D02*
X125670000Y-65995000D01*
X125670000Y-71195000D02*
X126240000Y-71195000D01*
X126240000Y-72635000D02*
X126240000Y-71195000D01*
X127760000Y-65995000D02*
X128780000Y-65995000D01*
X127760000Y-71195000D02*
X128780000Y-71195000D01*
X130300000Y-65995000D02*
X131320000Y-65995000D01*
X130300000Y-71195000D02*
X131320000Y-71195000D01*
X132840000Y-65995000D02*
X133860000Y-65995000D01*
X132840000Y-71195000D02*
X133860000Y-71195000D01*
X135380000Y-65995000D02*
X136400000Y-65995000D01*
X135380000Y-71195000D02*
X136400000Y-71195000D01*
X137920000Y-65995000D02*
X138940000Y-65995000D01*
X137920000Y-71195000D02*
X138940000Y-71195000D01*
X140460000Y-65995000D02*
X141480000Y-65995000D01*
X140460000Y-71195000D02*
X141480000Y-71195000D01*
X143000000Y-65995000D02*
X144020000Y-65995000D01*
X143000000Y-71195000D02*
X144020000Y-71195000D01*
X145540000Y-65995000D02*
X146560000Y-65995000D01*
X145540000Y-71195000D02*
X146560000Y-71195000D01*
X148080000Y-65995000D02*
X148650000Y-65995000D01*
X148080000Y-71195000D02*
X148650000Y-71195000D01*
X148650000Y-71195000D02*
X148650000Y-65995000D01*
%TO.C,J3*%
X87415000Y-32260000D02*
X88855000Y-32260000D01*
X88855000Y-31690000D02*
X88855000Y-32260000D01*
X88855000Y-31690000D02*
X94055000Y-31690000D01*
X88855000Y-33780000D02*
X88855000Y-34800000D01*
X88855000Y-36320000D02*
X88855000Y-36890000D01*
X88855000Y-36890000D02*
X94055000Y-36890000D01*
X94055000Y-31690000D02*
X94055000Y-32260000D01*
X94055000Y-33780000D02*
X94055000Y-34800000D01*
X94055000Y-36320000D02*
X94055000Y-36890000D01*
D14*
%TO.C,J1*%
X110948480Y-61780420D02*
G75*
G02*
X106950520Y-61780420I-1998980J0D01*
G01*
X106950520Y-61780420D02*
G75*
G02*
X110948480Y-61780420I1998980J0D01*
G01*
D13*
%TO.C,JP1*%
X76690000Y-43480000D02*
X76690000Y-42880000D01*
X77390000Y-42180000D02*
X78790000Y-42180000D01*
X78790000Y-44180000D02*
X77390000Y-44180000D01*
X79490000Y-42880000D02*
X79490000Y-43480000D01*
X76690000Y-42880000D02*
G75*
G02*
X77390000Y-42180000I699999J1D01*
G01*
X77390000Y-44180000D02*
G75*
G02*
X76690000Y-43480000I-1J699999D01*
G01*
X78790000Y-42180000D02*
G75*
G02*
X79490000Y-42880000I0J-700000D01*
G01*
X79490000Y-43480000D02*
G75*
G02*
X78790000Y-44180000I-700000J0D01*
G01*
%TO.C,JP2*%
X76690000Y-48560000D02*
X76690000Y-47960000D01*
X77390000Y-47260000D02*
X78790000Y-47260000D01*
X78790000Y-49260000D02*
X77390000Y-49260000D01*
X79490000Y-47960000D02*
X79490000Y-48560000D01*
X76690000Y-47960000D02*
G75*
G02*
X77390000Y-47260000I699999J1D01*
G01*
X77390000Y-49260000D02*
G75*
G02*
X76690000Y-48560000I-1J699999D01*
G01*
X78790000Y-47260000D02*
G75*
G02*
X79490000Y-47960000I0J-700000D01*
G01*
X79490000Y-48560000D02*
G75*
G02*
X78790000Y-49260000I-700000J0D01*
G01*
%TO.C,J2*%
X110275000Y-32260000D02*
X111715000Y-32260000D01*
X111715000Y-31690000D02*
X111715000Y-32260000D01*
X111715000Y-31690000D02*
X116915000Y-31690000D01*
X111715000Y-33780000D02*
X111715000Y-34800000D01*
X111715000Y-36320000D02*
X111715000Y-36890000D01*
X111715000Y-36890000D02*
X116915000Y-36890000D01*
X116915000Y-31690000D02*
X116915000Y-32260000D01*
X116915000Y-33780000D02*
X116915000Y-34800000D01*
X116915000Y-36320000D02*
X116915000Y-36890000D01*
D12*
%TO.C,U1*%
X89535000Y-53975000D02*
X89535000Y-78105000D01*
X89535000Y-78105000D02*
X113665000Y-78105000D01*
X113665000Y-53975000D02*
X89535000Y-53975000D01*
X113665000Y-78105000D02*
X113665000Y-53975000D01*
D13*
%TO.C,SW1*%
X133930000Y-39950000D02*
X140390000Y-39950000D01*
X133930000Y-39980000D02*
X133930000Y-39950000D01*
X133930000Y-41880000D02*
X133930000Y-44480000D01*
X133930000Y-46410000D02*
X133930000Y-46380000D01*
X133930000Y-46410000D02*
X140390000Y-46410000D01*
X140390000Y-39950000D02*
X140390000Y-39980000D01*
X140390000Y-41880000D02*
X140390000Y-44480000D01*
X140390000Y-46410000D02*
X140390000Y-46380000D01*
%TO.C,J4*%
X54550000Y-78695000D02*
X55120000Y-78695000D01*
X54550000Y-83895000D02*
X54550000Y-78695000D01*
X54550000Y-83895000D02*
X55120000Y-83895000D01*
X55120000Y-85335000D02*
X55120000Y-83895000D01*
X56640000Y-78695000D02*
X57660000Y-78695000D01*
X56640000Y-83895000D02*
X57660000Y-83895000D01*
X59180000Y-78695000D02*
X60200000Y-78695000D01*
X59180000Y-83895000D02*
X60200000Y-83895000D01*
X61720000Y-78695000D02*
X62740000Y-78695000D01*
X61720000Y-83895000D02*
X62740000Y-83895000D01*
X64260000Y-78695000D02*
X65280000Y-78695000D01*
X64260000Y-83895000D02*
X65280000Y-83895000D01*
X66800000Y-78695000D02*
X67820000Y-78695000D01*
X66800000Y-83895000D02*
X67820000Y-83895000D01*
X69340000Y-78695000D02*
X70360000Y-78695000D01*
X69340000Y-83895000D02*
X70360000Y-83895000D01*
X71880000Y-78695000D02*
X72900000Y-78695000D01*
X71880000Y-83895000D02*
X72900000Y-83895000D01*
X74420000Y-78695000D02*
X74990000Y-78695000D01*
X74420000Y-83895000D02*
X74990000Y-83895000D01*
X74990000Y-83895000D02*
X74990000Y-78695000D01*
%TD*%
D15*
%TO.C,U1*%
X90170000Y-54610000D03*
X92710000Y-54610000D03*
X95250000Y-54610000D03*
X97790000Y-54610000D03*
X100330000Y-54610000D03*
X102870000Y-54610000D03*
X105410000Y-54610000D03*
X107950000Y-54610000D03*
X110490000Y-54610000D03*
X113030000Y-54610000D03*
X90170000Y-57150000D03*
X92710000Y-57150000D03*
X95250000Y-57150000D03*
X97790000Y-57150000D03*
X100330000Y-57150000D03*
X102870000Y-57150000D03*
X105410000Y-57150000D03*
X107950000Y-57150000D03*
X110490000Y-57150000D03*
X113030000Y-57150000D03*
X90170000Y-59690000D03*
X92710000Y-59690000D03*
X110490000Y-59690000D03*
X113030000Y-59690000D03*
X90170000Y-62230000D03*
X92710000Y-62230000D03*
X110490000Y-62230000D03*
X113030000Y-62230000D03*
X90170000Y-64770000D03*
X92710000Y-64770000D03*
X110490000Y-64770000D03*
X113030000Y-64770000D03*
X90170000Y-67310000D03*
X92710000Y-67310000D03*
X110490000Y-67310000D03*
X113030000Y-67310000D03*
X90170000Y-69850000D03*
X92710000Y-69850000D03*
X110490000Y-69850000D03*
X113030000Y-69850000D03*
X90170000Y-72390000D03*
X92710000Y-72390000D03*
X110490000Y-72390000D03*
X113030000Y-72390000D03*
X90170000Y-74930000D03*
X92710000Y-74930000D03*
X95250000Y-74930000D03*
X97790000Y-74930000D03*
X100330000Y-74930000D03*
X102870000Y-74930000D03*
X105410000Y-74930000D03*
X107950000Y-74930000D03*
X110490000Y-74930000D03*
X113030000Y-74930000D03*
X90170000Y-77470000D03*
X92710000Y-77470000D03*
X95250000Y-77470000D03*
X97790000Y-77470000D03*
X100330000Y-77470000D03*
X102870000Y-77470000D03*
X105410000Y-77470000D03*
X107950000Y-77470000D03*
X110490000Y-77470000D03*
X113030000Y-77470000D03*
%TD*%
M02*
